NewsreaderDisplay-ExtraLightItalic.ufo
<glyph name="exclam" format="2">
	<unicode hex="0021"/>
	<advance width="480"/>
	<outline>
		<contour>
			<point x="560" y="1407" type="line" smooth="yes"/>
			<point x="568" y="1433"/>
			<point x="548" y="1446"/>
			<point x="520" y="1446" type="curve" smooth="yes"/>
			<point x="496" y="1446"/>
			<point x="474" y="1434"/>
			<point x="467" y="1411" type="curve" smooth="yes"/>
			<point x="458" y="1381" type="line" smooth="yes"/>
			<point x="449" y="1350"/>
			<point x="287" y="717"/>
			<point x="191" y="396" type="curve"/>
			<point x="214" y="396" type="line"/>
			<point x="315" y="717"/>
			<point x="543" y="1349"/>
			<point x="551" y="1377" type="curve" smooth="yes"/>
		</contour>
		<contour>
			<point x="111" y="155" type="curve" smooth="yes"/>
			<point x="54" y="155"/>
			<point x="19" y="114"/>
			<point x="19" y="63" type="curve" smooth="yes"/>
			<point x="19" y="18"/>
			<point x="52" y="-14"/>
			<point x="99" y="-14" type="curve" smooth="yes"/>
			<point x="156" y="-14"/>
			<point x="191" y="27"/>
			<point x="191" y="78" type="curve" smooth="yes"/>
			<point x="191" y="123"/>
			<point x="158" y="155"/>
		</contour>
	</outline>
</glyph>
<glyph name="ampersand" format="2">
	<unicode hex="0026"/>
	<advance width="1367"/>
	<outline>
		<contour>
			<point x="904" y="254" type="line"/>
			<point x="1022" y="389"/>
			<point x="1144" y="583"/>
			<point x="1275" y="837" type="curve"/>
			<point x="1442" y="861" type="line"/>
			<point x="1446" y="874" type="line"/>
			<point x="1066" y="874" type="line"/>
			<point x="1062" y="861" type="line"/>
			<point x="1219" y="837" type="line"/>
			<point x="1112" y="585"/>
			<point x="1003" y="403"/>
			<point x="893" y="276" type="curve"/>
			<point x="863" y="242" type="line"/>
			<point x="721" y="90"/>
			<point x="577" y="29"/>
			<point x="433" y="29" type="curve" smooth="yes"/>
			<point x="261" y="29"/>
			<point x="138" y="135"/>
			<point x="138" y="326" type="curve" smooth="yes"/>
			<point x="138" y="490"/>
			<point x="216" y="634"/>
			<point x="569" y="780" type="curve"/>
			<point x="611" y="795" type="line"/>
			<point x="939" y="944"/>
			<point x="1048" y="1075"/>
			<point x="1048" y="1225" type="curve" smooth="yes"/>
			<point x="1048" y="1348"/>
			<point x="963" y="1450"/>
			<point x="788" y="1450" type="curve" smooth="yes"/>
			<point x="604" y="1450"/>
			<point x="445" y="1342"/>
			<point x="445" y="1134" type="curve" smooth="yes"/>
			<point x="445" y="1039"/>
			<point x="476" y="923"/>
			<point x="551" y="787" type="curve" smooth="yes"/>
			<point x="983" y="0" type="line"/>
			<point x="1228" y="0" type="line"/>
			<point x="1231" y="10" type="line"/>
			<point x="1039" y="43" type="line"/>
			<point x="592" y="853" type="line" smooth="yes"/>
			<point x="535" y="956"/>
			<point x="503" y="1066"/>
			<point x="503" y="1171" type="curve" smooth="yes"/>
			<point x="503" y="1316"/>
			<point x="610" y="1424"/>
			<point x="781" y="1424" type="curve" smooth="yes"/>
			<point x="915" y="1424"/>
			<point x="992" y="1343"/>
			<point x="992" y="1225" type="curve" smooth="yes"/>
			<point x="992" y="1064"/>
			<point x="879" y="942"/>
			<point x="603" y="815" type="curve"/>
			<point x="572" y="802" type="line"/>
			<point x="153" y="639"/>
			<point x="68" y="483"/>
			<point x="68" y="301" type="curve" smooth="yes"/>
			<point x="68" y="98"/>
			<point x="197" y="-20"/>
			<point x="413" y="-20" type="curve" smooth="yes"/>
			<point x="562" y="-20"/>
			<point x="713" y="47"/>
			<point x="874" y="221" type="curve"/>
		</contour>
	</outline>
</glyph>
<glyph name="quotesingle" format="2">
	<unicode hex="0027"/>
	<advance width="290"/>
	<outline>
		<contour>
			<point x="280" y="1006" type="line"/>
			<point x="296" y="1006" type="line"/>
			<point x="448" y="1387" type="line"/>
			<point x="461" y="1430" type="line"/>
			<point x="377" y="1430" type="line"/>
			<point x="364" y="1387" type="line"/>
		</contour>
	</outline>
</glyph>
<glyph name="parenleft" format="2">
	<unicode hex="0028"/>
	<advance width="492"/>
	<outline>
		<contour>
			<point x="716" y="1432" type="curve"/>
			<point x="697" y="1450" type="line"/>
			<point x="198" y="936"/>
			<point x="78" y="686"/>
			<point x="78" y="315" type="curve" smooth="yes"/>
			<point x="78" y="131"/>
			<point x="121" y="-33"/>
			<point x="184" y="-228" type="curve"/>
			<point x="207" y="-220" type="line"/>
			<point x="159" y="-56"/>
			<point x="137" y="91"/>
			<point x="137" y="292" type="curve" smooth="yes"/>
			<point x="137" y="578"/>
			<point x="236" y="908"/>
		</contour>
	</outline>
</glyph>
<glyph name="parenright" format="2">
	<unicode hex="0029"/>
	<advance width="494"/>
	<outline>
		<contour>
			<point x="-162" y="-210" type="curve"/>
			<point x="-143" y="-228" type="line"/>
			<point x="356" y="286"/>
			<point x="476" y="536"/>
			<point x="476" y="907" type="curve" smooth="yes"/>
			<point x="476" y="1091"/>
			<point x="433" y="1255"/>
			<point x="370" y="1450" type="curve"/>
			<point x="347" y="1442" type="line"/>
			<point x="395" y="1278"/>
			<point x="417" y="1131"/>
			<point x="417" y="930" type="curve" smooth="yes"/>
			<point x="417" y="644"/>
			<point x="318" y="314"/>
		</contour>
	</outline>
</glyph>
<glyph name="asterisk" format="2">
	<unicode hex="002A"/>
	<advance width="749"/>
	<outline>
		<contour>
			<point x="690" y="911" type="line"/>
			<point x="614" y="1142" type="line"/>
			<point x="858" y="1182" type="line"/>
			<point x="857" y="1199" type="line"/>
			<point x="610" y="1200" type="line"/>
			<point x="653" y="1443" type="line"/>
			<point x="635" y="1448" type="line"/>
			<point x="554" y="1213" type="line"/>
			<point x="337" y="1326" type="line"/>
			<point x="328" y="1312" type="line"/>
			<point x="523" y="1165" type="line"/>
			<point x="352" y="992" type="line"/>
			<point x="363" y="980" type="line"/>
			<point x="560" y="1121" type="line"/>
			<point x="674" y="904" type="line"/>
		</contour>
	</outline>
</glyph>
<glyph name="plus" format="2">
	<unicode hex="002B"/>
	<advance width="1150"/>
	<outline>
		<contour>
			<point x="427" y="101" type="line"/>
			<point x="471" y="101" type="line"/>
			<point x="723" y="923" type="line"/>
			<point x="679" y="923" type="line"/>
		</contour>
		<contour>
			<point x="171" y="534" type="line"/>
			<point x="157" y="490" type="line"/>
			<point x="979" y="490" type="line"/>
			<point x="993" y="534" type="line"/>
		</contour>
	</outline>
</glyph>
<glyph name="comma" format="2">
	<unicode hex="002C"/>
	<advance width="315"/>
	<outline>
		<contour>
			<point x="-165" y="-267" type="curve"/>
			<point x="-155" y="-281" type="line"/>
			<point x="61" y="-128"/>
			<point x="122" y="-14"/>
			<point x="122" y="77" type="curve" smooth="yes"/>
			<point x="122" y="130"/>
			<point x="89" y="155"/>
			<point x="51" y="155" type="curve" smooth="yes"/>
			<point x="-3" y="155"/>
			<point x="-33" y="114"/>
			<point x="-33" y="76" type="curve" smooth="yes"/>
			<point x="-33" y="44"/>
			<point x="42" y="46"/>
			<point x="42" y="-6" type="curve" smooth="yes"/>
			<point x="42" y="-60"/>
			<point x="-8" y="-148"/>
		</contour>
	</outline>
</glyph>
<glyph name="hyphen" format="2">
	<unicode hex="002D"/>
	<advance width="525"/>
	<outline>
		<contour>
			<point x="103" y="548" type="line"/>
			<point x="80" y="476" type="line"/>
			<point x="422" y="476" type="line"/>
			<point x="445" y="548" type="line"/>
		</contour>
	</outline>
</glyph>
<glyph name="period" format="2">
	<unicode hex="002E"/>
	<advance width="370"/>
	<outline>
		<contour>
			<point x="82" y="155" type="curve" smooth="yes"/>
			<point x="25" y="155"/>
			<point x="-10" y="114"/>
			<point x="-10" y="63" type="curve" smooth="yes"/>
			<point x="-10" y="18"/>
			<point x="23" y="-14"/>
			<point x="70" y="-14" type="curve" smooth="yes"/>
			<point x="127" y="-14"/>
			<point x="162" y="27"/>
			<point x="162" y="78" type="curve" smooth="yes"/>
			<point x="162" y="123"/>
			<point x="129" y="155"/>
		</contour>
	</outline>
</glyph>
<glyph name="slash" format="2">
	<unicode hex="002F"/>
	<advance width="805"/>
	<outline>
		<contour>
			<point x="-67" y="0" type="line"/>
			<point x="-4" y="0" type="line"/>
			<point x="997" y="1430" type="line"/>
			<point x="934" y="1430" type="line"/>
		</contour>
	</outline>
</glyph>
<glyph name="zero" format="2">
	<unicode hex="0030"/>
	<advance width="1200"/>
	<outline>
		<contour>
			<point x="209" y="356" type="curve" smooth="yes"/>
			<point x="209" y="714"/>
			<point x="471" y="1427"/>
			<point x="873" y="1427" type="curve" smooth="yes"/>
			<point x="1022" y="1427"/>
			<point x="1115" y="1324"/>
			<point x="1115" y="1074" type="curve" smooth="yes"/>
			<point x="1115" y="716"/>
			<point x="853" y="3"/>
			<point x="451" y="3" type="curve" smooth="yes"/>
			<point x="302" y="3"/>
			<point x="209" y="106"/>
		</contour>
		<contour>
			<point x="870" y="1450" type="curve" smooth="yes"/>
			<point x="426" y="1450"/>
			<point x="137" y="813"/>
			<point x="137" y="378" type="curve" smooth="yes"/>
			<point x="137" y="134"/>
			<point x="239" y="-20"/>
			<point x="454" y="-20" type="curve" smooth="yes"/>
			<point x="898" y="-20"/>
			<point x="1187" y="617"/>
			<point x="1187" y="1052" type="curve" smooth="yes"/>
			<point x="1187" y="1296"/>
			<point x="1085" y="1450"/>
		</contour>
	</outline>
</glyph>
<glyph name="one" format="2">
	<unicode hex="0031"/>
	<advance width="1200"/>
	<outline>
		<contour>
			<point x="493" y="40" type="line"/>
			<point x="200" y="12" type="line"/>
			<point x="195" y="0" type="line"/>
			<point x="850" y="0" type="line"/>
			<point x="857" y="12" type="line"/>
			<point x="568" y="40" type="line"/>
			<point x="999" y="1449" type="line"/>
			<point x="983" y="1449" type="line"/>
			<point x="476" y="1240" type="line"/>
			<point x="480" y="1228" type="line"/>
			<point x="918" y="1356" type="line"/>
			<point x="898" y="1362" type="line"/>
		</contour>
	</outline>
</glyph>
<glyph name="colon" format="2">
	<unicode hex="003A"/>
	<advance width="435"/>
	<outline>
		<contour>
			<point x="88" y="155" type="curve" smooth="yes"/>
			<point x="31" y="155"/>
			<point x="-4" y="114"/>
			<point x="-4" y="63" type="curve" smooth="yes"/>
			<point x="-4" y="18"/>
			<point x="29" y="-14"/>
			<point x="76" y="-14" type="curve" smooth="yes"/>
			<point x="133" y="-14"/>
			<point x="168" y="27"/>
			<point x="168" y="78" type="curve" smooth="yes"/>
			<point x="168" y="123"/>
			<point x="135" y="155"/>
		</contour>
		<contour>
			<point x="358" y="1038" type="curve" smooth="yes"/>
			<point x="301" y="1038"/>
			<point x="266" y="997"/>
			<point x="266" y="946" type="curve" smooth="yes"/>
			<point x="266" y="901"/>
			<point x="299" y="869"/>
			<point x="346" y="869" type="curve" smooth="yes"/>
			<point x="403" y="869"/>
			<point x="438" y="910"/>
			<point x="438" y="961" type="curve" smooth="yes"/>
			<point x="438" y="1006"/>
			<point x="405" y="1038"/>
		</contour>
	</outline>
</glyph>
<glyph name="semicolon" format="2">
	<unicode hex="003B"/>
	<advance width="452"/>
	<outline>
		<contour>
			<point x="-114" y="-267" type="curve"/>
			<point x="-104" y="-281" type="line"/>
			<point x="112" y="-128"/>
			<point x="173" y="-14"/>
			<point x="173" y="77" type="curve" smooth="yes"/>
			<point x="173" y="130"/>
			<point x="140" y="155"/>
			<point x="102" y="155" type="curve" smooth="yes"/>
			<point x="48" y="155"/>
			<point x="18" y="114"/>
			<point x="18" y="76" type="curve" smooth="yes"/>
			<point x="18" y="44"/>
			<point x="93" y="46"/>
			<point x="93" y="-6" type="curve" smooth="yes"/>
			<point x="93" y="-60"/>
			<point x="43" y="-148"/>
		</contour>
		<contour>
			<point x="369" y="1038" type="curve" smooth="yes"/>
			<point x="312" y="1038"/>
			<point x="277" y="997"/>
			<point x="277" y="946" type="curve" smooth="yes"/>
			<point x="277" y="901"/>
			<point x="310" y="869"/>
			<point x="357" y="869" type="curve" smooth="yes"/>
			<point x="414" y="869"/>
			<point x="449" y="910"/>
			<point x="449" y="961" type="curve" smooth="yes"/>
			<point x="449" y="1006"/>
			<point x="416" y="1038"/>
		</contour>
	</outline>
</glyph>
<glyph name="less" format="2">
  <advance width="1150"/>
  <unicode hex="003C"/>
  <guideline x="1100.0" y="909" angle="176.00844947234287" identifier="hNJyq7bwXG"/>
  <outline>
    <contour>
      <point x="168.0" y="498.0" type="line"/>
      <point x="1083.0" y="853.0" type="line"/>
      <point x="1100.0" y="909.0" type="line"/>
      <point x="150.0" y="536.0" type="line"/>
      <point x="136.0" y="488.0" type="line"/>
      <point x="858.0" y="115.0" type="line"/>
      <point x="871.0" y="161.0" type="line"/>
      <point x="176.0" y="522.0" type="line"/>
    </contour>
  </outline>
</glyph>
<glyph name="greater" format="2">
	<unicode hex="003E"/>
	<advance width="1150"/>
	<outline>
		<contour>
			<point x="981" y="526" type="line"/>
			<point x="66" y="171" type="line"/>
			<point x="49" y="115" type="line"/>
			<point x="999" y="488" type="line"/>
			<point x="1013" y="536" type="line"/>
			<point x="291" y="909" type="line"/>
			<point x="278" y="863" type="line"/>
			<point x="973" y="502" type="line"/>
		</contour>
	</outline>
</glyph>
<glyph name="question" format="2">
	<unicode hex="003F"/>
	<advance width="946"/>
	<outline>
		<contour>
			<point x="279" y="155" type="curve" smooth="yes"/>
			<point x="222" y="155"/>
			<point x="187" y="114"/>
			<point x="187" y="63" type="curve" smooth="yes"/>
			<point x="187" y="18"/>
			<point x="220" y="-14"/>
			<point x="267" y="-14" type="curve" smooth="yes"/>
			<point x="324" y="-14"/>
			<point x="359" y="27"/>
			<point x="359" y="78" type="curve" smooth="yes"/>
			<point x="359" y="123"/>
			<point x="326" y="155"/>
		</contour>
		<contour>
			<point x="521" y="1450" type="curve" smooth="yes"/>
			<point x="348" y="1450"/>
			<point x="316" y="1413"/>
			<point x="316" y="1369" type="curve" smooth="yes"/>
			<point x="316" y="1341"/>
			<point x="335" y="1317"/>
			<point x="357" y="1317" type="curve" smooth="yes"/>
			<point x="367" y="1317"/>
			<point x="447" y="1387"/>
			<point x="599" y="1387" type="curve" smooth="yes"/>
			<point x="790" y="1387"/>
			<point x="930" y="1261"/>
			<point x="930" y="1042" type="curve" smooth="yes"/>
			<point x="930" y="806"/>
			<point x="793" y="721"/>
			<point x="430" y="763" type="curve"/>
			<point x="358" y="396" type="line"/>
			<point x="377" y="396" type="line"/>
			<point x="485" y="750" type="line"/>
			<point x="440" y="689" type="line"/>
			<point x="838" y="642"/>
			<point x="978" y="778"/>
			<point x="978" y="1018" type="curve" smooth="yes"/>
			<point x="978" y="1279"/>
			<point x="747" y="1450"/>
		</contour>
	</outline>
</glyph>
<glyph name="at" format="2">
	<unicode hex="0040"/>
	<advance width="1758"/>
	<outline>
		<contour>
			<point x="1306" y="268" type="curve" smooth="yes"/>
			<point x="1217" y="268"/>
			<point x="1156" y="316"/>
			<point x="1156" y="430" type="curve" smooth="yes"/>
			<point x="1156" y="479"/>
			<point x="1167" y="541"/>
			<point x="1193" y="617" type="curve" smooth="yes"/>
			<point x="1336" y="1039" type="line"/>
			<point x="1265" y="1039" type="line"/>
			<point x="1239" y="964" type="line"/>
			<point x="1126" y="624" type="line"/>
			<point x="937" y="354"/>
			<point x="837" y="293"/>
			<point x="754" y="293" type="curve" smooth="yes"/>
			<point x="679" y="293"/>
			<point x="647" y="343"/>
			<point x="647" y="434" type="curve" smooth="yes"/>
			<point x="647" y="651"/>
			<point x="863" y="1031"/>
			<point x="1083" y="1031" type="curve" smooth="yes"/>
			<point x="1141" y="1031"/>
			<point x="1193" y="1014"/>
			<point x="1240" y="949" type="curve"/>
			<point x="1250" y="959" type="line"/>
			<point x="1206" y="1026"/>
			<point x="1154" y="1055"/>
			<point x="1079" y="1055" type="curve" smooth="yes"/>
			<point x="840" y="1055"/>
			<point x="569" y="692"/>
			<point x="569" y="432" type="curve" smooth="yes"/>
			<point x="569" y="325"/>
			<point x="611" y="247"/>
			<point x="737" y="247" type="curve" smooth="yes"/>
			<point x="830" y="247"/>
			<point x="948" y="334"/>
			<point x="1129" y="604" type="curve"/>
			<point x="1121" y="604" type="line"/>
			<point x="1103" y="534" type="line" smooth="yes"/>
			<point x="1095" y="502"/>
			<point x="1091" y="471"/>
			<point x="1091" y="443" type="curve" smooth="yes"/>
			<point x="1091" y="324"/>
			<point x="1163" y="247"/>
			<point x="1297" y="247" type="curve" smooth="yes"/>
			<point x="1561" y="247"/>
			<point x="1766" y="512"/>
			<point x="1766" y="868" type="curve" smooth="yes"/>
			<point x="1766" y="1200"/>
			<point x="1540" y="1450"/>
			<point x="1115" y="1450" type="curve" smooth="yes"/>
			<point x="549" y="1450"/>
			<point x="105" y="981"/>
			<point x="105" y="440" type="curve" smooth="yes"/>
			<point x="105" y="10"/>
			<point x="393" y="-218"/>
			<point x="841" y="-218" type="curve" smooth="yes"/>
			<point x="1046" y="-218"/>
			<point x="1305" y="-143"/>
			<point x="1482" y="-23" type="curve"/>
			<point x="1472" y="-7" type="line"/>
			<point x="1276" y="-132"/>
			<point x="1030" y="-185"/>
			<point x="870" y="-185" type="curve" smooth="yes"/>
			<point x="430" y="-185"/>
			<point x="174" y="37"/>
			<point x="174" y="441" type="curve" smooth="yes"/>
			<point x="174" y="988"/>
			<point x="570" y="1420"/>
			<point x="1111" y="1420" type="curve" smooth="yes"/>
			<point x="1493" y="1420"/>
			<point x="1712" y="1172"/>
			<point x="1712" y="852" type="curve" smooth="yes"/>
			<point x="1712" y="514"/>
			<point x="1537" y="268"/>
		</contour>
	</outline>
</glyph>
<glyph name="A" format="2">
	<unicode hex="0041"/>
	<advance width="1359"/>
	<outline>
		<contour>
			<point x="411" y="591" type="line"/>
			<point x="989" y="591" type="line"/>
			<point x="998" y="619" type="line"/>
			<point x="420" y="619" type="line"/>
		</contour>
		<contour>
			<point x="1067" y="38" type="line"/>
			<point x="973" y="1450" type="line"/>
			<point x="951" y="1450" type="line"/>
			<point x="28" y="38" type="line"/>
			<point x="-152" y="12" type="line"/>
			<point x="-155" y="0" type="line"/>
			<point x="230" y="0" type="line"/>
			<point x="233" y="12" type="line"/>
			<point x="64" y="38" type="line"/>
			<point x="917" y="1349" type="line"/>
			<point x="905" y="1349" type="line"/>
			<point x="992" y="38" type="line"/>
			<point x="813" y="12" type="line"/>
			<point x="809" y="0" type="line"/>
			<point x="1233" y="0" type="line"/>
			<point x="1236" y="12" type="line"/>
		</contour>
	</outline>
	<anchor name="UCtop" x="921" y="1430"/>
	<anchor name="bottom" x="533" y="0"/>
	<anchor name="right" x="1129" y="0"/>
</glyph>
<glyph name="B" format="2">
	<unicode hex="0042"/>
	<advance width="1146"/>
	<outline>
		<contour>
			<point x="536" y="1402" type="line"/>
			<point x="746" y="1402" type="line" smooth="yes"/>
			<point x="997" y="1402"/>
			<point x="1070" y="1292"/>
			<point x="1070" y="1149" type="curve" smooth="yes"/>
			<point x="1070" y="943"/>
			<point x="908" y="775"/>
			<point x="624" y="775" type="curve" smooth="yes"/>
			<point x="345" y="775" type="line"/>
			<point x="333" y="747" type="line"/>
			<point x="617" y="747" type="line" smooth="yes"/>
			<point x="863" y="747"/>
			<point x="952" y="652"/>
			<point x="952" y="501" type="curve" smooth="yes"/>
			<point x="952" y="237"/>
			<point x="759" y="28"/>
			<point x="382" y="28" type="curve" smooth="yes"/>
			<point x="113" y="28" type="line"/>
			<point x="133" y="0" type="line"/>
			<point x="381" y="0" type="line" smooth="yes"/>
			<point x="812" y="0"/>
			<point x="1031" y="223"/>
			<point x="1031" y="484" type="curve" smooth="yes"/>
			<point x="1031" y="622"/>
			<point x="950" y="741"/>
			<point x="722" y="762" type="curve"/>
			<point x="719" y="758" type="line"/>
			<point x="1033" y="812"/>
			<point x="1144" y="971"/>
			<point x="1144" y="1163" type="curve" smooth="yes"/>
			<point x="1144" y="1313"/>
			<point x="1031" y="1430"/>
			<point x="772" y="1430" type="curve" smooth="yes"/>
			<point x="570" y="1430" type="line"/>
		</contour>
		<contour>
			<point x="510" y="1394" type="line"/>
			<point x="96" y="36" type="line"/>
			<point x="-83" y="12" type="line"/>
			<point x="-86" y="0" type="line"/>
			<point x="161" y="0" type="line"/>
			<point x="598" y="1430" type="line"/>
			<point x="343" y="1430" type="line"/>
			<point x="339" y="1418" type="line"/>
		</contour>
	</outline>
	<anchor name="UCtop" x="810" y="1430"/>
	<anchor name="bottom" x="462" y="0"/>
</glyph>
<glyph name="C" format="2">
	<unicode hex="0043"/>
	<advance width="1377"/>
	<outline>
		<contour>
			<point x="1100" y="99" type="line"/>
			<point x="998" y="38"/>
			<point x="870" y="5"/>
			<point x="754" y="5" type="curve" smooth="yes"/>
			<point x="452" y="5"/>
			<point x="235" y="206"/>
			<point x="235" y="555" type="curve" smooth="yes"/>
			<point x="235" y="1107"/>
			<point x="598" y="1418"/>
			<point x="1014" y="1418" type="curve" smooth="yes"/>
			<point x="1168" y="1418"/>
			<point x="1292" y="1385"/>
			<point x="1398" y="1294" type="curve"/>
			<point x="1330" y="1362" type="line"/>
			<point x="1377" y="1021" type="line"/>
			<point x="1394" y="1021" type="line"/>
			<point x="1427" y="1479" type="line"/>
			<point x="1423" y="1479" type="line"/>
			<point x="1338" y="1381" type="line"/>
			<point x="1413" y="1385" type="line"/>
			<point x="1316" y="1427"/>
			<point x="1206" y="1450"/>
			<point x="1055" y="1450" type="curve" smooth="yes"/>
			<point x="571" y="1450"/>
			<point x="155" y="1106"/>
			<point x="155" y="559" type="curve" smooth="yes"/>
			<point x="155" y="215"/>
			<point x="372" y="-20"/>
			<point x="753" y="-20" type="curve" smooth="yes"/>
			<point x="869" y="-20"/>
			<point x="1023" y="2"/>
			<point x="1134" y="46" type="curve"/>
			<point x="1287" y="346" type="line"/>
			<point x="1270" y="346" type="line"/>
			<point x="1042" y="44" type="line"/>
		</contour>
	</outline>
	<anchor name="UCtop" x="1012" y="1430"/>
	<anchor name="bottom" x="694" y="0"/>
	<anchor name="right" x="1110" y="0"/>
</glyph>
<glyph name="D" format="2">
	<unicode hex="0044"/>
	<advance width="1434"/>
	<outline>
		<contour>
			<point x="402" y="28" type="curve" smooth="yes"/>
			<point x="96" y="28" type="line"/>
			<point x="106" y="0" type="line"/>
			<point x="447" y="0" type="line" smooth="yes"/>
			<point x="1057" y="0"/>
			<point x="1412" y="407"/>
			<point x="1412" y="911" type="curve" smooth="yes"/>
			<point x="1412" y="1231"/>
			<point x="1179" y="1430"/>
			<point x="779" y="1430" type="curve" smooth="yes"/>
			<point x="543" y="1430" type="line"/>
			<point x="515" y="1402" type="line"/>
			<point x="751" y="1402" type="line" smooth="yes"/>
			<point x="1120" y="1402"/>
			<point x="1332" y="1226"/>
			<point x="1332" y="904" type="curve" smooth="yes"/>
			<point x="1332" y="441"/>
			<point x="1036" y="28"/>
		</contour>
		<contour>
			<point x="510" y="1394" type="line"/>
			<point x="96" y="36" type="line"/>
			<point x="-83" y="12" type="line"/>
			<point x="-86" y="0" type="line"/>
			<point x="161" y="0" type="line"/>
			<point x="598" y="1430" type="line"/>
			<point x="343" y="1430" type="line"/>
			<point x="339" y="1418" type="line"/>
		</contour>
	</outline>
	<anchor name="UCtop" x="1024" y="1430"/>
	<anchor name="bottom" x="596" y="0"/>
</glyph>
<glyph name="E" format="2">
	<unicode hex="0045"/>
	<advance width="1219"/>
	<outline>
		<contour>
			<point x="510" y="1394" type="line"/>
			<point x="96" y="36" type="line"/>
			<point x="-83" y="12" type="line"/>
			<point x="-86" y="0" type="line"/>
			<point x="161" y="0" type="line"/>
			<point x="598" y="1430" type="line"/>
			<point x="343" y="1430" type="line"/>
			<point x="339" y="1418" type="line"/>
		</contour>
		<contour>
			<point x="1214" y="1415" type="line"/>
			<point x="1245" y="1074" type="line"/>
			<point x="1259" y="1074" type="line"/>
			<point x="1303" y="1473" type="line"/>
			<point x="1299" y="1473" type="line"/>
			<point x="1224" y="1430" type="line"/>
			<point x="523" y="1430" type="line"/>
			<point x="514" y="1402" type="line"/>
			<point x="1259" y="1402" type="line"/>
		</contour>
		<contour>
			<point x="905" y="-49" type="line"/>
			<point x="911" y="-49" type="line"/>
			<point x="1139" y="368" type="line"/>
			<point x="1128" y="375" type="line"/>
			<point x="851" y="17" type="line"/>
			<point x="901" y="28" type="line"/>
			<point x="95" y="28" type="line"/>
			<point x="86" y="0" type="line"/>
			<point x="859" y="0" type="line"/>
		</contour>
		<contour>
			<point x="826" y="463" type="line"/>
			<point x="880" y="748" type="line"/>
			<point x="1001" y="1034" type="line"/>
			<point x="991" y="1034" type="line"/>
			<point x="833" y="772" type="line"/>
			<point x="372" y="760" type="line"/>
			<point x="364" y="738" type="line"/>
			<point x="823" y="728" type="line"/>
			<point x="817" y="463" type="line"/>
		</contour>
	</outline>
	<anchor name="UCtop" x="869" y="1430"/>
	<anchor name="right" x="899" y="0"/>
	<anchor name="bottom" x="511" y="0"/>
</glyph>
<glyph name="F" format="2">
	<unicode hex="0046"/>
	<advance width="1066"/>
	<outline>
		<contour>
			<point x="963" y="1003" type="line"/>
			<point x="953" y="1003" type="line"/>
			<point x="795" y="741" type="line"/>
			<point x="363" y="729" type="line"/>
			<point x="355" y="707" type="line"/>
			<point x="785" y="697" type="line"/>
			<point x="779" y="432" type="line"/>
			<point x="788" y="432" type="line"/>
			<point x="842" y="717" type="line"/>
		</contour>
		<contour>
			<point x="1202" y="1074" type="line"/>
			<point x="1246" y="1473" type="line"/>
			<point x="1242" y="1473" type="line"/>
			<point x="1167" y="1430" type="line"/>
			<point x="523" y="1430" type="line"/>
			<point x="514" y="1402" type="line"/>
			<point x="1202" y="1402" type="line"/>
			<point x="1157" y="1415" type="line"/>
			<point x="1188" y="1074" type="line"/>
		</contour>
		<contour>
			<point x="172" y="36" type="line"/>
			<point x="598" y="1430" type="line"/>
			<point x="343" y="1430" type="line"/>
			<point x="339" y="1418" type="line"/>
			<point x="510" y="1394" type="line"/>
			<point x="96" y="36" type="line"/>
			<point x="-83" y="12" type="line"/>
			<point x="-86" y="0" type="line"/>
			<point x="339" y="0" type="line"/>
			<point x="343" y="12" type="line"/>
		</contour>
	</outline>
	<anchor name="UCtop" x="831" y="1430"/>
	<anchor name="bottom" x="123" y="0"/>
</glyph>
<glyph name="G" format="2">
	<unicode hex="0047"/>
	<advance width="1485"/>
	<outline>
		<contour>
			<point x="744" y="5" type="curve" smooth="yes"/>
			<point x="448" y="5"/>
			<point x="235" y="206"/>
			<point x="235" y="555" type="curve" smooth="yes"/>
			<point x="235" y="1107"/>
			<point x="598" y="1418"/>
			<point x="1014" y="1418" type="curve" smooth="yes"/>
			<point x="1168" y="1418"/>
			<point x="1292" y="1385"/>
			<point x="1398" y="1294" type="curve"/>
			<point x="1330" y="1362" type="line"/>
			<point x="1377" y="1021" type="line"/>
			<point x="1394" y="1021" type="line"/>
			<point x="1427" y="1479" type="line"/>
			<point x="1423" y="1479" type="line"/>
			<point x="1338" y="1381" type="line"/>
			<point x="1413" y="1385" type="line"/>
			<point x="1316" y="1427"/>
			<point x="1206" y="1450"/>
			<point x="1055" y="1450" type="curve" smooth="yes"/>
			<point x="571" y="1450"/>
			<point x="155" y="1106"/>
			<point x="155" y="559" type="curve" smooth="yes"/>
			<point x="155" y="215"/>
			<point x="368" y="-20"/>
			<point x="743" y="-20" type="curve" smooth="yes"/>
			<point x="908.3194766095" y="-20"/>
			<point x="1118" y="25"/>
			<point x="1284" y="88" type="curve"/>
			<point x="1285" y="93" type="line"/>
			<point x="1165" y="93" type="line"/>
			<point x="1321" y="603" type="line"/>
			<point x="1474" y="627" type="line"/>
			<point x="1478" y="639" type="line"/>
			<point x="1052" y="639" type="line"/>
			<point x="1048" y="627" type="line"/>
			<point x="1244" y="603" type="line"/>
			<point x="1077" y="54" type="line"/>
			<point x="1130" y="99" type="line"/>
			<point x="1019.192665066" y="32.7328683238"/>
			<point x="873.4104046243" y="5"/>
		</contour>
	</outline>
	<anchor name="UCtop" x="998" y="1430"/>
	<anchor name="bottom" x="740" y="0"/>
</glyph>
<glyph name="H" format="2">
	<unicode hex="0048"/>
	<advance width="1474"/>
	<outline>
		<contour>
			<point x="323" y="729" type="line"/>
			<point x="1280" y="729" type="line"/>
			<point x="1289" y="757" type="line"/>
			<point x="332" y="757" type="line"/>
		</contour>
		<contour>
			<point x="510" y="1394" type="line"/>
			<point x="96" y="36" type="line"/>
			<point x="-83" y="12" type="line"/>
			<point x="-86" y="0" type="line"/>
			<point x="339" y="0" type="line"/>
			<point x="343" y="12" type="line"/>
			<point x="172" y="36" type="line"/>
			<point x="587" y="1394" type="line"/>
			<point x="765" y="1418" type="line"/>
			<point x="769" y="1430" type="line"/>
			<point x="343" y="1430" type="line"/>
			<point x="339" y="1418" type="line"/>
		</contour>
		<contour>
			<point x="1423" y="1394" type="line"/>
			<point x="1009" y="36" type="line"/>
			<point x="830" y="12" type="line"/>
			<point x="827" y="0" type="line"/>
			<point x="1252" y="0" type="line"/>
			<point x="1256" y="12" type="line"/>
			<point x="1085" y="36" type="line"/>
			<point x="1500" y="1394" type="line"/>
			<point x="1678" y="1418" type="line"/>
			<point x="1682" y="1430" type="line"/>
			<point x="1256" y="1430" type="line"/>
			<point x="1252" y="1418" type="line"/>
		</contour>
	</outline>
	<anchor name="UCtop" x="979" y="1430"/>
	<anchor name="bottom" x="541" y="0"/>
</glyph>
<glyph name="I" format="2">
	<unicode hex="0049"/>
	<advance width="561"/>
	<outline>
		<contour>
			<point x="510" y="1394" type="line"/>
			<point x="96" y="36" type="line"/>
			<point x="-83" y="12" type="line"/>
			<point x="-86" y="0" type="line"/>
			<point x="339" y="0" type="line"/>
			<point x="343" y="12" type="line"/>
			<point x="172" y="36" type="line"/>
			<point x="587" y="1394" type="line"/>
			<point x="765" y="1418" type="line"/>
			<point x="769" y="1430" type="line"/>
			<point x="343" y="1430" type="line"/>
			<point x="339" y="1418" type="line"/>
		</contour>
	</outline>
	<anchor name="UCtop" x="553" y="1430"/>
	<anchor name="right" x="195" y="0"/>
	<anchor name="bottom" x="115" y="0"/>
</glyph>
<glyph name="J" format="2">
	<unicode hex="004A"/>
	<advance width="632"/>
	<outline>
		<contour>
			<point x="385" y="417" type="curve" smooth="yes"/>
			<point x="684" y="1394" type="line"/>
			<point x="862" y="1418" type="line"/>
			<point x="866" y="1430" type="line"/>
			<point x="440" y="1430" type="line"/>
			<point x="436" y="1418" type="line"/>
			<point x="607" y="1394" type="line"/>
			<point x="262" y="266" type="line" smooth="yes"/>
			<point x="215" y="110"/>
			<point x="135" y="33"/>
			<point x="27" y="33" type="curve" smooth="yes"/>
			<point x="-23" y="33"/>
			<point x="-62" y="68"/>
			<point x="-90" y="68" type="curve" smooth="yes"/>
			<point x="-114" y="68"/>
			<point x="-127" y="53"/>
			<point x="-127" y="30" type="curve" smooth="yes"/>
			<point x="-127" y="-1"/>
			<point x="-104" y="-17"/>
			<point x="-48" y="-17" type="curve" smooth="yes"/>
			<point x="130" y="-17"/>
			<point x="297" y="129"/>
		</contour>
	</outline>
	<anchor name="UCtop" x="651" y="1430"/>
	<anchor name="bottom" x="93" y="0"/>
</glyph>
<glyph name="K" format="2">
	<unicode hex="004B"/>
	<advance width="1305"/>
	<outline>
		<contour>
			<point x="1006" y="36" type="line"/>
			<point x="575" y="776" type="line"/>
			<point x="532" y="728" type="line"/>
			<point x="1337" y="1391" type="line"/>
			<point x="1519" y="1416" type="line"/>
			<point x="1524" y="1430" type="line"/>
			<point x="1133" y="1430" type="line"/>
			<point x="1129" y="1416" type="line"/>
			<point x="1295" y="1391" type="line"/>
			<point x="531" y="762" type="line"/>
			<point x="373" y="762" type="line"/>
			<point x="364" y="734" type="line"/>
			<point x="518" y="734" type="line"/>
			<point x="920" y="36" type="line"/>
			<point x="743" y="12" type="line"/>
			<point x="739" y="0" type="line"/>
			<point x="1176" y="0" type="line"/>
			<point x="1180" y="12" type="line"/>
		</contour>
		<contour>
			<point x="510" y="1394" type="line"/>
			<point x="96" y="36" type="line"/>
			<point x="-83" y="12" type="line"/>
			<point x="-86" y="0" type="line"/>
			<point x="339" y="0" type="line"/>
			<point x="343" y="12" type="line"/>
			<point x="172" y="36" type="line"/>
			<point x="587" y="1394" type="line"/>
			<point x="765" y="1418" type="line"/>
			<point x="769" y="1430" type="line"/>
			<point x="343" y="1430" type="line"/>
			<point x="339" y="1418" type="line"/>
		</contour>
	</outline>
	<anchor name="UCtop" x="920" y="1430"/>
	<anchor name="bottom" x="532" y="0"/>
</glyph>
<glyph name="L" format="2">
	<unicode hex="004C"/>
	<advance width="1114"/>
	<outline>
		<contour>
			<point x="587" y="1394" type="line"/>
			<point x="765" y="1418" type="line"/>
			<point x="769" y="1430" type="line"/>
			<point x="343" y="1430" type="line"/>
			<point x="339" y="1418" type="line"/>
			<point x="510" y="1394" type="line"/>
			<point x="96" y="36" type="line"/>
			<point x="-83" y="12" type="line"/>
			<point x="-86" y="0" type="line"/>
			<point x="161" y="0" type="line"/>
		</contour>
		<contour>
			<point x="760" y="17" type="line"/>
			<point x="810" y="28" type="line"/>
			<point x="134" y="28" type="line"/>
			<point x="125" y="0" type="line"/>
			<point x="768" y="0" type="line"/>
			<point x="814" y="-49" type="line"/>
			<point x="820" y="-49" type="line"/>
			<point x="1048" y="368" type="line"/>
			<point x="1037" y="375" type="line"/>
		</contour>
	</outline>
	<anchor name="UCtop" x="552" y="1430"/>
	<anchor name="right" x="779" y="1430"/>
	<anchor name="bottom" x="434" y="0"/>
	<anchor name="mid" x="938" y="773"/>
</glyph>
<glyph name="M" format="2">
	<unicode hex="004D"/>
	<advance width="1842"/>
	<outline>
		<contour>
			<point x="601" y="1404" type="line"/>
			<point x="584" y="1393" type="line"/>
			<point x="713" y="-20" type="line"/>
			<point x="731" y="-20" type="line"/>
			<point x="1748" y="1403" type="line"/>
			<point x="1756" y="1430" type="line"/>
			<point x="1729" y="1430" type="line"/>
			<point x="745" y="49" type="line"/>
			<point x="777" y="56" type="line"/>
			<point x="652" y="1430" type="line"/>
			<point x="403" y="1430" type="line"/>
			<point x="399" y="1417" type="line"/>
			<point x="562" y="1382" type="line"/>
			<point x="67" y="36" type="line"/>
			<point x="-111" y="12" type="line"/>
			<point x="-115" y="0" type="line"/>
			<point x="267" y="0" type="line"/>
			<point x="271" y="12" type="line"/>
			<point x="100" y="36" type="line"/>
		</contour>
		<contour>
			<point x="1729" y="1430" type="line"/>
			<point x="1405" y="36" type="line"/>
			<point x="1222" y="12" type="line"/>
			<point x="1219" y="0" type="line"/>
			<point x="1642" y="0" type="line"/>
			<point x="1646" y="12" type="line"/>
			<point x="1482" y="36" type="line"/>
			<point x="1794" y="1383" type="line"/>
			<point x="1978" y="1415" type="line"/>
			<point x="1983" y="1430" type="line"/>
		</contour>
	</outline>
	<anchor name="UCtop" x="1165" y="1430"/>
	<anchor name="bottom" x="737" y="0"/>
</glyph>
<glyph name="N" format="2">
	<unicode hex="004E"/>
	<advance width="1473"/>
	<outline>
		<contour>
			<point x="1098" y="85" type="line"/>
			<point x="584" y="1430" type="line"/>
			<point x="349" y="1430" type="line"/>
			<point x="345" y="1418" type="line"/>
			<point x="509" y="1391" type="line"/>
			<point x="96" y="36" type="line"/>
			<point x="-82" y="12" type="line"/>
			<point x="-86" y="0" type="line"/>
			<point x="296" y="0" type="line"/>
			<point x="300" y="12" type="line"/>
			<point x="129" y="36" type="line"/>
			<point x="546" y="1404" type="line"/>
			<point x="525" y="1389" type="line"/>
			<point x="1064" y="-20" type="line"/>
			<point x="1081" y="-20" type="line"/>
			<point x="1512" y="1394" type="line"/>
			<point x="1690" y="1418" type="line"/>
			<point x="1694" y="1430" type="line"/>
			<point x="1312" y="1430" type="line"/>
			<point x="1308" y="1418" type="line"/>
			<point x="1479" y="1394" type="line"/>
			<point x="1062" y="26" type="line"/>
		</contour>
	</outline>
	<anchor name="UCtop" x="1015" y="1430"/>
	<anchor name="bottom" x="627" y="0"/>
</glyph>
<glyph name="O" format="2">
	<unicode hex="004F"/>
	<advance width="1503"/>
	<outline>
		<contour>
			<point x="217" y="490" type="curve" smooth="yes"/>
			<point x="217" y="905"/>
			<point x="527" y="1423"/>
			<point x="994" y="1423" type="curve" smooth="yes"/>
			<point x="1264" y="1423"/>
			<point x="1410" y="1257"/>
			<point x="1410" y="940" type="curve" smooth="yes"/>
			<point x="1410" y="525"/>
			<point x="1100" y="7"/>
			<point x="633" y="7" type="curve" smooth="yes"/>
			<point x="363" y="7"/>
			<point x="217" y="173"/>
		</contour>
		<contour>
			<point x="1488" y="915" type="curve" smooth="yes"/>
			<point x="1488" y="1238"/>
			<point x="1334" y="1450"/>
			<point x="990" y="1450" type="curve" smooth="yes"/>
			<point x="497" y="1450"/>
			<point x="139" y="958"/>
			<point x="139" y="515" type="curve" smooth="yes"/>
			<point x="139" y="192"/>
			<point x="293" y="-20"/>
			<point x="637" y="-20" type="curve" smooth="yes"/>
			<point x="1130" y="-20"/>
			<point x="1488" y="472"/>
		</contour>
	</outline>
	<anchor name="UCtop" x="1032" y="1430"/>
	<anchor name="bottom" x="594" y="0"/>
	<anchor name="right" x="684" y="0"/>
	<anchor name="horn" x="1349" y="1430"/>
</glyph>
<glyph name="P" format="2">
	<unicode hex="0050"/>
	<advance width="1122"/>
	<outline>
		<contour>
			<point x="569" y="693" type="curve" smooth="yes"/>
			<point x="325" y="693" type="line"/>
			<point x="316" y="665" type="line"/>
			<point x="612" y="665" type="line" smooth="yes"/>
			<point x="995" y="665"/>
			<point x="1235" y="847"/>
			<point x="1235" y="1138" type="curve" smooth="yes"/>
			<point x="1235" y="1299"/>
			<point x="1121" y="1430"/>
			<point x="831" y="1430" type="curve" smooth="yes"/>
			<point x="560" y="1430" type="line"/>
			<point x="541" y="1402" type="line"/>
			<point x="785" y="1402" type="line" smooth="yes"/>
			<point x="1041" y="1402"/>
			<point x="1157" y="1307"/>
			<point x="1157" y="1145" type="curve" smooth="yes"/>
			<point x="1157" y="875"/>
			<point x="977" y="693"/>
		</contour>
		<contour>
			<point x="172" y="36" type="line"/>
			<point x="598" y="1430" type="line"/>
			<point x="343" y="1430" type="line"/>
			<point x="339" y="1418" type="line"/>
			<point x="510" y="1394" type="line"/>
			<point x="96" y="36" type="line"/>
			<point x="-83" y="12" type="line"/>
			<point x="-86" y="0" type="line"/>
			<point x="339" y="0" type="line"/>
			<point x="343" y="12" type="line"/>
		</contour>
	</outline>
	<anchor name="UCtop" x="855" y="1430"/>
	<anchor name="bottom" x="123" y="0"/>
</glyph>
<glyph name="Q" format="2">
	<unicode hex="0051"/>
	<advance width="1510"/>
	<outline>
		<contour>
			<point x="929" y="-352" type="line" smooth="yes"/>
			<point x="1033" y="-426"/>
			<point x="1119" y="-465"/>
			<point x="1226" y="-465" type="curve" smooth="yes"/>
			<point x="1279" y="-465"/>
			<point x="1319" y="-458"/>
			<point x="1383" y="-439" type="curve"/>
			<point x="1388" y="-424" type="line"/>
			<point x="1244" y="-442"/>
			<point x="1192" y="-444"/>
			<point x="1008" y="-324" type="curve" smooth="yes"/>
			<point x="492" y="11" type="line"/>
			<point x="489" y="4" type="line"/>
			<point x="1029" y="-135"/>
			<point x="1491" y="373"/>
			<point x="1491" y="915" type="curve" smooth="yes"/>
			<point x="1491" y="1238"/>
			<point x="1313" y="1450"/>
			<point x="969" y="1450" type="curve" smooth="yes"/>
			<point x="476" y="1450"/>
			<point x="142" y="958"/>
			<point x="142" y="515" type="curve" smooth="yes"/>
			<point x="142" y="313"/>
			<point x="210" y="160"/>
			<point x="343" y="65" type="curve" smooth="yes"/>
		</contour>
		<contour>
			<point x="220" y="490" type="curve" smooth="yes"/>
			<point x="220" y="905"/>
			<point x="500" y="1423"/>
			<point x="967" y="1423" type="curve" smooth="yes"/>
			<point x="1237" y="1423"/>
			<point x="1413" y="1257"/>
			<point x="1413" y="940" type="curve" smooth="yes"/>
			<point x="1413" y="525"/>
			<point x="1133" y="7"/>
			<point x="666" y="7" type="curve" smooth="yes"/>
			<point x="396" y="7"/>
			<point x="220" y="173"/>
		</contour>
	</outline>
	<anchor name="bottom" x="481" y="-172"/>
	<anchor name="UCtop" x="1035" y="1430"/>
</glyph>
<glyph name="R" format="2">
	<unicode hex="0052"/>
	<advance width="1222"/>
	<outline>
		<contour>
			<point x="613" y="752" type="curve" smooth="yes"/>
			<point x="349" y="752" type="line"/>
			<point x="337" y="724" type="line"/>
			<point x="630" y="724" type="line" smooth="yes"/>
			<point x="719" y="724"/>
			<point x="743" y="705"/>
			<point x="791" y="547" type="curve" smooth="yes"/>
			<point x="896" y="200" type="line" smooth="yes"/>
			<point x="957" y="-1"/>
			<point x="977" y="-13"/>
			<point x="1153" y="0" type="curve"/>
			<point x="1158" y="14" type="line"/>
			<point x="1037" y="13"/>
			<point x="1016" y="39"/>
			<point x="971" y="189" type="curve" smooth="yes"/>
			<point x="861" y="551" type="line" smooth="yes"/>
			<point x="819" y="688"/>
			<point x="792" y="739"/>
			<point x="639" y="739" type="curve"/>
			<point x="639" y="736" type="line"/>
			<point x="956" y="756"/>
			<point x="1132" y="938"/>
			<point x="1132" y="1149" type="curve" smooth="yes"/>
			<point x="1132" y="1306"/>
			<point x="1037" y="1430"/>
			<point x="751" y="1430" type="curve" smooth="yes"/>
			<point x="544" y="1430" type="line"/>
			<point x="539" y="1402" type="line"/>
			<point x="729" y="1402" type="line" smooth="yes"/>
			<point x="964" y="1402"/>
			<point x="1054" y="1298"/>
			<point x="1054" y="1154" type="curve" smooth="yes"/>
			<point x="1054" y="926"/>
			<point x="891" y="752"/>
		</contour>
		<contour>
			<point x="172" y="36" type="line"/>
			<point x="598" y="1430" type="line"/>
			<point x="343" y="1430" type="line"/>
			<point x="339" y="1418" type="line"/>
			<point x="510" y="1394" type="line"/>
			<point x="96" y="36" type="line"/>
			<point x="-83" y="12" type="line"/>
			<point x="-86" y="0" type="line"/>
			<point x="339" y="0" type="line"/>
			<point x="343" y="12" type="line"/>
		</contour>
	</outline>
	<anchor name="UCtop" x="797" y="1430"/>
	<anchor name="bottom" x="579" y="0"/>
</glyph>
<glyph name="S" format="2">
	<unicode hex="0053"/>
	<advance width="1001"/>
	<outline>
		<contour>
			<point x="987" y="1311" type="curve"/>
			<point x="955" y="1369" type="line"/>
			<point x="995" y="1030" type="line"/>
			<point x="1011" y="1030" type="line"/>
			<point x="1058" y="1480" type="line"/>
			<point x="1053" y="1480" type="line"/>
			<point x="976" y="1381" type="line"/>
			<point x="1028" y="1369" type="line"/>
			<point x="960" y="1413"/>
			<point x="859" y="1450"/>
			<point x="745" y="1450" type="curve" smooth="yes"/>
			<point x="467" y="1450"/>
			<point x="315" y="1285"/>
			<point x="315" y="1074" type="curve" smooth="yes"/>
			<point x="315" y="912"/>
			<point x="421" y="826"/>
			<point x="543" y="747" type="curve" smooth="yes"/>
			<point x="666" y="668"/>
			<point x="808" y="589"/>
			<point x="808" y="392" type="curve" smooth="yes"/>
			<point x="808" y="148"/>
			<point x="611" y="9"/>
			<point x="342" y="9" type="curve" smooth="yes"/>
			<point x="251" y="9"/>
			<point x="138" y="22"/>
			<point x="59" y="79" type="curve"/>
			<point x="125" y="11" type="line"/>
			<point x="59" y="382" type="line"/>
			<point x="41" y="382" type="line"/>
			<point x="38" y="35" type="line"/>
			<point x="126" y="-2"/>
			<point x="227" y="-20"/>
			<point x="347" y="-20" type="curve" smooth="yes"/>
			<point x="665" y="-20"/>
			<point x="869" y="184"/>
			<point x="869" y="442" type="curve" smooth="yes"/>
			<point x="869" y="629"/>
			<point x="740" y="714"/>
			<point x="616" y="793" type="curve" smooth="yes"/>
			<point x="492" y="872"/>
			<point x="372" y="949"/>
			<point x="372" y="1114" type="curve" smooth="yes"/>
			<point x="372" y="1314"/>
			<point x="527" y="1425"/>
			<point x="721" y="1425" type="curve" smooth="yes"/>
			<point x="822" y="1425"/>
			<point x="921" y="1396"/>
		</contour>
	</outline>
	<anchor name="UCtop" x="719" y="1430"/>
	<anchor name="bottom" x="441" y="0"/>
</glyph>
<glyph name="T" format="2">
	<unicode hex="0054"/>
	<advance width="1252"/>
	<outline>
		<contour>
			<point x="1403" y="1402" type="line"/>
			<point x="1356" y="1419" type="line"/>
			<point x="1362" y="1050" type="line"/>
			<point x="1380" y="1050" type="line"/>
			<point x="1458" y="1498" type="line"/>
			<point x="1452" y="1498" type="line"/>
			<point x="1354" y="1422" type="line"/>
			<point x="1387" y="1430" type="line"/>
			<point x="414" y="1430" type="line"/>
			<point x="439" y="1422" type="line"/>
			<point x="386" y="1498" type="line"/>
			<point x="381" y="1498" type="line"/>
			<point x="208" y="1053" type="line"/>
			<point x="224" y="1047" type="line"/>
			<point x="444" y="1419" type="line"/>
			<point x="387" y="1402" type="line"/>
		</contour>
		<contour>
			<point x="866" y="1416" type="line"/>
			<point x="445" y="36" type="line"/>
			<point x="266" y="12" type="line"/>
			<point x="263" y="0" type="line"/>
			<point x="688" y="0" type="line"/>
			<point x="692" y="12" type="line"/>
			<point x="521" y="36" type="line"/>
			<point x="943" y="1416" type="line"/>
		</contour>
	</outline>
	<anchor name="UCtop" x="914" y="1430"/>
	<anchor name="bottom" x="476" y="0"/>
</glyph>
<glyph name="U" format="2">
	<unicode hex="0055"/>
	<advance width="1456"/>
	<outline>
		<contour>
			<point x="332" y="616" type="curve" smooth="yes"/>
			<point x="570" y="1394" type="line"/>
			<point x="748" y="1418" type="line"/>
			<point x="752" y="1430" type="line"/>
			<point x="326" y="1430" type="line"/>
			<point x="322" y="1418" type="line"/>
			<point x="493" y="1394" type="line"/>
			<point x="255" y="614" type="line" smooth="yes"/>
			<point x="120" y="170"/>
			<point x="286" y="-20"/>
			<point x="621" y="-20" type="curve" smooth="yes"/>
			<point x="963" y="-20"/>
			<point x="1133" y="156"/>
			<point x="1253" y="549" type="curve" smooth="yes"/>
			<point x="1511" y="1394" type="line"/>
			<point x="1689" y="1418" type="line"/>
			<point x="1693" y="1430" type="line"/>
			<point x="1311" y="1430" type="line"/>
			<point x="1307" y="1418" type="line"/>
			<point x="1478" y="1394" type="line"/>
			<point x="1234" y="595" type="line" smooth="yes"/>
			<point x="1104" y="168"/>
			<point x="942" y="27"/>
			<point x="644" y="27" type="curve" smooth="yes"/>
			<point x="328" y="27"/>
			<point x="211" y="219"/>
		</contour>
	</outline>
	<anchor name="UCtop" x="1031" y="1430"/>
	<anchor name="right" x="736" y="0"/>
	<anchor name="bottom" x="617" y="0"/>
	<anchor name="horn" x="1544" y="1430"/>
</glyph>
<glyph name="V" format="2">
	<unicode hex="0056"/>
	<advance width="1338"/>
	<outline>
		<contour>
			<point x="417" y="1390" type="line"/>
			<point x="502" y="-21" type="line"/>
			<point x="523" y="-21" type="line"/>
			<point x="1431" y="1390" type="line"/>
			<point x="1608" y="1414" type="line"/>
			<point x="1613" y="1430" type="line"/>
			<point x="1226" y="1430" type="line"/>
			<point x="1221" y="1414" type="line"/>
			<point x="1395" y="1390" type="line"/>
			<point x="555" y="80" type="line"/>
			<point x="569" y="80" type="line"/>
			<point x="495" y="1390" type="line"/>
			<point x="671" y="1414" type="line"/>
			<point x="676" y="1430" type="line"/>
			<point x="249" y="1430" type="line"/>
			<point x="244" y="1414" type="line"/>
		</contour>
	</outline>
	<anchor name="UCtop" x="939" y="1430"/>
	<anchor name="bottom" x="531" y="0"/>
</glyph>
<glyph name="W" format="2">
	<unicode hex="0057"/>
	<advance width="1852"/>
	<outline>
		<contour>
			<point x="1902" y="1391" type="line"/>
			<point x="1195" y="80" type="line"/>
			<point x="1224" y="91" type="line"/>
			<point x="1226" y="1451" type="line"/>
			<point x="1204" y="1451" type="line"/>
			<point x="354" y="50" type="line"/>
			<point x="402" y="91" type="line"/>
			<point x="497" y="1391" type="line"/>
			<point x="679" y="1415" type="line"/>
			<point x="684" y="1430" type="line"/>
			<point x="263" y="1430" type="line"/>
			<point x="258" y="1415" type="line"/>
			<point x="425" y="1391" type="line"/>
			<point x="327" y="-21" type="line"/>
			<point x="348" y="-21" type="line"/>
			<point x="1174" y="1346" type="line"/>
			<point x="1152" y="1339" type="line"/>
			<point x="1152" y="-21" type="line"/>
			<point x="1175" y="-21" type="line"/>
			<point x="1941" y="1391" type="line"/>
			<point x="2125" y="1415" type="line"/>
			<point x="2130" y="1430" type="line"/>
			<point x="1740" y="1430" type="line"/>
			<point x="1735" y="1415" type="line"/>
		</contour>
	</outline>
	<anchor name="UCtop" x="1165" y="1430"/>
	<anchor name="bottom" x="787" y="0"/>
</glyph>
<glyph name="X" format="2">
	<unicode hex="0058"/>
	<advance width="1342"/>
	<outline>
		<contour>
			<point x="737" y="726" type="line"/>
			<point x="755" y="730" type="line"/>
			<point x="1418" y="1390" type="line"/>
			<point x="1593" y="1418" type="line"/>
			<point x="1597" y="1430" type="line"/>
			<point x="1212" y="1430" type="line"/>
			<point x="1208" y="1418" type="line"/>
			<point x="1372" y="1390" type="line"/>
			<point x="749" y="769" type="line"/>
			<point x="731" y="764" type="line"/>
			<point x="14" y="40" type="line"/>
			<point x="-161" y="12" type="line"/>
			<point x="-165" y="0" type="line"/>
			<point x="221" y="0" type="line"/>
			<point x="225" y="12" type="line"/>
			<point x="60" y="40" type="line"/>
		</contour>
		<contour>
			<point x="958" y="36" type="line"/>
			<point x="775" y="12" type="line"/>
			<point x="771" y="0" type="line"/>
			<point x="1196" y="0" type="line"/>
			<point x="1199" y="12" type="line"/>
			<point x="1034" y="36" type="line"/>
			<point x="773" y="768" type="line"/>
			<point x="770" y="776" type="line"/>
			<point x="551" y="1390" type="line"/>
			<point x="735" y="1418" type="line"/>
			<point x="739" y="1430" type="line"/>
			<point x="314" y="1430" type="line"/>
			<point x="311" y="1418" type="line"/>
			<point x="475" y="1390" type="line"/>
			<point x="713" y="724" type="line"/>
			<point x="717" y="714" type="line"/>
		</contour>
	</outline>
	<anchor name="UCtop" x="977" y="1430"/>
	<anchor name="bottom" x="509" y="0"/>
</glyph>
<glyph name="Y" format="2">
	<unicode hex="0059"/>
	<advance width="1322"/>
	<outline>
		<contour>
			<point x="1351" y="1394" type="line"/>
			<point x="719" y="644" type="line"/>
			<point x="735" y="645" type="line"/>
			<point x="504" y="1394" type="line"/>
			<point x="686" y="1418" type="line"/>
			<point x="690" y="1430" type="line"/>
			<point x="257" y="1430" type="line"/>
			<point x="253" y="1418" type="line"/>
			<point x="420" y="1394" type="line"/>
			<point x="664" y="622" type="line"/>
			<point x="486" y="36" type="line"/>
			<point x="307" y="12" type="line"/>
			<point x="304" y="0" type="line"/>
			<point x="729" y="0" type="line"/>
			<point x="733" y="12" type="line"/>
			<point x="562" y="36" type="line"/>
			<point x="741" y="624" type="line"/>
			<point x="1392" y="1394" type="line"/>
			<point x="1577" y="1418" type="line"/>
			<point x="1580" y="1430" type="line"/>
			<point x="1188" y="1430" type="line"/>
			<point x="1185" y="1418" type="line"/>
		</contour>
	</outline>
	<anchor name="UCtop" x="938" y="1430"/>
	<anchor name="bottom" x="530" y="0"/>
</glyph>
<glyph name="Z" format="2">
	<unicode hex="005A"/>
	<advance width="1213"/>
	<outline>
		<contour>
			<point x="1357" y="1430" type="line"/>
			<point x="504" y="1430" type="line"/>
			<point x="448" y="1486" type="line"/>
			<point x="442" y="1486" type="line"/>
			<point x="234" y="1057" type="line"/>
			<point x="249" y="1050" type="line"/>
			<point x="504" y="1402" type="line"/>
			<point x="1289" y="1402" type="line"/>
			<point x="1252" y="1406" type="line"/>
			<point x="-36" y="16" type="line"/>
			<point x="-41" y="0" type="line"/>
			<point x="850" y="0" type="line"/>
			<point x="917" y="-41" type="line"/>
			<point x="925" y="-41" type="line"/>
			<point x="1117" y="354" type="line"/>
			<point x="1103" y="360" type="line"/>
			<point x="853" y="28" type="line"/>
			<point x="51" y="28" type="line"/>
			<point x="59" y="22" type="line"/>
			<point x="1352" y="1414" type="line"/>
		</contour>
	</outline>
	<anchor name="UCtop" x="879" y="1430"/>
	<anchor name="bottom" x="471" y="0"/>
</glyph>
<glyph name="bracketleft" format="2">
	<unicode hex="005B"/>
	<advance width="518"/>
	<outline>
		<contour>
			<point x="-22" y="-208" type="line"/>
			<point x="261" y="-208" type="line"/>
			<point x="267" y="-188" type="line"/>
			<point x="56" y="-168" type="line"/>
			<point x="543" y="1425" type="line"/>
			<point x="766" y="1445" type="line"/>
			<point x="772" y="1465" type="line"/>
			<point x="490" y="1465" type="line"/>
		</contour>
	</outline>
</glyph>
<glyph name="backslash" format="2">
  <advance width="746"/>
  <unicode hex="005C"/>
  <outline>
    <contour>
      <point x="528.0" y="0.0" type="line"/>
      <point x="389.0" y="1430.0" type="line"/>
      <point x="339.0" y="1430.0" type="line"/>
      <point x="478.0" y="0.0" type="line"/>
    </contour>
  </outline>
</glyph>
<glyph name="bracketright" format="2">
	<unicode hex="005D"/>
	<advance width="517"/>
	<outline>
		<contour>
			<point x="608" y="1463" type="line"/>
			<point x="326" y="1463" type="line"/>
			<point x="320" y="1443" type="line"/>
			<point x="531" y="1423" type="line"/>
			<point x="44" y="-168" type="line"/>
			<point x="-179" y="-188" type="line"/>
			<point x="-185" y="-208" type="line"/>
			<point x="98" y="-208" type="line"/>
		</contour>
	</outline>
</glyph>
<glyph name="asciicircum" format="2">
	<unicode hex="005E"/>
	<advance width="1150"/>
	<outline>
		<contour>
			<point x="842" y="1398" type="line"/>
			<point x="960" y="662" type="line"/>
			<point x="1003" y="662" type="line"/>
			<point x="876" y="1430" type="line"/>
			<point x="840" y="1430" type="line"/>
			<point x="245" y="662" type="line"/>
			<point x="298" y="662" type="line"/>
			<point x="862" y="1398" type="line"/>
		</contour>
	</outline>
</glyph>
<glyph name="a" format="2">
	<unicode hex="0061"/>
	<advance width="938"/>
	<outline>
		<contour>
			<point x="524" y="82" type="line" smooth="yes"/>
			<point x="494" y="-6"/>
			<point x="505" y="-20"/>
			<point x="551" y="-20" type="curve" smooth="yes"/>
			<point x="648" y="-20"/>
			<point x="755" y="59"/>
			<point x="903" y="281" type="curve"/>
			<point x="896" y="286" type="line"/>
			<point x="721" y="74"/>
			<point x="608" y="32"/>
			<point x="539" y="51" type="curve"/>
			<point x="568" y="6" type="line"/>
			<point x="911" y="1024" type="line"/>
			<point x="841" y="1024" type="line"/>
			<point x="808" y="926" type="line"/>
			<point x="661" y="484" type="line"/>
			<point x="346" y="68"/>
			<point x="265" y="39"/>
			<point x="174" y="39" type="curve" smooth="yes"/>
			<point x="105" y="39"/>
			<point x="75" y="88"/>
			<point x="75" y="167" type="curve" smooth="yes"/>
			<point x="75" y="424"/>
			<point x="381" y="1014"/>
			<point x="642" y="1014" type="curve" smooth="yes"/>
			<point x="705" y="1014"/>
			<point x="763" y="990"/>
			<point x="808" y="907" type="curve"/>
			<point x="820" y="920" type="line"/>
			<point x="776" y="1006"/>
			<point x="720" y="1044"/>
			<point x="639" y="1044" type="curve" smooth="yes"/>
			<point x="356" y="1044"/>
			<point x="-4" y="480"/>
			<point x="-4" y="137" type="curve" smooth="yes"/>
			<point x="-4" y="45"/>
			<point x="45" y="-20"/>
			<point x="157" y="-20" type="curve" smooth="yes"/>
			<point x="255" y="-20"/>
			<point x="351" y="37"/>
			<point x="660" y="456" type="curve"/>
			<point x="651" y="456" type="line"/>
		</contour>
	</outline>
	<anchor name="top" x="641" y="1024"/>
	<anchor name="right" x="724" y="0"/>
	<anchor name="bottom" x="297" y="0"/>
</glyph>
<glyph name="b" format="2">
  <advance width="883"/>
  <unicode hex="0062"/>
  <anchor x="691.0" y="1430" name="UCtop"/>
  <anchor x="242.0" y="0" name="bottom"/>
  <outline>
    <contour>
      <point x="146" y="285" type="curve" smooth="yes"/>
      <point x="242" y="608" type="line"/>
      <point x="419.0" y="895"/>
      <point x="557.0" y="986.0"/>
      <point x="657" y="986" type="curve" smooth="yes"/>
      <point x="739" y="986"/>
      <point x="774" y="936"/>
      <point x="774" y="801" type="curve" smooth="yes"/>
      <point x="774" y="430"/>
      <point x="480" y="5"/>
      <point x="252" y="5" type="curve" smooth="yes"/>
      <point x="174" y="5"/>
      <point x="125" y="58"/>
      <point x="125" y="157" type="curve" smooth="yes"/>
      <point x="125" y="193"/>
      <point x="131" y="236"/>
    </contour>
    <contour>
      <point x="400" y="1390" type="curve"/>
      <point x="72" y="283" type="line" smooth="yes"/>
      <point x="59" y="238"/>
      <point x="52" y="198"/>
      <point x="52" y="162" type="curve" smooth="yes"/>
      <point x="52" y="47"/>
      <point x="120" y="-20"/>
      <point x="243" y="-20" type="curve" smooth="yes"/>
      <point x="495" y="-20"/>
      <point x="865" y="423"/>
      <point x="865" y="822" type="curve" smooth="yes"/>
      <point x="865.0" y="976.0"/>
      <point x="809.0" y="1044.0"/>
      <point x="687" y="1044" type="curve" smooth="yes"/>
      <point x="559" y="1044"/>
      <point x="431" y="938"/>
      <point x="239" y="632" type="curve"/>
      <point x="247" y="632" type="line"/>
      <point x="501" y="1484" type="line"/>
      <point x="488" y="1484" type="line"/>
      <point x="220" y="1436" type="line"/>
      <point x="215" y="1422" type="line"/>
      <point x="273" y="1412"/>
      <point x="362" y="1397"/>
    </contour>
  </outline>
</glyph>
<glyph name="d" format="2">
	<unicode hex="0064"/>
	<advance width="945"/>
	<outline>
		<contour>
			<point x="808" y="907" type="curve"/>
			<point x="820" y="920" type="line"/>
			<point x="776" y="1006"/>
			<point x="720" y="1044"/>
			<point x="639" y="1044" type="curve" smooth="yes"/>
			<point x="356" y="1044"/>
			<point x="-4" y="480"/>
			<point x="-4" y="137" type="curve" smooth="yes"/>
			<point x="-4" y="45"/>
			<point x="45" y="-20"/>
			<point x="157" y="-20" type="curve" smooth="yes"/>
			<point x="255" y="-20"/>
			<point x="351" y="37"/>
			<point x="660" y="456" type="curve"/>
			<point x="651" y="456" type="line"/>
			<point x="537" y="82" type="line" smooth="yes"/>
			<point x="510" y="-7"/>
			<point x="527" y="-20"/>
			<point x="573" y="-20" type="curve" smooth="yes"/>
			<point x="670" y="-20"/>
			<point x="777" y="59"/>
			<point x="925" y="281" type="curve"/>
			<point x="918" y="286" type="line"/>
			<point x="743" y="74"/>
			<point x="630" y="32"/>
			<point x="561" y="51" type="curve"/>
			<point x="584" y="-1" type="line"/>
			<point x="1039" y="1484" type="line"/>
			<point x="1026" y="1484" type="line"/>
			<point x="762" y="1436" type="line"/>
			<point x="757" y="1422" type="line"/>
			<point x="814" y="1412.0869565217"/>
			<point x="905" y="1396.2608695652"/>
			<point x="941" y="1390" type="curve"/>
			<point x="661" y="484" type="line"/>
			<point x="346" y="68"/>
			<point x="265" y="39"/>
			<point x="174" y="39" type="curve" smooth="yes"/>
			<point x="105" y="39"/>
			<point x="75" y="88"/>
			<point x="75" y="167" type="curve" smooth="yes"/>
			<point x="75" y="424"/>
			<point x="381" y="1014"/>
			<point x="642" y="1014" type="curve" smooth="yes"/>
			<point x="705" y="1014"/>
			<point x="763" y="990"/>
		</contour>
	</outline>
	<anchor name="UCtop" x="787" y="1430"/>
	<anchor name="right" x="1033" y="1464"/>
	<anchor name="bottom" x="311" y="0"/>
	<anchor name="center" x="854" y="1211"/>
</glyph>
<glyph name="f" format="2">
	<unicode hex="0066"/>
	<advance width="521"/>
	<outline>
		<contour>
			<point x="134" y="997" type="line"/>
			<point x="676" y="997" type="line"/>
			<point x="682" y="1024" type="line"/>
			<point x="140" y="1024" type="line"/>
		</contour>
		<contour>
			<point x="258" y="341" type="curve" smooth="yes"/>
			<point x="430" y="1018" type="line" smooth="yes"/>
			<point x="517" y="1360"/>
			<point x="626" y="1461"/>
			<point x="745" y="1461" type="curve" smooth="yes"/>
			<point x="801" y="1461"/>
			<point x="812" y="1434"/>
			<point x="796" y="1378" type="curve" smooth="yes"/>
			<point x="780" y="1322"/>
			<point x="788" y="1305"/>
			<point x="825" y="1305" type="curve" smooth="yes"/>
			<point x="866" y="1305"/>
			<point x="902" y="1337"/>
			<point x="902" y="1391" type="curve" smooth="yes"/>
			<point x="902" y="1445"/>
			<point x="864" y="1484"/>
			<point x="771" y="1484" type="curve" smooth="yes"/>
			<point x="601" y="1484"/>
			<point x="436" y="1348"/>
			<point x="339" y="955" type="curve" smooth="yes"/>
			<point x="161" y="231" type="line" smooth="yes"/>
			<point x="21" y="-337"/>
			<point x="-65" y="-441"/>
			<point x="-174" y="-441" type="curve" smooth="yes"/>
			<point x="-208" y="-441"/>
			<point x="-219" y="-423"/>
			<point x="-202" y="-364" type="curve" smooth="yes"/>
			<point x="-185" y="-305"/>
			<point x="-194" y="-283"/>
			<point x="-232" y="-283" type="curve" smooth="yes"/>
			<point x="-279" y="-283"/>
			<point x="-306" y="-320"/>
			<point x="-306" y="-364" type="curve" smooth="yes"/>
			<point x="-306" y="-419"/>
			<point x="-267" y="-465"/>
			<point x="-185" y="-465" type="curve" smooth="yes"/>
			<point x="-33" y="-465"/>
			<point x="87" y="-330"/>
		</contour>
	</outline>
	<anchor name="UCtop" x="707" y="1430"/>
	<anchor name="bottom" x="-107" y="-445"/>
</glyph>
<glyph name="g" format="2">
	<unicode hex="0067"/>
	<advance width="742"/>
	<outline>
		<contour>
			<point x="841" y="951" type="curve" smooth="yes"/>
			<point x="877" y="951"/>
			<point x="896" y="992"/>
			<point x="896" y="1016" type="curve" smooth="yes"/>
			<point x="896" y="1035"/>
			<point x="888" y="1042"/>
			<point x="870" y="1042" type="curve" smooth="yes"/>
			<point x="834" y="1042"/>
			<point x="742" y="1014"/>
			<point x="562" y="1039" type="curve"/>
			<point x="582" y="1023" type="line"/>
			<point x="808" y="1003"/>
			<point x="788" y="951"/>
		</contour>
		<contour>
			<point x="277" y="381" type="curve" smooth="yes"/>
			<point x="215" y="380"/>
			<point x="191" y="423"/>
			<point x="186" y="528" type="curve" smooth="yes"/>
			<point x="177" y="756"/>
			<point x="351" y="1026"/>
			<point x="527" y="1027" type="curve" smooth="yes"/>
			<point x="588" y="1028"/>
			<point x="613" y="985"/>
			<point x="618" y="879" type="curve" smooth="yes"/>
			<point x="627" y="652"/>
			<point x="453" y="382"/>
		</contour>
		<contour>
			<point x="518" y="1044" type="curve" smooth="yes"/>
			<point x="289" y="1044"/>
			<point x="115" y="779"/>
			<point x="115" y="556" type="curve" smooth="yes"/>
			<point x="115" y="447"/>
			<point x="165" y="364"/>
			<point x="286" y="364" type="curve" smooth="yes"/>
			<point x="515" y="364"/>
			<point x="689" y="630"/>
			<point x="689" y="851" type="curve" smooth="yes"/>
			<point x="689" y="962"/>
			<point x="639" y="1044"/>
		</contour>
		<contour>
			<point x="223" y="-465" type="curve" smooth="yes"/>
			<point x="509" y="-465"/>
			<point x="664" y="-331"/>
			<point x="664" y="-184" type="curve" smooth="yes"/>
			<point x="664" y="-87"/>
			<point x="607" y="-14"/>
			<point x="376" y="69" type="curve" smooth="yes"/>
			<point x="144" y="152"/>
			<point x="119" y="186"/>
			<point x="119" y="243" type="curve" smooth="yes"/>
			<point x="119" y="302"/>
			<point x="167" y="342"/>
			<point x="255" y="370" type="curve"/>
			<point x="239" y="380" type="line"/>
			<point x="134" y="350"/>
			<point x="60" y="292"/>
			<point x="60" y="215" type="curve" smooth="yes"/>
			<point x="60" y="138"/>
			<point x="101" y="84"/>
			<point x="321" y="12" type="curve" smooth="yes"/>
			<point x="541" y="-60"/>
			<point x="607" y="-124"/>
			<point x="607" y="-210" type="curve" smooth="yes"/>
			<point x="607" y="-348"/>
			<point x="463" y="-434"/>
			<point x="249" y="-434" type="curve" smooth="yes"/>
			<point x="65" y="-434"/>
			<point x="-85" y="-383"/>
			<point x="-85" y="-233" type="curve" smooth="yes"/>
			<point x="-85" y="-45"/>
			<point x="162" y="11"/>
			<point x="357" y="27" type="curve"/>
			<point x="357" y="44" type="line"/>
			<point x="311" y="44" type="line"/>
			<point x="32" y="3"/>
			<point x="-158" y="-82"/>
			<point x="-158" y="-243" type="curve" smooth="yes"/>
			<point x="-158" y="-397"/>
			<point x="16" y="-465"/>
		</contour>
	</outline>
	<anchor name="top" x="526" y="1024"/>
	<anchor name="bottom" x="250" y="-445"/>
</glyph>
<glyph name="h" format="2">
	<unicode hex="0068"/>
	<advance width="955"/>
	<outline>
		<contour>
			<point x="227" y="520" type="line"/>
			<point x="320" y="713"/>
			<point x="484" y="983"/>
			<point x="705" y="983" type="curve" smooth="yes"/>
			<point x="764" y="983"/>
			<point x="818" y="960"/>
			<point x="818" y="892" type="curve" smooth="yes"/>
			<point x="818" y="861"/>
			<point x="806" y="814"/>
			<point x="757" y="696" type="curve" smooth="yes"/>
			<point x="500" y="73" type="line" smooth="yes"/>
			<point x="476" y="15"/>
			<point x="476" y="-20"/>
			<point x="532" y="-20" type="curve" smooth="yes"/>
			<point x="625" y="-20"/>
			<point x="720" y="39"/>
			<point x="899" y="290" type="curve"/>
			<point x="892" y="295" type="line"/>
			<point x="715" y="81"/>
			<point x="577" y="26"/>
			<point x="519" y="49" type="curve"/>
			<point x="545" y="6" type="line"/>
			<point x="837" y="715" type="line" smooth="yes"/>
			<point x="886" y="834"/>
			<point x="896" y="874"/>
			<point x="896" y="917" type="curve" smooth="yes"/>
			<point x="896" y="991"/>
			<point x="835" y="1044"/>
			<point x="727" y="1044" type="curve" smooth="yes"/>
			<point x="502" y="1044"/>
			<point x="334" y="802"/>
			<point x="216" y="516" type="curve"/>
			<point x="236" y="553" type="line"/>
			<point x="537" y="1484" type="line"/>
			<point x="524" y="1484" type="line"/>
			<point x="256" y="1436" type="line"/>
			<point x="251" y="1422" type="line"/>
			<point x="308" y="1412.1405405405"/>
			<point x="400" y="1396.227027027"/>
			<point x="436" y="1390" type="curve"/>
			<point x="-16" y="0" type="line"/>
			<point x="54" y="0" type="line"/>
		</contour>
	</outline>
	<anchor name="UCtop" x="752" y="1430"/>
	<anchor name="bottom" x="312" y="0"/>
	<anchor name="center" x="451" y="1211"/>
</glyph>
<glyph name="j" format="2">
  <advance width="461"/>
  <unicode hex="006A"/>
  <anchor x="533.0" y="1430" name="top"/>
  <anchor x="-137.0" y="-445" name="bottom"/>
  <outline>
    <contour>
      <point x="458.0" y="1409.0" type="curve" smooth="yes"/>
      <point x="458.0" y="1372.0"/>
      <point x="484.0" y="1338.0"/>
      <point x="529.0" y="1338.0" type="curve" smooth="yes"/>
      <point x="574.0" y="1338.0"/>
      <point x="600.0" y="1372.0"/>
      <point x="600.0" y="1409.0" type="curve" smooth="yes"/>
      <point x="600.0" y="1446.0"/>
      <point x="574.0" y="1480.0"/>
      <point x="529.0" y="1480.0" type="curve" smooth="yes"/>
      <point x="484.0" y="1480.0"/>
      <point x="458.0" y="1446.0"/>
    </contour>
    <contour>
      <point x="174" y="78" type="curve" smooth="yes"/>
      <point x="460" y="983" type="line" smooth="yes"/>
      <point x="474" y="1027"/>
      <point x="459" y="1044"/>
      <point x="419" y="1044" type="curve" smooth="yes"/>
      <point x="322" y="1044"/>
      <point x="206" y="965"/>
      <point x="57" y="732" type="curve"/>
      <point x="64" y="726" type="line"/>
      <point x="249" y="953"/>
      <point x="372" y="1001"/>
      <point x="430" y="978" type="curve"/>
      <point x="402" y="1027" type="line"/>
      <point x="81" y="-9" type="line" smooth="yes"/>
      <point x="-17" y="-326"/>
      <point x="-110" y="-437"/>
      <point x="-230" y="-437" type="curve" smooth="yes"/>
      <point x="-262" y="-437.0"/>
      <point x="-268" y="-420"/>
      <point x="-252" y="-368" type="curve" smooth="yes"/>
      <point x="-236.0" y="-316.0"/>
      <point x="-248.0" y="-298.0"/>
      <point x="-285" y="-298" type="curve" smooth="yes"/>
      <point x="-330" y="-298"/>
      <point x="-356" y="-325"/>
      <point x="-356" y="-367" type="curve" smooth="yes"/>
      <point x="-356" y="-422"/>
      <point x="-320" y="-465"/>
      <point x="-244" y="-465" type="curve" smooth="yes"/>
      <point x="-97" y="-465"/>
      <point x="42" y="-340"/>
    </contour>
  </outline>
</glyph>
<glyph name="k" format="2">
  <advance width="867"/>
  <unicode hex="006B"/>
  <anchor x="729.0" y="1430" name="UCtop"/>
  <anchor x="301.0" y="0" name="bottom"/>
  <outline>
    <contour>
      <point x="537.0" y="1484.0" type="line"/>
      <point x="524.0" y="1484.0" type="line"/>
      <point x="256.0" y="1436.0" type="line"/>
      <point x="251.0" y="1422.0" type="line"/>
      <point x="308.0" y="1412.1405405405405"/>
      <point x="400.0" y="1396.227027027027"/>
      <point x="436.0" y="1390.0" type="curve"/>
      <point x="-16.0" y="0.0" type="line"/>
      <point x="54.0" y="0.0" type="line"/>
    </contour>
    <contour>
      <point x="252" y="612" type="line"/>
      <point x="411" y="77"/>
      <point x="469" y="-20"/>
      <point x="541" y="-20" type="curve" smooth="yes"/>
      <point x="598" y="-20"/>
      <point x="670" y="35"/>
      <point x="813" y="277" type="curve"/>
      <point x="806" y="282" type="line"/>
      <point x="689" y="111"/>
      <point x="613" y="46"/>
      <point x="568" y="46" type="curve" smooth="yes"/>
      <point x="523" y="46"/>
      <point x="443" y="201"/>
      <point x="305" y="673" type="curve"/>
      <point x="278" y="620" type="line"/>
      <point x="490" y="866"/>
      <point x="693" y="983"/>
      <point x="792" y="983" type="curve" smooth="yes"/>
      <point x="814" y="983.0"/>
      <point x="821" y="972"/>
      <point x="819" y="928" type="curve" smooth="yes"/>
      <point x="817" y="884"/>
      <point x="830.0" y="865.0"/>
      <point x="868" y="865" type="curve" smooth="yes"/>
      <point x="913" y="865"/>
      <point x="952" y="910"/>
      <point x="952" y="965" type="curve" smooth="yes"/>
      <point x="952" y="1011"/>
      <point x="925" y="1044"/>
      <point x="854" y="1044" type="curve" smooth="yes"/>
      <point x="733" y="1044"/>
      <point x="505" y="921"/>
      <point x="255" y="621" type="curve"/>
    </contour>
  </outline>
</glyph>
<glyph name="l" format="2">
	<unicode hex="006C"/>
	<advance width="464"/>
	<outline>
		<contour>
			<point x="435" y="1390" type="curve"/>
			<point x="26" y="60" type="line" smooth="yes"/>
			<point x="8" y="1"/>
			<point x="25" y="-20"/>
			<point x="63" y="-20" type="curve" smooth="yes"/>
			<point x="155" y="-20"/>
			<point x="269" y="46"/>
			<point x="439" y="269" type="curve"/>
			<point x="431" y="276" type="line"/>
			<point x="256" y="90"/>
			<point x="107" y="26"/>
			<point x="49" y="49" type="curve"/>
			<point x="79" y="10" type="line"/>
			<point x="533" y="1484" type="line"/>
			<point x="520" y="1484" type="line"/>
			<point x="255" y="1436" type="line"/>
			<point x="250" y="1422" type="line"/>
			<point x="307" y="1412.1405405405"/>
			<point x="399" y="1396.227027027"/>
		</contour>
	</outline>
	<anchor name="UCtop" x="437" y="1430"/>
	<anchor name="right" x="527" y="1464"/>
	<anchor name="bottom" x="99" y="0"/>
	<anchor name="mid" x="477" y="582"/>
</glyph>
<glyph name="m" format="2">
	<unicode hex="006D"/>
	<advance width="1475"/>
	<outline>
		<contour>
			<point x="1064" y="6" type="line"/>
			<point x="1364" y="735" type="line" smooth="yes"/>
			<point x="1410" y="846"/>
			<point x="1420" y="884"/>
			<point x="1420" y="925" type="curve" smooth="yes"/>
			<point x="1420" y="994"/>
			<point x="1362" y="1044"/>
			<point x="1261" y="1044" type="curve" smooth="yes"/>
			<point x="1061" y="1044"/>
			<point x="909" y="822"/>
			<point x="795" y="547" type="curve"/>
			<point x="816" y="582" type="line"/>
			<point x="879" y="759" type="line" smooth="yes"/>
			<point x="902" y="824"/>
			<point x="914" y="877"/>
			<point x="914" y="918" type="curve" smooth="yes"/>
			<point x="914" y="1007"/>
			<point x="862" y="1044"/>
			<point x="765" y="1044" type="curve" smooth="yes"/>
			<point x="580" y="1044"/>
			<point x="445" y="859"/>
			<point x="318" y="547" type="curve"/>
			<point x="338" y="584" type="line"/>
			<point x="475" y="1015" type="line"/>
			<point x="452" y="1029"/>
			<point x="432" y="1037"/>
			<point x="396" y="1037" type="curve" smooth="yes"/>
			<point x="301" y="1037"/>
			<point x="193" y="969"/>
			<point x="52" y="639" type="curve"/>
			<point x="61" y="635" type="line"/>
			<point x="215" y="929"/>
			<point x="312" y="967"/>
			<point x="353" y="967" type="curve" smooth="yes"/>
			<point x="380" y="967"/>
			<point x="393" y="953"/>
			<point x="379" y="910" type="curve" smooth="yes"/>
			<point x="76" y="0" type="line"/>
			<point x="146" y="0" type="line"/>
			<point x="329" y="551" type="line"/>
			<point x="422" y="744"/>
			<point x="546" y="983"/>
			<point x="746" y="983" type="curve" smooth="yes"/>
			<point x="809" y="983"/>
			<point x="841" y="960"/>
			<point x="841" y="898" type="curve" smooth="yes"/>
			<point x="841" y="860"/>
			<point x="829" y="808"/>
			<point x="804" y="738" type="curve" smooth="yes"/>
			<point x="542" y="0" type="line"/>
			<point x="612" y="0" type="line"/>
			<point x="807" y="551" type="line"/>
			<point x="905" y="752"/>
			<point x="1044" y="987"/>
			<point x="1235" y="987" type="curve" smooth="yes"/>
			<point x="1290" y="987"/>
			<point x="1341" y="965"/>
			<point x="1341" y="901" type="curve" smooth="yes"/>
			<point x="1341" y="872"/>
			<point x="1330" y="828"/>
			<point x="1284" y="717" type="curve" smooth="yes"/>
			<point x="1019" y="73" type="line" smooth="yes"/>
			<point x="995" y="15"/>
			<point x="995" y="-20"/>
			<point x="1051" y="-20" type="curve" smooth="yes"/>
			<point x="1144" y="-20"/>
			<point x="1239" y="39"/>
			<point x="1418" y="290" type="curve"/>
			<point x="1411" y="295" type="line"/>
			<point x="1234" y="81"/>
			<point x="1096" y="26"/>
			<point x="1038" y="49" type="curve"/>
		</contour>
	</outline>
	<anchor name="top" x="913" y="1024"/>
	<anchor name="bottom" x="569" y="0"/>
</glyph>
<glyph name="n" format="2">
	<unicode hex="006E"/>
	<advance width="1047"/>
	<outline>
		<contour>
			<point x="61" y="635" type="line"/>
			<point x="215" y="929"/>
			<point x="312" y="967"/>
			<point x="353" y="967" type="curve" smooth="yes"/>
			<point x="380" y="967"/>
			<point x="393" y="953"/>
			<point x="379" y="910" type="curve" smooth="yes"/>
			<point x="76" y="0" type="line"/>
			<point x="146" y="0" type="line"/>
			<point x="319" y="520" type="line"/>
			<point x="412" y="713"/>
			<point x="576" y="983"/>
			<point x="797" y="983" type="curve" smooth="yes"/>
			<point x="856" y="983"/>
			<point x="910" y="960"/>
			<point x="910" y="892" type="curve" smooth="yes"/>
			<point x="910" y="861"/>
			<point x="898" y="814"/>
			<point x="849" y="696" type="curve" smooth="yes"/>
			<point x="592" y="73" type="line" smooth="yes"/>
			<point x="568" y="15"/>
			<point x="568" y="-20"/>
			<point x="624" y="-20" type="curve" smooth="yes"/>
			<point x="717" y="-20"/>
			<point x="812" y="39"/>
			<point x="991" y="290" type="curve"/>
			<point x="984" y="295" type="line"/>
			<point x="807" y="81"/>
			<point x="669" y="26"/>
			<point x="611" y="49" type="curve"/>
			<point x="637" y="6" type="line"/>
			<point x="929" y="715" type="line" smooth="yes"/>
			<point x="978" y="834"/>
			<point x="988" y="874"/>
			<point x="988" y="917" type="curve" smooth="yes"/>
			<point x="988" y="991"/>
			<point x="927" y="1044"/>
			<point x="819" y="1044" type="curve" smooth="yes"/>
			<point x="594" y="1044"/>
			<point x="426" y="802"/>
			<point x="308" y="516" type="curve"/>
			<point x="328" y="553" type="line"/>
			<point x="475" y="1015" type="line"/>
			<point x="452" y="1029"/>
			<point x="432" y="1037"/>
			<point x="396" y="1037" type="curve" smooth="yes"/>
			<point x="301" y="1037"/>
			<point x="193" y="969"/>
			<point x="52" y="639" type="curve"/>
		</contour>
	</outline>
	<anchor name="top" x="718" y="1024"/>
	<anchor name="bottom" x="394" y="0"/>
</glyph>
<glyph name="o" format="2">
  <advance width="880"/>
  <unicode hex="006F"/>
  <guideline x="440.0" y="512" angle="3.5783180791811278" identifier="n7k6jusuzH"/>
  <anchor x="576.0" y="1024" name="top"/>
  <anchor x="282.0" y="0" name="bottom"/>
  <anchor x="726.0" y="1024" name="horn"/>
  <anchor x="322.0" y="0" name="right"/>
  <outline>
    <contour>
      <point x="611.0" y="1044.0" type="curve" smooth="yes"/>
      <point x="316.0" y="1044.0"/>
      <point x="50.0" y="668.0"/>
      <point x="50.0" y="271.0" type="curve" smooth="yes"/>
      <point x="50.0" y="78.0"/>
      <point x="125.0" y="-20.0"/>
      <point x="268.0" y="-20.0" type="curve" smooth="yes"/>
      <point x="563.0" y="-20.0"/>
      <point x="829.0" y="356.0"/>
      <point x="829.0" y="753.0" type="curve" smooth="yes"/>
      <point x="829.0" y="946.0"/>
      <point x="754.0" y="1044.0"/>
    </contour>
    <contour>
      <point x="268.0" y="2.0" type="curve" smooth="yes"/>
      <point x="171.0" y="2.0"/>
      <point x="125.0" y="74.0"/>
      <point x="125.0" y="242.0" type="curve" smooth="yes"/>
      <point x="125.0" y="609.0"/>
      <point x="366.0" y="1022.0"/>
      <point x="611.0" y="1022.0" type="curve" smooth="yes"/>
      <point x="708.0" y="1022.0"/>
      <point x="754.0" y="950.0"/>
      <point x="754.0" y="782.0" type="curve" smooth="yes"/>
      <point x="754.0" y="415.0"/>
      <point x="513.0" y="2.0"/>
    </contour>
  </outline>
</glyph>
<glyph name="p" format="2">
	<unicode hex="0070"/>
	<advance width="975"/>
	<outline>
		<contour>
			<point x="240" y="246" type="curve" smooth="yes"/>
			<point x="334" y="549" type="line"/>
			<point x="455" y="790"/>
			<point x="622" y="984"/>
			<point x="761" y="984" type="curve" smooth="yes"/>
			<point x="837" y="984"/>
			<point x="878" y="939"/>
			<point x="878" y="817" type="curve" smooth="yes"/>
			<point x="878" y="462"/>
			<point x="586" y="5"/>
			<point x="366" y="5" type="curve" smooth="yes"/>
			<point x="264" y="5"/>
			<point x="227" y="68"/>
			<point x="227" y="164" type="curve" smooth="yes"/>
			<point x="227" y="189"/>
			<point x="231" y="217"/>
		</contour>
		<contour>
			<point x="166" y="132" type="line"/>
			<point x="177" y="47"/>
			<point x="243" y="-20"/>
			<point x="356" y="-20" type="curve" smooth="yes"/>
			<point x="637" y="-20"/>
			<point x="960" y="480"/>
			<point x="960" y="841" type="curve" smooth="yes"/>
			<point x="960" y="989"/>
			<point x="897" y="1043"/>
			<point x="800" y="1043" type="curve" smooth="yes"/>
			<point x="661" y="1043"/>
			<point x="492" y="883"/>
			<point x="327" y="578" type="curve"/>
			<point x="341" y="578" type="line"/>
			<point x="479" y="1015" type="line"/>
			<point x="456" y="1029"/>
			<point x="432" y="1037"/>
			<point x="396" y="1037" type="curve" smooth="yes"/>
			<point x="301" y="1037"/>
			<point x="193" y="969"/>
			<point x="52" y="639" type="curve"/>
			<point x="61" y="635" type="line"/>
			<point x="215" y="929"/>
			<point x="312" y="967"/>
			<point x="353" y="967" type="curve" smooth="yes"/>
			<point x="380" y="967"/>
			<point x="393" y="954"/>
			<point x="379" y="910" type="curve" smooth="yes"/>
			<point x="-35" y="-417" type="line"/>
			<point x="-173" y="-435" type="line"/>
			<point x="-178" y="-445" type="line"/>
			<point x="186" y="-445" type="line"/>
			<point x="190" y="-435" type="line"/>
			<point x="34" y="-417" type="line"/>
			<point x="201" y="119" type="line"/>
		</contour>
	</outline>
	<anchor name="top" x="648" y="1024"/>
	<anchor name="bottom" x="-9" y="-445"/>
</glyph>
<glyph name="q" format="2">
	<unicode hex="0071"/>
	<advance width="878"/>
	<outline>
		<contour>
			<point x="356" y="-417" type="line"/>
			<point x="185" y="-435" type="line"/>
			<point x="181" y="-445" type="line"/>
			<point x="564" y="-445" type="line"/>
			<point x="567" y="-435" type="line"/>
			<point x="425" y="-417" type="line"/>
			<point x="911" y="1024" type="line"/>
			<point x="841" y="1024" type="line"/>
			<point x="808" y="926" type="line"/>
			<point x="661" y="484" type="line"/>
			<point x="346" y="68"/>
			<point x="265" y="39"/>
			<point x="174" y="39" type="curve" smooth="yes"/>
			<point x="105" y="39"/>
			<point x="75" y="88"/>
			<point x="75" y="167" type="curve" smooth="yes"/>
			<point x="75" y="424"/>
			<point x="381" y="1014"/>
			<point x="642" y="1014" type="curve" smooth="yes"/>
			<point x="705" y="1014"/>
			<point x="763" y="990"/>
			<point x="808" y="907" type="curve"/>
			<point x="820" y="920" type="line"/>
			<point x="776" y="1006"/>
			<point x="720" y="1044"/>
			<point x="639" y="1044" type="curve" smooth="yes"/>
			<point x="356" y="1044"/>
			<point x="-4" y="480"/>
			<point x="-4" y="137" type="curve" smooth="yes"/>
			<point x="-4" y="45"/>
			<point x="45" y="-20"/>
			<point x="157" y="-20" type="curve" smooth="yes"/>
			<point x="255" y="-20"/>
			<point x="351" y="37"/>
			<point x="660" y="456" type="curve"/>
			<point x="651" y="456" type="line"/>
		</contour>
	</outline>
	<anchor name="top" x="651" y="1024"/>
	<anchor name="bottom" x="382" y="-445"/>
</glyph>
<glyph name="r" format="2">
  <advance width="705"/>
  <unicode hex="0072"/>
  <anchor x="534.0" y="1024" name="top"/>
  <anchor x="111.0" y="0" name="bottom"/>
  <outline>
    <contour>
      <point x="379" y="910" type="curve" smooth="yes"/>
      <point x="76" y="0" type="line"/>
      <point x="146" y="0" type="line"/>
      <point x="282" y="410" type="line" smooth="yes"/>
      <point x="402" y="775"/>
      <point x="604" y="985"/>
      <point x="712" y="985" type="curve" smooth="yes"/>
      <point x="727" y="985.0"/>
      <point x="733" y="976"/>
      <point x="727" y="940" type="curve" smooth="yes"/>
      <point x="721" y="904"/>
      <point x="730.0" y="885.0"/>
      <point x="765" y="885" type="curve" smooth="yes"/>
      <point x="806" y="885"/>
      <point x="842" y="924"/>
      <point x="842" y="978" type="curve" smooth="yes"/>
      <point x="842" y="1016"/>
      <point x="817" y="1044"/>
      <point x="763" y="1044" type="curve" smooth="yes"/>
      <point x="609" y="1044"/>
      <point x="450" y="852"/>
      <point x="277" y="457" type="curve"/>
      <point x="295" y="457" type="line"/>
      <point x="475" y="1015" type="line"/>
      <point x="452" y="1029"/>
      <point x="432" y="1037"/>
      <point x="396" y="1037" type="curve" smooth="yes"/>
      <point x="301" y="1037"/>
      <point x="193" y="969"/>
      <point x="52" y="639" type="curve"/>
      <point x="61" y="635" type="line"/>
      <point x="215" y="929"/>
      <point x="312" y="967"/>
      <point x="353" y="967" type="curve" smooth="yes"/>
      <point x="380" y="967"/>
      <point x="393" y="953"/>
    </contour>
  </outline>
</glyph>
<glyph name="t" format="2">
	<unicode hex="0074"/>
	<advance width="581"/>
	<outline>
		<contour>
			<point x="147" y="997" type="line"/>
			<point x="646" y="997" type="line"/>
			<point x="652" y="1024" type="line"/>
			<point x="159" y="1024" type="line"/>
		</contour>
		<contour>
			<point x="200" y="259" type="curve" smooth="yes"/>
			<point x="524" y="1270" type="line"/>
			<point x="452" y="1270" type="line"/>
			<point x="115" y="219" type="line" smooth="yes"/>
			<point x="99" y="169"/>
			<point x="92" y="128"/>
			<point x="92" y="95" type="curve" smooth="yes"/>
			<point x="92" y="14"/>
			<point x="136" y="-20"/>
			<point x="204" y="-20" type="curve" smooth="yes"/>
			<point x="302" y="-20"/>
			<point x="386" y="48"/>
			<point x="524" y="295" type="curve"/>
			<point x="515" y="300" type="line"/>
			<point x="367" y="66"/>
			<point x="286" y="30"/>
			<point x="230" y="30" type="curve" smooth="yes"/>
			<point x="189" y="30"/>
			<point x="166" y="49"/>
			<point x="166" y="101" type="curve" smooth="yes"/>
			<point x="166" y="137"/>
			<point x="177" y="188"/>
		</contour>
	</outline>
	<anchor name="right" x="525" y="1505"/>
	<anchor name="bottom" x="217" y="0"/>
</glyph>
<glyph name="u" format="2">
	<unicode hex="0075"/>
	<advance width="1021"/>
	<outline>
		<contour>
			<point x="599" y="81" type="line" smooth="yes"/>
			<point x="570" y="-7"/>
			<point x="576" y="-20"/>
			<point x="622" y="-20" type="curve" smooth="yes"/>
			<point x="719" y="-20"/>
			<point x="826" y="59"/>
			<point x="974" y="281" type="curve"/>
			<point x="967" y="286" type="line"/>
			<point x="792" y="74"/>
			<point x="679" y="32"/>
			<point x="610" y="51" type="curve"/>
			<point x="639" y="6" type="line"/>
			<point x="978" y="1024" type="line"/>
			<point x="908" y="1024" type="line"/>
			<point x="735" y="504" type="line"/>
			<point x="642" y="311"/>
			<point x="490" y="41"/>
			<point x="269" y="41" type="curve" smooth="yes"/>
			<point x="210" y="41"/>
			<point x="168" y="64"/>
			<point x="168" y="132" type="curve" smooth="yes"/>
			<point x="168" y="163"/>
			<point x="182" y="209"/>
			<point x="229" y="328" type="curve" smooth="yes"/>
			<point x="479" y="962" type="line" smooth="yes"/>
			<point x="501" y="1018"/>
			<point x="498" y="1044"/>
			<point x="446" y="1044" type="curve" smooth="yes"/>
			<point x="359" y="1044"/>
			<point x="240" y="995"/>
			<point x="70" y="749" type="curve"/>
			<point x="77" y="743" type="line"/>
			<point x="237" y="942"/>
			<point x="397" y="998"/>
			<point x="455" y="975" type="curve"/>
			<point x="429" y="1018" type="line"/>
			<point x="149" y="309" type="line" smooth="yes"/>
			<point x="102" y="189"/>
			<point x="90" y="150"/>
			<point x="90" y="107" type="curve" smooth="yes"/>
			<point x="90" y="33"/>
			<point x="139" y="-20"/>
			<point x="247" y="-20" type="curve" smooth="yes"/>
			<point x="472" y="-20"/>
			<point x="628" y="222"/>
			<point x="746" y="508" type="curve"/>
			<point x="726" y="471" type="line"/>
		</contour>
	</outline>
	<anchor name="top" x="661" y="1024"/>
	<anchor name="right" x="851" y="0"/>
	<anchor name="bottom" x="347" y="0"/>
	<anchor name="horn" x="925" y="1024"/>
</glyph>
<glyph name="v" format="2">
	<unicode hex="0076"/>
	<advance width="917"/>
	<outline>
		<contour>
			<point x="882" y="892" type="curve" smooth="yes"/>
			<point x="882" y="1001"/>
			<point x="855" y="1039"/>
			<point x="813" y="1039" type="curve" smooth="yes"/>
			<point x="781" y="1039"/>
			<point x="756" y="1020"/>
			<point x="756" y="982" type="curve" smooth="yes"/>
			<point x="756" y="909"/>
			<point x="832" y="936"/>
			<point x="832" y="782" type="curve" smooth="yes"/>
			<point x="832" y="544"/>
			<point x="537" y="30"/>
			<point x="280" y="30" type="curve" smooth="yes"/>
			<point x="229" y="30"/>
			<point x="203" y="49"/>
			<point x="203" y="101" type="curve" smooth="yes"/>
			<point x="203" y="134"/>
			<point x="213" y="180"/>
			<point x="233" y="242" type="curve" smooth="yes"/>
			<point x="480" y="1015" type="line"/>
			<point x="457" y="1029"/>
			<point x="430" y="1037"/>
			<point x="394" y="1037" type="curve" smooth="yes"/>
			<point x="299" y="1037"/>
			<point x="191" y="969"/>
			<point x="50" y="639" type="curve"/>
			<point x="59" y="635" type="line"/>
			<point x="213" y="929"/>
			<point x="310" y="967"/>
			<point x="351" y="967" type="curve" smooth="yes"/>
			<point x="378" y="967"/>
			<point x="391" y="953"/>
			<point x="377" y="910" type="curve" smooth="yes"/>
			<point x="166" y="242" type="line" smooth="yes"/>
			<point x="146" y="178"/>
			<point x="136" y="128"/>
			<point x="136" y="90" type="curve" smooth="yes"/>
			<point x="136" y="10"/>
			<point x="179" y="-20"/>
			<point x="255" y="-20" type="curve" smooth="yes"/>
			<point x="504" y="-20"/>
			<point x="882" y="478"/>
		</contour>
	</outline>
	<anchor name="top" x="594" y="1024"/>
	<anchor name="bottom" x="300" y="0"/>
</glyph>
<glyph name="x" format="2">
	<unicode hex="0078"/>
	<advance width="922"/>
	<outline>
		<contour>
			<point x="479" y="530" type="line"/>
			<point x="605" y="716" type="line" smooth="yes"/>
			<point x="749" y="929"/>
			<point x="802" y="980"/>
			<point x="862" y="980" type="curve" smooth="yes"/>
			<point x="890" y="980"/>
			<point x="899" y="967"/>
			<point x="891" y="931" type="curve" smooth="yes"/>
			<point x="883" y="895"/>
			<point x="893" y="880"/>
			<point x="926" y="880" type="curve" smooth="yes"/>
			<point x="966" y="880"/>
			<point x="1001" y="916"/>
			<point x="1001" y="963" type="curve" smooth="yes"/>
			<point x="1001" y="1016"/>
			<point x="969" y="1044"/>
			<point x="910" y="1044" type="curve" smooth="yes"/>
			<point x="824" y="1044"/>
			<point x="752" y="982"/>
			<point x="627" y="792" type="curve" smooth="yes"/>
			<point x="473" y="557" type="line"/>
			<point x="437" y="523" type="line"/>
			<point x="306" y="322" type="line" smooth="yes"/>
			<point x="152" y="86"/>
			<point x="114" y="44"/>
			<point x="56" y="44" type="curve" smooth="yes"/>
			<point x="28" y="44"/>
			<point x="20" y="56"/>
			<point x="27" y="93" type="curve" smooth="yes"/>
			<point x="34" y="130"/>
			<point x="26" y="144"/>
			<point x="-8" y="144" type="curve" smooth="yes"/>
			<point x="-50" y="144"/>
			<point x="-83" y="107"/>
			<point x="-83" y="61" type="curve" smooth="yes"/>
			<point x="-83" y="5"/>
			<point x="-51" y="-20"/>
			<point x="8" y="-20" type="curve" smooth="yes"/>
			<point x="86" y="-20"/>
			<point x="153" y="38"/>
			<point x="263" y="211" type="curve" smooth="yes"/>
			<point x="445" y="498" type="line"/>
		</contour>
		<contour>
			<point x="853" y="340" type="curve"/>
			<point x="844" y="340" type="line"/>
			<point x="756" y="136"/>
			<point x="682" y="50"/>
			<point x="621" y="50" type="curve" smooth="yes"/>
			<point x="590" y="50"/>
			<point x="571" y="68"/>
			<point x="560" y="137" type="curve" smooth="yes"/>
			<point x="440" y="878" type="line" smooth="yes"/>
			<point x="417" y="1022"/>
			<point x="395" y="1044"/>
			<point x="353" y="1044" type="curve" smooth="yes"/>
			<point x="264" y="1044"/>
			<point x="190" y="946"/>
			<point x="119" y="684" type="curve"/>
			<point x="128" y="684" type="line"/>
			<point x="204" y="896"/>
			<point x="265" y="969"/>
			<point x="325" y="969" type="curve" smooth="yes"/>
			<point x="348" y="969"/>
			<point x="361" y="952"/>
			<point x="372" y="887" type="curve" smooth="yes"/>
			<point x="496" y="122" type="line" smooth="yes"/>
			<point x="512" y="21"/>
			<point x="546" y="-20"/>
			<point x="602" y="-20" type="curve" smooth="yes"/>
			<point x="684" y="-20"/>
			<point x="767" y="75"/>
		</contour>
	</outline>
	<anchor name="top" x="596" y="1024"/>
	<anchor name="bottom" x="342" y="0"/>
</glyph>
<glyph name="y" format="2">
  <advance width="930"/>
  <unicode hex="0079"/>
  <anchor x="554.0" y="1024" name="top"/>
  <anchor x="576.0" y="-172" name="bottom"/>
  <outline>
    <contour>
      <point x="78.0" y="609.0" type="line"/>
      <point x="159.0" y="919.0"/>
      <point x="205.0" y="978.0"/>
      <point x="261.0" y="978.0" type="curve" smooth="yes"/>
      <point x="294.0" y="978.0"/>
      <point x="317" y="940"/>
      <point x="346" y="794" type="curve" smooth="yes"/>
      <point x="375" y="648"/>
      <point x="400.0" y="351.0"/>
      <point x="405.0" y="-198.0" type="curve"/>
      <point x="470.0" y="-121.0" type="line"/>
      <point x="468.0" y="362.0"/>
      <point x="439.0" y="709.0"/>
      <point x="403.0" y="855.0" type="curve" smooth="yes"/>
      <point x="367.0" y="1001.0"/>
      <point x="335" y="1044"/>
      <point x="287.0" y="1044.0" type="curve" smooth="yes"/>
      <point x="208.0" y="1044.0"/>
      <point x="131.0" y="950.0"/>
      <point x="71.0" y="609.0" type="curve"/>
    </contour>
    <contour>
      <point x="423" y="-151" type="line"/>
      <point x="273" y="-336"/>
      <point x="141" y="-421"/>
      <point x="9" y="-421" type="curve" smooth="yes"/>
      <point x="-33" y="-421"/>
      <point x="-50.0" y="-405.0"/>
      <point x="-39" y="-349" type="curve" smooth="yes"/>
      <point x="-28" y="-293"/>
      <point x="-41" y="-280.0"/>
      <point x="-76" y="-280" type="curve" smooth="yes"/>
      <point x="-121" y="-280"/>
      <point x="-147" y="-307"/>
      <point x="-147" y="-349" type="curve" smooth="yes"/>
      <point x="-147" y="-417"/>
      <point x="-107" y="-465"/>
      <point x="-18" y="-465" type="curve" smooth="yes"/>
      <point x="155" y="-465"/>
      <point x="310" y="-350"/>
      <point x="507" y="-83" type="curve" smooth="yes"/>
      <point x="706" y="187"/>
      <point x="901" y="691"/>
      <point x="901" y="992" type="curve" smooth="yes"/>
      <point x="901" y="1029"/>
      <point x="896" y="1032"/>
      <point x="864" y="1032" type="curve" smooth="yes"/>
      <point x="853" y="1032"/>
      <point x="841" y="1030"/>
      <point x="825" y="1025" type="curve"/>
      <point x="836" y="643"/>
      <point x="703" y="244"/>
      <point x="447" y="-121" type="curve"/>
    </contour>
  </outline>
</glyph>
<glyph name="z" format="2">
	<unicode hex="007A"/>
	<advance width="813"/>
	<outline>
		<contour>
			<point x="-24" y="-4" type="line"/>
			<point x="-6" y="-20" type="line"/>
			<point x="820" y="1029" type="line"/>
			<point x="801" y="1044" type="line"/>
		</contour>
		<contour>
			<point x="105" y="725" type="line"/>
			<point x="280" y="1012"/>
			<point x="352" y="1002"/>
			<point x="449" y="968" type="curve" smooth="yes"/>
			<point x="693" y="883" type="line"/>
			<point x="740" y="941" type="line"/>
			<point x="489" y="1028" type="line" smooth="yes"/>
			<point x="368.6874885447" y="1069.7019462016"/>
			<point x="268" y="1047"/>
			<point x="96" y="728" type="curve"/>
		</contour>
		<contour>
			<point x="309" y="12" type="line" smooth="yes"/>
			<point x="459.6092697849" y="-63.6453798467"/>
			<point x="591" y="3"/>
			<point x="757" y="334" type="curve"/>
			<point x="747" y="339" type="line"/>
			<point x="594" y="62"/>
			<point x="494.9655330885" y="-3.9340247418"/>
			<point x="328" y="80" type="curve" smooth="yes"/>
			<point x="143" y="173" type="line"/>
			<point x="88" y="123" type="line"/>
		</contour>
	</outline>
	<anchor name="top" x="525" y="1024"/>
	<anchor name="bottom" x="291" y="0"/>
</glyph>
<glyph name="braceleft" format="2">
	<unicode hex="007B"/>
	<advance width="543"/>
	<outline>
		<contour>
			<point x="74" y="615" type="line"/>
			<point x="168" y="612" type="line" smooth="yes"/>
			<point x="231" y="610"/>
			<point x="256" y="566"/>
			<point x="256" y="509" type="curve" smooth="yes"/>
			<point x="256" y="347"/>
			<point x="61" y="122"/>
			<point x="61" y="-63" type="curve" smooth="yes"/>
			<point x="61" y="-143"/>
			<point x="98" y="-207"/>
			<point x="199" y="-220" type="curve" smooth="yes"/>
			<point x="262" y="-228" type="line"/>
			<point x="268" y="-206" type="line"/>
			<point x="212" y="-198" type="line" smooth="yes"/>
			<point x="145" y="-188"/>
			<point x="113" y="-152"/>
			<point x="113" y="-84" type="curve" smooth="yes"/>
			<point x="113" y="83"/>
			<point x="298" y="316"/>
			<point x="298" y="491" type="curve" smooth="yes"/>
			<point x="298" y="565"/>
			<point x="265" y="626"/>
			<point x="178" y="636" type="curve"/>
			<point x="172" y="616" type="line"/>
			<point x="306" y="631"/>
			<point x="382" y="703"/>
			<point x="418" y="824" type="curve" smooth="yes"/>
			<point x="454" y="945"/>
			<point x="460" y="1124"/>
			<point x="498" y="1250" type="curve" smooth="yes"/>
			<point x="537" y="1376"/>
			<point x="609" y="1439"/>
			<point x="723" y="1454" type="curve" smooth="yes"/>
			<point x="784" y="1462" type="line"/>
			<point x="781" y="1484" type="line"/>
			<point x="714" y="1476" type="line" smooth="yes"/>
			<point x="554" y="1456"/>
			<point x="453" y="1356"/>
			<point x="422" y="1223" type="curve" smooth="yes"/>
			<point x="391" y="1090"/>
			<point x="394" y="932"/>
			<point x="360" y="809" type="curve" smooth="yes"/>
			<point x="326" y="686"/>
			<point x="268" y="647"/>
			<point x="177" y="644" type="curve" smooth="yes"/>
			<point x="82" y="641" type="line"/>
		</contour>
	</outline>
</glyph>
<glyph name="bar" format="2">
	<unicode hex="007C"/>
	<advance width="451"/>
	<outline>
		<contour>
			<point x="-89" y="-465" type="line"/>
			<point x="-36" y="-465" type="line"/>
			<point x="553" y="1535" type="line"/>
			<point x="499" y="1535" type="line"/>
		</contour>
	</outline>
</glyph>
<glyph name="braceright" format="2">
	<unicode hex="007D"/>
	<advance width="543"/>
	<outline>
		<contour>
			<point x="539" y="641" type="line"/>
			<point x="445" y="644" type="line" smooth="yes"/>
			<point x="382" y="646"/>
			<point x="357" y="690"/>
			<point x="357" y="747" type="curve" smooth="yes"/>
			<point x="357" y="909"/>
			<point x="552" y="1134"/>
			<point x="552" y="1319" type="curve" smooth="yes"/>
			<point x="552" y="1399"/>
			<point x="515" y="1463"/>
			<point x="414" y="1476" type="curve" smooth="yes"/>
			<point x="351" y="1484" type="line"/>
			<point x="345" y="1462" type="line"/>
			<point x="401" y="1454" type="line" smooth="yes"/>
			<point x="468" y="1444"/>
			<point x="500" y="1408"/>
			<point x="500" y="1340" type="curve" smooth="yes"/>
			<point x="500" y="1173"/>
			<point x="315" y="940"/>
			<point x="315" y="765" type="curve" smooth="yes"/>
			<point x="315" y="691"/>
			<point x="348" y="630"/>
			<point x="435" y="620" type="curve"/>
			<point x="441" y="640" type="line"/>
			<point x="307" y="625"/>
			<point x="231" y="553"/>
			<point x="195" y="432" type="curve" smooth="yes"/>
			<point x="159" y="311"/>
			<point x="153" y="132"/>
			<point x="115" y="6" type="curve" smooth="yes"/>
			<point x="76" y="-120"/>
			<point x="4" y="-183"/>
			<point x="-110" y="-198" type="curve" smooth="yes"/>
			<point x="-171" y="-206" type="line"/>
			<point x="-168" y="-228" type="line"/>
			<point x="-101" y="-220" type="line" smooth="yes"/>
			<point x="59" y="-200"/>
			<point x="160" y="-100"/>
			<point x="191" y="33" type="curve" smooth="yes"/>
			<point x="222" y="166"/>
			<point x="219" y="324"/>
			<point x="253" y="447" type="curve" smooth="yes"/>
			<point x="287" y="570"/>
			<point x="345" y="609"/>
			<point x="436" y="612" type="curve" smooth="yes"/>
			<point x="531" y="615" type="line"/>
		</contour>
	</outline>
</glyph>
<glyph name="asciitilde" format="2">
	<unicode hex="007E"/>
	<advance width="1150"/>
	<outline>
		<contour>
			<point x="1023" y="628" type="curve"/>
			<point x="979" y="628" type="line"/>
			<point x="922" y="498"/>
			<point x="874" y="436"/>
			<point x="759" y="436" type="curve" smooth="yes"/>
			<point x="611" y="436"/>
			<point x="566" y="636"/>
			<point x="387" y="636" type="curve" smooth="yes"/>
			<point x="274" y="636"/>
			<point x="192" y="567"/>
			<point x="127" y="396" type="curve"/>
			<point x="171" y="396" type="line"/>
			<point x="228" y="526"/>
			<point x="276" y="588"/>
			<point x="391" y="588" type="curve" smooth="yes"/>
			<point x="539" y="588"/>
			<point x="584" y="388"/>
			<point x="763" y="388" type="curve" smooth="yes"/>
			<point x="876" y="388"/>
			<point x="958" y="457"/>
		</contour>
	</outline>
</glyph>
<glyph name="exclamdown" format="2">
	<unicode hex="00A1"/>
	<advance width="421"/>
	<outline>
		<contour>
			<point x="-111" y="-383" type="line" smooth="yes"/>
			<point x="-119" y="-409"/>
			<point x="-99" y="-422"/>
			<point x="-71" y="-422" type="curve" smooth="yes"/>
			<point x="-47" y="-422"/>
			<point x="-25" y="-410"/>
			<point x="-18" y="-387" type="curve" smooth="yes"/>
			<point x="-9" y="-357" type="line" smooth="yes"/>
			<point x="0" y="-326"/>
			<point x="162" y="307"/>
			<point x="258" y="628" type="curve"/>
			<point x="235" y="628" type="line"/>
			<point x="134" y="307"/>
			<point x="-94" y="-325"/>
			<point x="-102" y="-353" type="curve" smooth="yes"/>
		</contour>
		<contour>
			<point x="338" y="869" type="curve" smooth="yes"/>
			<point x="395" y="869"/>
			<point x="430" y="910"/>
			<point x="430" y="961" type="curve" smooth="yes"/>
			<point x="430" y="1006"/>
			<point x="397" y="1038"/>
			<point x="350" y="1038" type="curve" smooth="yes"/>
			<point x="293" y="1038"/>
			<point x="258" y="997"/>
			<point x="258" y="946" type="curve" smooth="yes"/>
			<point x="258" y="901"/>
			<point x="291" y="869"/>
		</contour>
	</outline>
</glyph>
<glyph name="currency" format="2">
	<unicode hex="00A4"/>
	<advance width="927"/>
	<outline>
		<contour>
			<point x="222" y="826" type="line"/>
			<point x="312" y="691" type="line"/>
			<point x="349" y="719" type="line"/>
			<point x="256" y="853" type="line"/>
		</contour>
		<contour>
			<point x="858" y="847" type="line"/>
			<point x="687" y="716" type="line"/>
			<point x="711" y="682" type="line"/>
			<point x="884" y="810" type="line"/>
		</contour>
		<contour>
			<point x="702" y="198" type="line"/>
			<point x="612" y="333" type="line"/>
			<point x="575" y="305" type="line"/>
			<point x="668" y="171" type="line"/>
		</contour>
		<contour>
			<point x="40" y="214" type="line"/>
			<point x="66" y="177" type="line"/>
			<point x="237" y="308" type="line"/>
			<point x="213" y="342" type="line"/>
		</contour>
		<contour>
			<point x="516" y="800" type="curve" smooth="yes"/>
			<point x="303" y="800"/>
			<point x="164" y="641"/>
			<point x="164" y="453" type="curve" smooth="yes"/>
			<point x="164" y="314"/>
			<point x="266" y="224"/>
			<point x="408" y="224" type="curve" smooth="yes"/>
			<point x="621" y="224"/>
			<point x="760" y="383"/>
			<point x="760" y="571" type="curve" smooth="yes"/>
			<point x="760" y="710"/>
			<point x="658" y="800"/>
		</contour>
		<contour>
			<point x="419" y="268" type="curve" smooth="yes"/>
			<point x="294" y="268"/>
			<point x="211" y="341"/>
			<point x="211" y="460" type="curve" smooth="yes"/>
			<point x="211" y="621"/>
			<point x="326" y="756"/>
			<point x="505" y="756" type="curve" smooth="yes"/>
			<point x="630" y="756"/>
			<point x="713" y="683"/>
			<point x="713" y="564" type="curve" smooth="yes"/>
			<point x="713" y="403"/>
			<point x="598" y="268"/>
		</contour>
	</outline>
</glyph>
<glyph name="brokenbar" format="2">
	<unicode hex="00A6"/>
	<advance width="451"/>
	<outline>
		<contour>
			<point x="315" y="725" type="line"/>
			<point x="554" y="1535" type="line"/>
			<point x="500" y="1535" type="line"/>
			<point x="262" y="725" type="line"/>
		</contour>
		<contour>
			<point x="-88" y="-465" type="line"/>
			<point x="-35" y="-465" type="line"/>
			<point x="203" y="345" type="line"/>
			<point x="150" y="345" type="line"/>
		</contour>
	</outline>
</glyph>
<glyph name="section" format="2">
	<unicode hex="00A7"/>
	<advance width="974"/>
	<outline>
		<contour>
			<point x="474" y="955" type="curve"/>
			<point x="456" y="967" type="line"/>
			<point x="235" y="900"/>
			<point x="143" y="782"/>
			<point x="143" y="634" type="curve" smooth="yes"/>
			<point x="143" y="318"/>
			<point x="601" y="405"/>
			<point x="601" y="113" type="curve" smooth="yes"/>
			<point x="601" y="-58"/>
			<point x="468" y="-198"/>
			<point x="254" y="-198" type="curve" smooth="yes"/>
			<point x="57" y="-198"/>
			<point x="20" y="-63"/>
			<point x="-10" y="-63" type="curve" smooth="yes"/>
			<point x="-39" y="-63"/>
			<point x="-57" y="-83"/>
			<point x="-57" y="-109" type="curve" smooth="yes"/>
			<point x="-57" y="-157"/>
			<point x="45" y="-218"/>
			<point x="235" y="-218" type="curve" smooth="yes"/>
			<point x="486" y="-218"/>
			<point x="656" y="-60"/>
			<point x="656" y="146" type="curve" smooth="yes"/>
			<point x="656" y="470"/>
			<point x="199" y="364"/>
			<point x="199" y="665" type="curve" smooth="yes"/>
			<point x="199" y="791"/>
			<point x="289" y="907"/>
		</contour>
		<contour>
			<point x="858" y="612" type="curve" smooth="yes"/>
			<point x="858" y="484.0909090909"/>
			<point x="747.8115877331" y="371.4519291749"/>
			<point x="526" y="344" type="curve"/>
			<point x="536" y="328" type="line"/>
			<point x="786.6340978772" y="363.8048711253"/>
			<point x="913" y="472.8571428571"/>
			<point x="913" y="640" type="curve" smooth="yes"/>
			<point x="913" y="939"/>
			<point x="426" y="872"/>
			<point x="426" y="1161" type="curve" smooth="yes"/>
			<point x="426" y="1298"/>
			<point x="542" y="1430"/>
			<point x="749" y="1430" type="curve" smooth="yes"/>
			<point x="946" y="1430"/>
			<point x="983" y="1295"/>
			<point x="1013" y="1295" type="curve" smooth="yes"/>
			<point x="1039" y="1295"/>
			<point x="1060" y="1311"/>
			<point x="1060" y="1338" type="curve" smooth="yes"/>
			<point x="1060" y="1389"/>
			<point x="958" y="1450"/>
			<point x="768" y="1450" type="curve" smooth="yes"/>
			<point x="516" y="1450"/>
			<point x="374" y="1294"/>
			<point x="374" y="1130" type="curve" smooth="yes"/>
			<point x="374" y="818"/>
			<point x="858" y="880"/>
		</contour>
	</outline>
</glyph>
<glyph name="copyright" format="2">
	<unicode hex="00A9"/>
	<advance width="1749"/>
	<outline>
		<contour>
			<point x="889" y="294" type="curve" smooth="yes"/>
			<point x="716" y="294"/>
			<point x="592" y="402"/>
			<point x="592" y="609" type="curve" smooth="yes"/>
			<point x="592" y="896"/>
			<point x="756" y="1136"/>
			<point x="1062" y="1136" type="curve" smooth="yes"/>
			<point x="1154" y="1136"/>
			<point x="1226" y="1110"/>
			<point x="1293" y="1053" type="curve"/>
			<point x="1256" y="1113" type="line"/>
			<point x="1292" y="864" type="line"/>
			<point x="1309" y="867" type="line"/>
			<point x="1344" y="1185" type="line"/>
			<point x="1335" y="1185" type="line"/>
			<point x="1279" y="1122" type="line"/>
			<point x="1317" y="1122" type="line"/>
			<point x="1255" y="1153"/>
			<point x="1182" y="1167"/>
			<point x="1098" y="1167" type="curve" smooth="yes"/>
			<point x="725" y="1167"/>
			<point x="511" y="913"/>
			<point x="511" y="620" type="curve" smooth="yes"/>
			<point x="511" y="395"/>
			<point x="664" y="271"/>
			<point x="875" y="271" type="curve" smooth="yes"/>
			<point x="963" y="271"/>
			<point x="1061" y="290"/>
			<point x="1132" y="317" type="curve"/>
			<point x="1244" y="514" type="line"/>
			<point x="1227" y="514" type="line"/>
			<point x="1052" y="309" type="line"/>
			<point x="1120" y="348" type="line"/>
			<point x="1048" y="313"/>
			<point x="963" y="294"/>
		</contour>
		<contour>
			<point x="852" y="16" type="curve" smooth="yes"/>
			<point x="465" y="16"/>
			<point x="234" y="261"/>
			<point x="234" y="612" type="curve" smooth="yes"/>
			<point x="234" y="1043"/>
			<point x="553" y="1414"/>
			<point x="1020" y="1414" type="curve" smooth="yes"/>
			<point x="1407" y="1414"/>
			<point x="1638" y="1169"/>
			<point x="1638" y="818" type="curve" smooth="yes"/>
			<point x="1638" y="387"/>
			<point x="1319" y="16"/>
		</contour>
		<contour>
			<point x="1018" y="1450" type="curve" smooth="yes"/>
			<point x="524" y="1450"/>
			<point x="187" y="1067"/>
			<point x="187" y="609" type="curve" smooth="yes"/>
			<point x="187" y="241"/>
			<point x="430" y="-20"/>
			<point x="854" y="-20" type="curve" smooth="yes"/>
			<point x="1348" y="-20"/>
			<point x="1685" y="363"/>
			<point x="1685" y="821" type="curve" smooth="yes"/>
			<point x="1685" y="1189"/>
			<point x="1442" y="1450"/>
		</contour>
	</outline>
</glyph>
<glyph name="ordfeminine" format="2">
	<unicode hex="00AA"/>
	<advance width="851"/>
	<outline>
		<contour>
			<point x="200" y="577" type="line"/>
			<point x="703" y="577" type="line"/>
			<point x="717" y="622" type="line"/>
			<point x="213" y="622" type="line"/>
		</contour>
		<contour>
			<point x="622" y="843" type="line" smooth="yes"/>
			<point x="606" y="800"/>
			<point x="614" y="790"/>
			<point x="651" y="790" type="curve" smooth="yes"/>
			<point x="725" y="790"/>
			<point x="803" y="836"/>
			<point x="907" y="973" type="curve"/>
			<point x="898" y="981" type="line"/>
			<point x="775" y="851"/>
			<point x="694" y="825"/>
			<point x="644" y="837" type="curve"/>
			<point x="668" y="806" type="line"/>
			<point x="903" y="1430" type="line"/>
			<point x="843" y="1430" type="line"/>
			<point x="822" y="1375" type="line"/>
			<point x="723" y="1107" type="line"/>
			<point x="508" y="857"/>
			<point x="451" y="839"/>
			<point x="396" y="839" type="curve" smooth="yes"/>
			<point x="345" y="839"/>
			<point x="316" y="869"/>
			<point x="315" y="930" type="curve" smooth="yes"/>
			<point x="312" y="1078"/>
			<point x="531" y="1418"/>
			<point x="712" y="1418" type="curve" smooth="yes"/>
			<point x="756" y="1418"/>
			<point x="797" y="1403"/>
			<point x="829" y="1354" type="curve"/>
			<point x="839" y="1366" type="line"/>
			<point x="806" y="1419"/>
			<point x="766" y="1442"/>
			<point x="708" y="1442" type="curve" smooth="yes"/>
			<point x="505" y="1442"/>
			<point x="242" y="1120"/>
			<point x="245" y="909" type="curve" smooth="yes"/>
			<point x="246" y="848"/>
			<point x="282" y="790"/>
			<point x="364" y="790" type="curve" smooth="yes"/>
			<point x="435" y="790"/>
			<point x="511" y="824"/>
			<point x="725" y="1085" type="curve"/>
			<point x="712" y="1082" type="line"/>
		</contour>
	</outline>
</glyph>
<glyph name="guillemotleft" format="2">
	<unicode hex="00AB"/>
	<advance width="807"/>
	<outline>
		<contour>
			<point x="141" y="551" type="line"/>
			<point x="112" y="455" type="line"/>
			<point x="549" y="915" type="line"/>
			<point x="536" y="930" type="line"/>
			<point x="62" y="527" type="line"/>
			<point x="59" y="517" type="line"/>
			<point x="293" y="114" type="line"/>
			<point x="308" y="120" type="line"/>
		</contour>
		<contour>
			<point x="436" y="551" type="line"/>
			<point x="407" y="455" type="line"/>
			<point x="844" y="915" type="line"/>
			<point x="831" y="930" type="line"/>
			<point x="357" y="527" type="line"/>
			<point x="354" y="517" type="line"/>
			<point x="588" y="114" type="line"/>
			<point x="603" y="120" type="line"/>
		</contour>
	</outline>
</glyph>
<glyph name="logicalnot" format="2">
	<unicode hex="00AC"/>
	<advance width="1150"/>
	<outline>
		<contour>
			<point x="229" y="731" type="line"/>
			<point x="216" y="687" type="line"/>
			<point x="994" y="687" type="line"/>
			<point x="865" y="268" type="line"/>
			<point x="909" y="268" type="line"/>
			<point x="1051" y="731" type="line"/>
		</contour>
	</outline>
</glyph>
<glyph name="registered" format="2">
	<unicode hex="00AE"/>
	<advance width="1108"/>
	<outline>
		<contour>
			<point x="886" y="830" type="line"/>
			<point x="852" y="829"/>
			<point x="848" y="834"/>
			<point x="839" y="874" type="curve" smooth="yes"/>
			<point x="818" y="970" type="line" smooth="yes"/>
			<point x="807" y="1021"/>
			<point x="793" y="1039"/>
			<point x="745" y="1039" type="curve"/>
			<point x="751" y="1038" type="line"/>
			<point x="826" y="1045"/>
			<point x="887" y="1081"/>
			<point x="895" y="1140" type="curve" smooth="yes"/>
			<point x="903" y="1195"/>
			<point x="875" y="1244"/>
			<point x="774" y="1244" type="curve" smooth="yes"/>
			<point x="682" y="1244" type="line"/>
			<point x="676" y="1221" type="line"/>
			<point x="757" y="1221" type="line" smooth="yes"/>
			<point x="824" y="1221"/>
			<point x="851" y="1193"/>
			<point x="846" y="1140" type="curve" smooth="yes"/>
			<point x="839" y="1072"/>
			<point x="777" y="1049"/>
			<point x="714" y="1049" type="curve" smooth="yes"/>
			<point x="626" y="1049" type="line"/>
			<point x="618" y="1026" type="line"/>
			<point x="723" y="1026" type="line" smooth="yes"/>
			<point x="753" y="1026"/>
			<point x="764" y="1016"/>
			<point x="774" y="971" type="curve" smooth="yes"/>
			<point x="794" y="879" type="line" smooth="yes"/>
			<point x="807" y="819"/>
			<point x="806" y="814"/>
			<point x="882" y="817" type="curve"/>
		</contour>
		<contour>
			<point x="709" y="1244" type="line"/>
			<point x="593" y="1244" type="line"/>
			<point x="590" y="1235" type="line"/>
			<point x="654" y="1221" type="line"/>
			<point x="538" y="841" type="line"/>
			<point x="465" y="827" type="line"/>
			<point x="462" y="818" type="line"/>
			<point x="645" y="818" type="line"/>
			<point x="648" y="827" type="line"/>
			<point x="586" y="841" type="line"/>
		</contour>
		<contour>
			<point x="660" y="629" type="curve" smooth="yes"/>
			<point x="427" y="629"/>
			<point x="311" y="786"/>
			<point x="311" y="974" type="curve" smooth="yes"/>
			<point x="311" y="1214"/>
			<point x="489" y="1417"/>
			<point x="750" y="1417" type="curve" smooth="yes"/>
			<point x="983" y="1417"/>
			<point x="1099" y="1260"/>
			<point x="1099" y="1072" type="curve" smooth="yes"/>
			<point x="1099" y="832"/>
			<point x="921" y="629"/>
		</contour>
		<contour>
			<point x="754" y="1450" type="curve" smooth="yes"/>
			<point x="469" y="1450"/>
			<point x="273" y="1233"/>
			<point x="273" y="974" type="curve" smooth="yes"/>
			<point x="273" y="754"/>
			<point x="412" y="596"/>
			<point x="656" y="596" type="curve" smooth="yes"/>
			<point x="941" y="596"/>
			<point x="1137" y="813"/>
			<point x="1137" y="1072" type="curve" smooth="yes"/>
			<point x="1137" y="1292"/>
			<point x="998" y="1450"/>
		</contour>
	</outline>
</glyph>
<glyph name="degree" format="2">
  <advance width="752"/>
  <unicode hex="00B0"/>
  <outline>
    <contour>
      <point x="595.0" y="1440.0" type="curve" smooth="yes"/>
      <point x="396.0" y="1440.0"/>
      <point x="266.0" y="1282.0"/>
      <point x="266.0" y="1107.0" type="curve" smooth="yes"/>
      <point x="266.0" y="958.0"/>
      <point x="371.0" y="860.0"/>
      <point x="532.0" y="860.0" type="curve" smooth="yes"/>
      <point x="730.0" y="860.0"/>
      <point x="860.0" y="1019.0"/>
      <point x="860.0" y="1194.0" type="curve" smooth="yes"/>
      <point x="860.0" y="1342.0"/>
      <point x="755.0" y="1440.0"/>
    </contour>
    <contour>
      <point x="535.0" y="898.0" type="curve" smooth="yes"/>
      <point x="394.0" y="898.0"/>
      <point x="311.0" y="983.0"/>
      <point x="311.0" y="1111.0" type="curve" smooth="yes"/>
      <point x="311.0" y="1262.0"/>
      <point x="420.0" y="1402.0"/>
      <point x="591.0" y="1402.0" type="curve" smooth="yes"/>
      <point x="732.0" y="1402.0"/>
      <point x="815.0" y="1317.0"/>
      <point x="815.0" y="1190.0" type="curve" smooth="yes"/>
      <point x="815.0" y="1039.0"/>
      <point x="706.0" y="898.0"/>
    </contour>
  </outline>
</glyph>
<glyph name="plusminus" format="2">
	<unicode hex="00B1"/>
	<advance width="1150"/>
	<outline>
		<contour>
			<point x="710" y="1024" type="line"/>
			<point x="458" y="202" type="line"/>
			<point x="502" y="202" type="line"/>
			<point x="754" y="1024" type="line"/>
		</contour>
		<contour>
			<point x="202" y="635" type="line"/>
			<point x="188" y="591" type="line"/>
			<point x="1010" y="591" type="line"/>
			<point x="1024" y="635" type="line"/>
		</contour>
		<contour>
			<point x="21" y="44" type="line"/>
			<point x="7" y="0" type="line"/>
			<point x="829" y="0" type="line"/>
			<point x="843" y="44" type="line"/>
		</contour>
	</outline>
</glyph>
<glyph name="uni00B2" format="2">
	<unicode hex="00B2"/>
	<advance width="615"/>
	<outline>
		<contour>
			<point x="499" y="687" type="line"/>
			<point x="567" y="724" type="line"/>
			<point x="195" y="724" type="line"/>
			<point x="168" y="686" type="line"/>
			<point x="451" y="924" type="line" smooth="yes"/>
			<point x="685" y="1120"/>
			<point x="713" y="1203"/>
			<point x="713" y="1280" type="curve" smooth="yes"/>
			<point x="713" y="1375"/>
			<point x="645" y="1440"/>
			<point x="533" y="1440" type="curve" smooth="yes"/>
			<point x="407" y="1440"/>
			<point x="314" y="1360"/>
			<point x="265" y="1202" type="curve"/>
			<point x="282" y="1198" type="line"/>
			<point x="321" y="1316"/>
			<point x="390" y="1383"/>
			<point x="509" y="1383" type="curve" smooth="yes"/>
			<point x="588" y="1383"/>
			<point x="641" y="1339"/>
			<point x="641" y="1262" type="curve" smooth="yes"/>
			<point x="641" y="1175"/>
			<point x="591" y="1090"/>
			<point x="411" y="927" type="curve" smooth="yes"/>
			<point x="128" y="671" type="line"/>
			<point x="125" y="662" type="line"/>
			<point x="516" y="662" type="line"/>
			<point x="544" y="639" type="line"/>
			<point x="548" y="639" type="line"/>
			<point x="671" y="852" type="line"/>
			<point x="661" y="852" type="line"/>
		</contour>
	</outline>
</glyph>
<glyph name="uni00B3" format="2">
	<unicode hex="00B3"/>
	<advance width="571"/>
	<outline>
		<contour>
			<point x="345" y="1039" type="line"/>
			<point x="390" y="1053" type="line" smooth="yes"/>
			<point x="493" y="1085"/>
			<point x="564" y="1040"/>
			<point x="564" y="940" type="curve" smooth="yes"/>
			<point x="564" y="796"/>
			<point x="443" y="682"/>
			<point x="314" y="682" type="curve" smooth="yes"/>
			<point x="214" y="682"/>
			<point x="181" y="756"/>
			<point x="161" y="756" type="curve" smooth="yes"/>
			<point x="138" y="756"/>
			<point x="122" y="738"/>
			<point x="122" y="716" type="curve" smooth="yes"/>
			<point x="122" y="685"/>
			<point x="153" y="652"/>
			<point x="260" y="652" type="curve" smooth="yes"/>
			<point x="482" y="652"/>
			<point x="632" y="797"/>
			<point x="632" y="955" type="curve" smooth="yes"/>
			<point x="632" y="1060"/>
			<point x="546" y="1117.6"/>
			<point x="458" y="1100" type="curve"/>
			<point x="458" y="1091" type="line"/>
			<point x="616" y="1145"/>
			<point x="676" y="1230"/>
			<point x="676" y="1310" type="curve" smooth="yes"/>
			<point x="676" y="1387"/>
			<point x="625" y="1440"/>
			<point x="525" y="1440" type="curve" smooth="yes"/>
			<point x="423" y="1440"/>
			<point x="342" y="1373"/>
			<point x="296" y="1246" type="curve"/>
			<point x="312" y="1241" type="line"/>
			<point x="357" y="1349"/>
			<point x="424" y="1389"/>
			<point x="503" y="1389" type="curve" smooth="yes"/>
			<point x="578" y="1389"/>
			<point x="615" y="1351"/>
			<point x="615" y="1292" type="curve" smooth="yes"/>
			<point x="615" y="1215"/>
			<point x="568" y="1139"/>
			<point x="341" y="1058" type="curve"/>
		</contour>
	</outline>
</glyph>
<glyph name="uni00B5" format="2">
	<unicode hex="00B5"/>
	<advance width="1056"/>
	<outline>
		<contour>
			<point x="721" y="504" type="line"/>
			<point x="628" y="311"/>
			<point x="498" y="41"/>
			<point x="277" y="41" type="curve" smooth="yes"/>
			<point x="218" y="41"/>
			<point x="174" y="64"/>
			<point x="170" y="132" type="curve" smooth="yes"/>
			<point x="168" y="163"/>
			<point x="180" y="209"/>
			<point x="219" y="328" type="curve" smooth="yes"/>
			<point x="449" y="1024" type="line"/>
			<point x="379" y="1024" type="line"/>
			<point x="-110" y="-453" type="line"/>
			<point x="-101" y="-453" type="line"/>
			<point x="-9" y="-445" type="line"/>
			<point x="114" y="143" type="line"/>
			<point x="109" y="143" type="line"/>
			<point x="108" y="36"/>
			<point x="169" y="-20"/>
			<point x="259" y="-20" type="curve" smooth="yes"/>
			<point x="484" y="-20"/>
			<point x="614" y="222"/>
			<point x="732" y="508" type="curve"/>
			<point x="712" y="471" type="line"/>
			<point x="585" y="81" type="line" smooth="yes"/>
			<point x="556" y="-7"/>
			<point x="562" y="-20"/>
			<point x="608" y="-20" type="curve" smooth="yes"/>
			<point x="705" y="-20"/>
			<point x="812" y="59"/>
			<point x="960" y="281" type="curve"/>
			<point x="953" y="286" type="line"/>
			<point x="778" y="74"/>
			<point x="665" y="32"/>
			<point x="596" y="51" type="curve"/>
			<point x="625" y="6" type="line"/>
			<point x="964" y="1024" type="line"/>
			<point x="894" y="1024" type="line"/>
		</contour>
	</outline>
</glyph>
<glyph name="paragraph" format="2">
	<unicode hex="00B6"/>
	<advance width="1123"/>
	<outline>
		<contour>
			<point x="440" y="-218" type="line"/>
			<point x="931" y="1388" type="line"/>
			<point x="1105" y="1388" type="line"/>
			<point x="1118" y="1430" type="line"/>
			<point x="896" y="1430" type="line"/>
			<point x="392" y="-218" type="line"/>
		</contour>
		<contour>
			<point x="649" y="-218" type="line"/>
			<point x="1141" y="1390" type="line"/>
			<point x="1323" y="1418" type="line"/>
			<point x="1327" y="1430" type="line"/>
			<point x="1105" y="1430" type="line"/>
			<point x="601" y="-218" type="line"/>
		</contour>
		<contour>
			<point x="934" y="1430" type="line"/>
			<point x="679" y="1430" type="line" smooth="yes"/>
			<point x="363" y="1430"/>
			<point x="221" y="1196"/>
			<point x="221" y="977" type="curve" smooth="yes"/>
			<point x="221" y="847"/>
			<point x="292" y="751"/>
			<point x="495" y="751" type="curve" smooth="yes"/>
			<point x="726" y="751" type="line"/>
		</contour>
	</outline>
</glyph>
<glyph name="uni00B9" format="2">
	<unicode hex="00B9"/>
	<advance width="487"/>
	<outline>
		<contour>
			<point x="304" y="701" type="line"/>
			<point x="140" y="674" type="line"/>
			<point x="137" y="662" type="line"/>
			<point x="498" y="662" type="line"/>
			<point x="501" y="674" type="line"/>
			<point x="367" y="701" type="line"/>
			<point x="593" y="1439" type="line"/>
			<point x="579" y="1439" type="line"/>
			<point x="269" y="1291" type="line"/>
			<point x="273" y="1279" type="line"/>
			<point x="524" y="1351" type="line"/>
			<point x="506" y="1359" type="line"/>
		</contour>
	</outline>
</glyph>
<glyph name="ordmasculine" format="2">
	<unicode hex="00BA"/>
	<advance width="800"/>
	<outline>
		<contour>
			<point x="168" y="577" type="line"/>
			<point x="671" y="577" type="line"/>
			<point x="685" y="622" type="line"/>
			<point x="181" y="622" type="line"/>
		</contour>
		<contour>
			<point x="673" y="1450" type="curve" smooth="yes"/>
			<point x="484" y="1450"/>
			<point x="309" y="1248"/>
			<point x="309" y="1021" type="curve" smooth="yes"/>
			<point x="309" y="874"/>
			<point x="378" y="790"/>
			<point x="502" y="790" type="curve" smooth="yes"/>
			<point x="691" y="790"/>
			<point x="866" y="992"/>
			<point x="866" y="1219" type="curve" smooth="yes"/>
			<point x="866" y="1366"/>
			<point x="797" y="1450"/>
		</contour>
		<contour>
			<point x="495" y="811" type="curve" smooth="yes"/>
			<point x="418" y="811"/>
			<point x="372" y="866"/>
			<point x="372" y="1005" type="curve" smooth="yes"/>
			<point x="372" y="1219"/>
			<point x="528" y="1429"/>
			<point x="680" y="1429" type="curve" smooth="yes"/>
			<point x="757" y="1429"/>
			<point x="803" y="1374"/>
			<point x="803" y="1235" type="curve" smooth="yes"/>
			<point x="803" y="1021"/>
			<point x="647" y="811"/>
		</contour>
	</outline>
</glyph>
<glyph name="guillemotright" format="2">
	<unicode hex="00BB"/>
	<advance width="879"/>
	<outline>
		<contour>
			<point x="402" y="493" type="line"/>
			<point x="431" y="589" type="line"/>
			<point x="-6" y="129" type="line"/>
			<point x="7" y="114" type="line"/>
			<point x="481" y="517" type="line"/>
			<point x="484" y="527" type="line"/>
			<point x="250" y="930" type="line"/>
			<point x="235" y="924" type="line"/>
		</contour>
		<contour>
			<point x="698" y="493" type="line"/>
			<point x="727" y="589" type="line"/>
			<point x="290" y="129" type="line"/>
			<point x="303" y="114" type="line"/>
			<point x="777" y="517" type="line"/>
			<point x="780" y="527" type="line"/>
			<point x="546" y="930" type="line"/>
			<point x="531" y="924" type="line"/>
		</contour>
	</outline>
</glyph>
<glyph name="questiondown" format="2">
	<unicode hex="00BF"/>
	<advance width="931"/>
	<outline>
		<contour>
			<point x="657" y="869" type="curve" smooth="yes"/>
			<point x="714" y="869"/>
			<point x="749" y="910"/>
			<point x="749" y="961" type="curve" smooth="yes"/>
			<point x="749" y="1006"/>
			<point x="716" y="1038"/>
			<point x="669" y="1038" type="curve" smooth="yes"/>
			<point x="612" y="1038"/>
			<point x="577" y="997"/>
			<point x="577" y="946" type="curve" smooth="yes"/>
			<point x="577" y="901"/>
			<point x="610" y="869"/>
		</contour>
		<contour>
			<point x="415" y="-426" type="curve" smooth="yes"/>
			<point x="588" y="-426"/>
			<point x="620" y="-389"/>
			<point x="620" y="-345" type="curve" smooth="yes"/>
			<point x="620" y="-317"/>
			<point x="601" y="-293"/>
			<point x="579" y="-293" type="curve" smooth="yes"/>
			<point x="569" y="-293"/>
			<point x="489" y="-363"/>
			<point x="337" y="-363" type="curve" smooth="yes"/>
			<point x="146" y="-363"/>
			<point x="6" y="-237"/>
			<point x="6" y="-18" type="curve" smooth="yes"/>
			<point x="6" y="218"/>
			<point x="143" y="303"/>
			<point x="506" y="261" type="curve"/>
			<point x="578" y="628" type="line"/>
			<point x="559" y="628" type="line"/>
			<point x="451" y="274" type="line"/>
			<point x="496" y="335" type="line"/>
			<point x="98" y="382"/>
			<point x="-42" y="246"/>
			<point x="-42" y="6" type="curve" smooth="yes"/>
			<point x="-42" y="-255"/>
			<point x="189" y="-426"/>
		</contour>
	</outline>
</glyph>
<glyph name="AE" format="2">
	<unicode hex="00C6"/>
	<advance width="1976"/>
	<outline>
		<contour>
			<point x="43" y="38" type="line"/>
			<point x="1285" y="1410" type="line"/>
			<point x="1274" y="1417" type="line"/>
			<point x="853" y="36" type="line"/>
			<point x="674" y="12" type="line"/>
			<point x="621" y="0" type="line"/>
			<point x="918" y="0" type="line"/>
			<point x="1355" y="1430" type="line"/>
			<point x="1095" y="1430" type="line"/>
			<point x="1091" y="1418" type="line"/>
			<point x="1236" y="1397" type="line"/>
			<point x="1" y="38" type="line"/>
			<point x="-179" y="12" type="line"/>
			<point x="-182" y="0" type="line"/>
			<point x="209" y="0" type="line"/>
			<point x="212" y="12" type="line"/>
		</contour>
		<contour>
			<point x="1662" y="-49" type="line"/>
			<point x="1668" y="-49" type="line"/>
			<point x="1896" y="368" type="line"/>
			<point x="1885" y="375" type="line"/>
			<point x="1608" y="17" type="line"/>
			<point x="1658" y="28" type="line"/>
			<point x="852" y="28" type="line"/>
			<point x="843" y="0" type="line"/>
			<point x="1616" y="0" type="line"/>
		</contour>
		<contour>
			<point x="508" y="591" type="line"/>
			<point x="1062" y="591" type="line"/>
			<point x="1071" y="619" type="line"/>
			<point x="517" y="619" type="line"/>
		</contour>
		<contour>
			<point x="1574" y="463" type="line"/>
			<point x="1583" y="463" type="line"/>
			<point x="1637" y="748" type="line"/>
			<point x="1758" y="1034" type="line"/>
			<point x="1748" y="1034" type="line"/>
			<point x="1590" y="772" type="line"/>
			<point x="1129" y="760" type="line"/>
			<point x="1121" y="738" type="line"/>
			<point x="1580" y="728" type="line"/>
		</contour>
		<contour>
			<point x="2002" y="1074" type="line"/>
			<point x="2016" y="1074" type="line"/>
			<point x="2060" y="1473" type="line"/>
			<point x="2056" y="1473" type="line"/>
			<point x="1981" y="1430" type="line"/>
			<point x="1330" y="1430" type="line"/>
			<point x="1321" y="1402" type="line"/>
			<point x="2016" y="1402" type="line"/>
			<point x="1971" y="1415" type="line"/>
		</contour>
	</outline>
	<anchor name="UCtop" x="1317" y="1430"/>
	<anchor name="bottom" x="880" y="0"/>
</glyph>
<glyph name="Ccedilla" format="2">
	<unicode hex="00C7"/>
	<advance width="1377"/>
	<outline>
		<contour>
			<point x="1100" y="99" type="line"/>
			<point x="998" y="38"/>
			<point x="870" y="5"/>
			<point x="754" y="5" type="curve" smooth="yes"/>
			<point x="452" y="5"/>
			<point x="235" y="206"/>
			<point x="235" y="555" type="curve" smooth="yes"/>
			<point x="235" y="1107"/>
			<point x="598" y="1418"/>
			<point x="1014" y="1418" type="curve" smooth="yes"/>
			<point x="1168" y="1418"/>
			<point x="1292" y="1385"/>
			<point x="1398" y="1294" type="curve"/>
			<point x="1330" y="1362" type="line"/>
			<point x="1377" y="1021" type="line"/>
			<point x="1394" y="1021" type="line"/>
			<point x="1427" y="1479" type="line"/>
			<point x="1423" y="1479" type="line"/>
			<point x="1338" y="1381" type="line"/>
			<point x="1413" y="1385" type="line"/>
			<point x="1316" y="1427"/>
			<point x="1206" y="1450"/>
			<point x="1055" y="1450" type="curve" smooth="yes"/>
			<point x="571" y="1450"/>
			<point x="155" y="1106"/>
			<point x="155" y="559" type="curve" smooth="yes"/>
			<point x="155" y="215"/>
			<point x="372" y="-20"/>
			<point x="753" y="-20" type="curve" smooth="yes"/>
			<point x="869" y="-20"/>
			<point x="1023" y="2"/>
			<point x="1134" y="46" type="curve"/>
			<point x="1287" y="346" type="line"/>
			<point x="1270" y="346" type="line"/>
			<point x="1042" y="44" type="line"/>
		</contour>
		<contour>
			<point x="550" y="-434" type="curve" smooth="yes"/>
			<point x="477" y="-434"/>
			<point x="459" y="-373"/>
			<point x="444" y="-373" type="curve" smooth="yes"/>
			<point x="420" y="-373"/>
			<point x="404" y="-391"/>
			<point x="404" y="-412" type="curve" smooth="yes"/>
			<point x="404" y="-441"/>
			<point x="428" y="-465"/>
			<point x="497" y="-465" type="curve" smooth="yes"/>
			<point x="634" y="-465"/>
			<point x="732" y="-381"/>
			<point x="732" y="-278" type="curve" smooth="yes"/>
			<point x="732" y="-227"/>
			<point x="699" y="-176"/>
			<point x="585" y="-134" type="curve"/>
			<point x="585" y="-151" type="line"/>
			<point x="721" y="0" type="line"/>
			<point x="694" y="0" type="line"/>
			<point x="529" y="-177" type="line"/>
			<point x="529" y="-181" type="line"/>
			<point x="643" y="-219"/>
			<point x="681" y="-262"/>
			<point x="681" y="-310" type="curve" smooth="yes"/>
			<point x="681" y="-377"/>
			<point x="620" y="-434"/>
		</contour>
	</outline>
</glyph>
<glyph name="multiply" format="2">
	<unicode hex="00D7"/>
	<advance width="1150"/>
	<outline>
		<contour>
			<point x="137" y="205" type="line"/>
			<point x="161" y="171" type="line"/>
			<point x="1013" y="819" type="line"/>
			<point x="989" y="853" type="line"/>
		</contour>
		<contour>
			<point x="336" y="827" type="line"/>
			<point x="781" y="171" type="line"/>
			<point x="814" y="197" type="line"/>
			<point x="369" y="853" type="line"/>
		</contour>
	</outline>
</glyph>
<glyph name="Oslash" format="2">
	<unicode hex="00D8"/>
	<advance width="1526"/>
	<outline>
		<contour>
			<point x="1697" y="1430" type="line"/>
			<point x="1621" y="1430" type="line"/>
			<point x="1404" y="1245" type="line"/>
			<point x="1376" y="1221" type="line"/>
			<point x="241" y="247" type="line"/>
			<point x="217" y="227" type="line"/>
			<point x="-48" y="0" type="line"/>
			<point x="29" y="0" type="line"/>
			<point x="246" y="186" type="line"/>
			<point x="275" y="210" type="line"/>
			<point x="1410" y="1184" type="line"/>
			<point x="1433" y="1204" type="line"/>
		</contour>
		<contour>
			<point x="228" y="490" type="curve" smooth="yes"/>
			<point x="228" y="905"/>
			<point x="538" y="1423"/>
			<point x="1005" y="1423" type="curve" smooth="yes"/>
			<point x="1275" y="1423"/>
			<point x="1421" y="1257"/>
			<point x="1421" y="940" type="curve" smooth="yes"/>
			<point x="1421" y="525"/>
			<point x="1111" y="7"/>
			<point x="644" y="7" type="curve" smooth="yes"/>
			<point x="374" y="7"/>
			<point x="228" y="173"/>
		</contour>
		<contour>
			<point x="1499" y="915" type="curve" smooth="yes"/>
			<point x="1499" y="1238"/>
			<point x="1345" y="1450"/>
			<point x="1001" y="1450" type="curve" smooth="yes"/>
			<point x="508" y="1450"/>
			<point x="150" y="958"/>
			<point x="150" y="515" type="curve" smooth="yes"/>
			<point x="150" y="192"/>
			<point x="304" y="-20"/>
			<point x="648" y="-20" type="curve" smooth="yes"/>
			<point x="1141" y="-20"/>
			<point x="1499" y="472"/>
		</contour>
	</outline>
	<anchor name="UCtop" x="1043" y="1430"/>
	<anchor name="bottom" x="605" y="0"/>
</glyph>
<glyph name="Thorn" format="2">
  <advance width="1145"/>
  <unicode hex="00DE"/>
  <guideline x="1171.0" y="854" angle="174.3739079466704" identifier="rr4B4bzzyn"/>
  <outline>
    <contour>
      <point x="473.0" y="377.0" type="curve" smooth="yes"/>
      <point x="229.0" y="377.0" type="line"/>
      <point x="220.0" y="349.0" type="line"/>
      <point x="516.0" y="349.0" type="line" smooth="yes"/>
      <point x="899.0" y="349.0"/>
      <point x="1139.0" y="531.0"/>
      <point x="1139.0" y="822.0" type="curve" smooth="yes"/>
      <point x="1139.0" y="983.0"/>
      <point x="1025.0" y="1114.0"/>
      <point x="735.0" y="1114.0" type="curve" smooth="yes"/>
      <point x="464.0" y="1114.0" type="line"/>
      <point x="445.0" y="1086.0" type="line"/>
      <point x="689.0" y="1086.0" type="line" smooth="yes"/>
      <point x="945.0" y="1086.0"/>
      <point x="1061.0" y="991.0"/>
      <point x="1061.0" y="829.0" type="curve" smooth="yes"/>
      <point x="1061.0" y="559.0"/>
      <point x="881.0" y="377.0"/>
    </contour>
    <contour>
      <point x="510.0" y="1394.0" type="line"/>
      <point x="96.0" y="36.0" type="line"/>
      <point x="-83.0" y="12.0" type="line"/>
      <point x="-86.0" y="0.0" type="line"/>
      <point x="339.0" y="0.0" type="line"/>
      <point x="343.0" y="12.0" type="line"/>
      <point x="172.0" y="36.0" type="line"/>
      <point x="587.0" y="1394.0" type="line"/>
      <point x="765.0" y="1418.0" type="line"/>
      <point x="769.0" y="1430.0" type="line"/>
      <point x="343.0" y="1430.0" type="line"/>
      <point x="339.0" y="1418.0" type="line"/>
    </contour>
  </outline>
</glyph>
<glyph name="ae" format="2">
	<unicode hex="00E6"/>
	<advance width="1369"/>
	<outline>
		<contour>
			<point x="819" y="750" type="line"/>
			<point x="911" y="1024" type="line"/>
			<point x="841" y="1024" type="line"/>
			<point x="808" y="926" type="line"/>
			<point x="661" y="484" type="line"/>
			<point x="346" y="68"/>
			<point x="265" y="39"/>
			<point x="174" y="39" type="curve" smooth="yes"/>
			<point x="105" y="39"/>
			<point x="75" y="88"/>
			<point x="75" y="167" type="curve" smooth="yes"/>
			<point x="75" y="424"/>
			<point x="381" y="1014"/>
			<point x="642" y="1014" type="curve" smooth="yes"/>
			<point x="705" y="1014"/>
			<point x="763" y="990"/>
			<point x="808" y="907" type="curve"/>
			<point x="820" y="920" type="line"/>
			<point x="776" y="1006"/>
			<point x="720" y="1044"/>
			<point x="639" y="1044" type="curve" smooth="yes"/>
			<point x="356" y="1044"/>
			<point x="-4" y="480"/>
			<point x="-4" y="137" type="curve" smooth="yes"/>
			<point x="-4" y="45"/>
			<point x="45" y="-20"/>
			<point x="157" y="-20" type="curve" smooth="yes"/>
			<point x="257.1431411531" y="-20"/>
			<point x="353" y="39"/>
			<point x="671" y="471" type="curve"/>
			<point x="661" y="471" type="line"/>
			<point x="605" y="124"/>
			<point x="674" y="-20"/>
			<point x="882" y="-20" type="curve" smooth="yes"/>
			<point x="1016" y="-20"/>
			<point x="1136" y="55"/>
			<point x="1272" y="395" type="curve"/>
			<point x="1263" y="398" type="line"/>
			<point x="1108" y="87"/>
			<point x="997" y="43"/>
			<point x="893" y="43" type="curve" smooth="yes"/>
			<point x="779" y="43"/>
			<point x="719" y="105"/>
			<point x="719" y="292" type="curve" smooth="yes"/>
			<point x="719" y="692"/>
			<point x="961" y="1016"/>
			<point x="1195" y="1016" type="curve" smooth="yes"/>
			<point x="1317" y="1016"/>
			<point x="1346" y="907"/>
			<point x="1284" y="804" type="curve"/>
			<point x="1222" y="751"/>
			<point x="1061" y="666"/>
			<point x="722" y="544" type="curve"/>
			<point x="725" y="530" type="line"/>
			<point x="924" y="588"/>
			<point x="1215" y="703"/>
			<point x="1343" y="773" type="curve"/>
			<point x="1386" y="827"/>
			<point x="1394" y="881"/>
			<point x="1392" y="924" type="curve" smooth="yes"/>
			<point x="1389" y="991"/>
			<point x="1338" y="1044"/>
			<point x="1230" y="1044" type="curve" smooth="yes"/>
			<point x="1065.8056265985" y="1044"/>
			<point x="911" y="939"/>
			<point x="802" y="750" type="curve"/>
		</contour>
	</outline>
	<anchor name="top" x="859" y="1024"/>
	<anchor name="bottom" x="516" y="0"/>
</glyph>
<glyph name="ccedilla" format="2">
	<unicode hex="00E7"/>
	<advance width="752"/>
	<outline>
		<contour>
			<point x="100" y="-465" type="curve" smooth="yes"/>
			<point x="237" y="-465"/>
			<point x="335" y="-381"/>
			<point x="335" y="-278" type="curve" smooth="yes"/>
			<point x="335" y="-227"/>
			<point x="302" y="-176"/>
			<point x="188" y="-134" type="curve"/>
			<point x="188" y="-151" type="line"/>
			<point x="324" y="0" type="line"/>
			<point x="297" y="0" type="line"/>
			<point x="132" y="-177" type="line"/>
			<point x="132" y="-181" type="line"/>
			<point x="246" y="-219"/>
			<point x="284" y="-262"/>
			<point x="284" y="-310" type="curve" smooth="yes"/>
			<point x="284" y="-377"/>
			<point x="223" y="-434"/>
			<point x="153" y="-434" type="curve" smooth="yes"/>
			<point x="80" y="-434"/>
			<point x="62" y="-373"/>
			<point x="47" y="-373" type="curve" smooth="yes"/>
			<point x="23" y="-373"/>
			<point x="7" y="-391"/>
			<point x="7" y="-412" type="curve" smooth="yes"/>
			<point x="7" y="-441"/>
			<point x="31" y="-465"/>
		</contour>
		<contour>
			<point x="596" y="1019" type="curve" smooth="yes"/>
			<point x="654" y="1019"/>
			<point x="669" y="995"/>
			<point x="663" y="941" type="curve" smooth="yes"/>
			<point x="657" y="887"/>
			<point x="666" y="870"/>
			<point x="703" y="870" type="curve" smooth="yes"/>
			<point x="739" y="870"/>
			<point x="779" y="906"/>
			<point x="779" y="953" type="curve" smooth="yes"/>
			<point x="779" y="1003"/>
			<point x="737" y="1044"/>
			<point x="628" y="1044" type="curve" smooth="yes"/>
			<point x="310" y="1044"/>
			<point x="44" y="629"/>
			<point x="44" y="246" type="curve" smooth="yes"/>
			<point x="44" y="55"/>
			<point x="135" y="-20"/>
			<point x="281" y="-20" type="curve" smooth="yes"/>
			<point x="430" y="-20"/>
			<point x="533" y="55"/>
			<point x="669" y="395" type="curve"/>
			<point x="660" y="398" type="line"/>
			<point x="512" y="104"/>
			<point x="426" y="46"/>
			<point x="302" y="46" type="curve" smooth="yes"/>
			<point x="183" y="46"/>
			<point x="122" y="102"/>
			<point x="122" y="294" type="curve" smooth="yes"/>
			<point x="122" y="644"/>
			<point x="358" y="1019"/>
		</contour>
	</outline>
</glyph>
<glyph name="eth" format="2">
	<unicode hex="00F0"/>
	<advance width="882"/>
	<outline>
		<contour>
			<point x="769" y="823" type="line"/>
			<point x="768" y="926"/>
			<point x="717" y="1012"/>
			<point x="606" y="1012" type="curve" smooth="yes"/>
			<point x="311" y="1012"/>
			<point x="45" y="648"/>
			<point x="45" y="262" type="curve" smooth="yes"/>
			<point x="45" y="75"/>
			<point x="120" y="-20"/>
			<point x="263" y="-20" type="curve" smooth="yes"/>
			<point x="578" y="-20"/>
			<point x="847" y="390"/>
			<point x="847" y="866" type="curve" smooth="yes"/>
			<point x="847" y="1114"/>
			<point x="754" y="1383"/>
			<point x="351" y="1477" type="curve"/>
			<point x="342" y="1455" type="line"/>
			<point x="684" y="1356"/>
			<point x="785" y="1151"/>
			<point x="762" y="829" type="curve"/>
		</contour>
		<contour>
			<point x="263" y="2" type="curve" smooth="yes"/>
			<point x="166" y="2"/>
			<point x="120" y="71"/>
			<point x="120" y="234" type="curve" smooth="yes"/>
			<point x="120" y="590"/>
			<point x="361" y="990"/>
			<point x="606" y="990" type="curve" smooth="yes"/>
			<point x="703" y="990"/>
			<point x="749" y="921"/>
			<point x="749" y="758" type="curve" smooth="yes"/>
			<point x="749" y="402"/>
			<point x="508" y="2"/>
		</contour>
		<contour>
			<point x="430" y="1098" type="line"/>
			<point x="913" y="1443" type="line"/>
			<point x="883" y="1484" type="line"/>
			<point x="400" y="1139" type="line"/>
		</contour>
	</outline>
</glyph>
<glyph name="divide" format="2">
	<unicode hex="00F7"/>
	<advance width="1150"/>
	<outline>
		<contour>
			<point x="171" y="534" type="line"/>
			<point x="157" y="490" type="line"/>
			<point x="979" y="490" type="line"/>
			<point x="993" y="534" type="line"/>
		</contour>
		<contour>
			<point x="684" y="955" type="curve" smooth="yes"/>
			<point x="636" y="955"/>
			<point x="599" y="917"/>
			<point x="599" y="870" type="curve" smooth="yes"/>
			<point x="599" y="823"/>
			<point x="636" y="786"/>
			<point x="684" y="786" type="curve" smooth="yes"/>
			<point x="732" y="786"/>
			<point x="769" y="823"/>
			<point x="769" y="870" type="curve" smooth="yes"/>
			<point x="769" y="917"/>
			<point x="732" y="955"/>
		</contour>
		<contour>
			<point x="466" y="239" type="curve" smooth="yes"/>
			<point x="418" y="239"/>
			<point x="381" y="201"/>
			<point x="381" y="154" type="curve" smooth="yes"/>
			<point x="381" y="107"/>
			<point x="418" y="70"/>
			<point x="466" y="70" type="curve" smooth="yes"/>
			<point x="514" y="70"/>
			<point x="551" y="107"/>
			<point x="551" y="154" type="curve" smooth="yes"/>
			<point x="551" y="201"/>
			<point x="514" y="239"/>
		</contour>
	</outline>
</glyph>
<glyph name="oslash" format="2">
	<unicode hex="00F8"/>
	<advance width="907"/>
	<outline>
		<contour>
			<point x="625" y="1044" type="curve" smooth="yes"/>
			<point x="330" y="1044"/>
			<point x="64" y="668"/>
			<point x="64" y="271" type="curve" smooth="yes"/>
			<point x="64" y="78"/>
			<point x="139" y="-20"/>
			<point x="282" y="-20" type="curve" smooth="yes"/>
			<point x="577" y="-20"/>
			<point x="843" y="356"/>
			<point x="843" y="753" type="curve" smooth="yes"/>
			<point x="843" y="946"/>
			<point x="768" y="1044"/>
		</contour>
		<contour>
			<point x="282" y="2" type="curve" smooth="yes"/>
			<point x="185" y="2"/>
			<point x="139" y="74"/>
			<point x="139" y="242" type="curve" smooth="yes"/>
			<point x="139" y="609"/>
			<point x="380" y="1022"/>
			<point x="625" y="1022" type="curve" smooth="yes"/>
			<point x="722" y="1022"/>
			<point x="768" y="950"/>
			<point x="768" y="782" type="curve" smooth="yes"/>
			<point x="768" y="415"/>
			<point x="527" y="2"/>
		</contour>
		<contour>
			<point x="895" y="1024" type="line"/>
			<point x="787" y="910" type="line"/>
			<point x="774" y="896" type="line"/>
			<point x="101" y="172" type="line"/>
			<point x="90" y="159" type="line"/>
			<point x="-61" y="0" type="line"/>
			<point x="11" y="0" type="line"/>
			<point x="120" y="114" type="line"/>
			<point x="132" y="127" type="line"/>
			<point x="804" y="851" type="line"/>
			<point x="819" y="867" type="line"/>
			<point x="967" y="1024" type="line"/>
		</contour>
	</outline>
	<anchor name="top" x="590" y="1024"/>
	<anchor name="bottom" x="296" y="0"/>
</glyph>
<glyph name="thorn" format="2">
	<unicode hex="00FE"/>
	<advance width="872"/>
	<outline>
		<contour>
			<point x="137" y="246" type="curve" smooth="yes"/>
			<point x="231" y="549" type="line"/>
			<point x="352" y="790"/>
			<point x="519" y="984"/>
			<point x="658" y="984" type="curve" smooth="yes"/>
			<point x="734" y="984"/>
			<point x="775" y="939"/>
			<point x="775" y="817" type="curve" smooth="yes"/>
			<point x="775" y="462"/>
			<point x="483" y="5"/>
			<point x="263" y="5" type="curve" smooth="yes"/>
			<point x="161" y="5"/>
			<point x="124" y="68"/>
			<point x="124" y="164" type="curve" smooth="yes"/>
			<point x="124" y="189"/>
			<point x="128" y="217"/>
		</contour>
		<contour>
			<point x="238" y="578" type="line"/>
			<point x="522" y="1484" type="line"/>
			<point x="509" y="1484" type="line"/>
			<point x="244" y="1436" type="line"/>
			<point x="239" y="1422" type="line"/>
			<point x="296" y="1412.1405405405"/>
			<point x="388" y="1396.227027027"/>
			<point x="424" y="1390" type="curve"/>
			<point x="-138" y="-417" type="line"/>
			<point x="-276" y="-435" type="line"/>
			<point x="-281" y="-445" type="line"/>
			<point x="83" y="-445" type="line"/>
			<point x="87" y="-435" type="line"/>
			<point x="-69" y="-417" type="line"/>
			<point x="98" y="119" type="line"/>
			<point x="63" y="132" type="line"/>
			<point x="74" y="47"/>
			<point x="140" y="-20"/>
			<point x="253" y="-20" type="curve" smooth="yes"/>
			<point x="534" y="-20"/>
			<point x="857" y="480"/>
			<point x="857" y="841" type="curve" smooth="yes"/>
			<point x="857" y="989"/>
			<point x="794" y="1043"/>
			<point x="697" y="1043" type="curve" smooth="yes"/>
			<point x="558" y="1043"/>
			<point x="389" y="883"/>
			<point x="224" y="578" type="curve"/>
		</contour>
	</outline>
</glyph>
<glyph name="Aogonek" format="2">
  <advance width="1359"/>
  <unicode hex="0104"/>
  <outline>
    <contour>
      <point x="411.0" y="591.0" type="line"/>
      <point x="989.0" y="591.0" type="line"/>
      <point x="998.0" y="619.0" type="line"/>
      <point x="420.0" y="619.0" type="line"/>
    </contour>
    <contour>
      <point x="1067.0" y="38.0" type="line"/>
      <point x="973.0" y="1450.0" type="line"/>
      <point x="951.0" y="1450.0" type="line"/>
      <point x="28.0" y="38.0" type="line"/>
      <point x="-152.0" y="12.0" type="line"/>
      <point x="-155.0" y="0.0" type="line"/>
      <point x="230.0" y="0.0" type="line"/>
      <point x="233.0" y="12.0" type="line"/>
      <point x="64.0" y="38.0" type="line"/>
      <point x="917.0" y="1349.0" type="line"/>
      <point x="905.0" y="1349.0" type="line"/>
      <point x="992.0" y="38.0" type="line"/>
      <point x="813.0" y="12.0" type="line"/>
      <point x="809.0" y="0.0" type="line"/>
      <point x="1233.0" y="0.0" type="line"/>
      <point x="1236.0" y="12.0" type="line"/>
    </contour>
    <contour>
      <point x="860.0" y="-347.0" type="curve" smooth="yes"/>
      <point x="860.0" y="-299.0"/>
      <point x="882.0" y="-230.0"/>
      <point x="983.0" y="-80.0" type="curve" smooth="yes"/>
      <point x="1046.0" y="13.0" type="line"/>
      <point x="1026.0" y="13.0" type="line"/>
      <point x="926.0" y="-122.0" type="line" smooth="yes"/>
      <point x="830.0" y="-252.0"/>
      <point x="799.0" y="-309.0"/>
      <point x="799.0" y="-364.0" type="curve" smooth="yes"/>
      <point x="799.0" y="-422.0"/>
      <point x="835.0" y="-465.0"/>
      <point x="910.0" y="-465.0" type="curve" smooth="yes"/>
      <point x="970.0" y="-465.0"/>
      <point x="1010.0" y="-434.0"/>
      <point x="1068.0" y="-359.0" type="curve"/>
      <point x="1060.0" y="-351.0" type="line"/>
      <point x="1017.0" y="-395.0"/>
      <point x="977.0" y="-414.0"/>
      <point x="939.0" y="-414.0" type="curve" smooth="yes"/>
      <point x="881.0" y="-414.0"/>
      <point x="860.0" y="-388.0"/>
    </contour>
  </outline>
</glyph>
<glyph name="aogonek" format="2">
	<unicode hex="0105"/>
	<advance width="938"/>
	<outline>
		<contour>
			<point x="903" y="281" type="curve"/>
			<point x="896" y="286" type="line"/>
			<point x="721" y="74"/>
			<point x="608" y="32"/>
			<point x="539" y="51" type="curve"/>
			<point x="568" y="6" type="line"/>
			<point x="911" y="1024" type="line"/>
			<point x="841" y="1024" type="line"/>
			<point x="808" y="926" type="line"/>
			<point x="661" y="484" type="line"/>
			<point x="346" y="68"/>
			<point x="265" y="39"/>
			<point x="174" y="39" type="curve" smooth="yes"/>
			<point x="105" y="39"/>
			<point x="75" y="88"/>
			<point x="75" y="167" type="curve" smooth="yes"/>
			<point x="75" y="424"/>
			<point x="381" y="1014"/>
			<point x="642" y="1014" type="curve" smooth="yes"/>
			<point x="705" y="1014"/>
			<point x="763" y="990"/>
			<point x="808" y="907" type="curve"/>
			<point x="820" y="920" type="line"/>
			<point x="776" y="1006"/>
			<point x="720" y="1044"/>
			<point x="639" y="1044" type="curve" smooth="yes"/>
			<point x="356" y="1044"/>
			<point x="-4" y="480"/>
			<point x="-4" y="137" type="curve" smooth="yes"/>
			<point x="-4" y="45"/>
			<point x="45" y="-20"/>
			<point x="157" y="-20" type="curve" smooth="yes"/>
			<point x="255" y="-20"/>
			<point x="351" y="37"/>
			<point x="660" y="456" type="curve"/>
			<point x="651" y="456" type="line"/>
			<point x="524" y="82" type="line" smooth="yes"/>
			<point x="494" y="-6"/>
			<point x="505" y="-20"/>
			<point x="551" y="-20" type="curve" smooth="yes"/>
			<point x="596" y="-20"/>
			<point x="644" y="-2"/>
			<point x="698" y="39" type="curve"/>
			<point x="694" y="44" type="line"/>
			<point x="572" y="-84" type="line" smooth="yes"/>
			<point x="425" y="-239"/>
			<point x="394" y="-309"/>
			<point x="394" y="-364" type="curve" smooth="yes"/>
			<point x="394" y="-422"/>
			<point x="430" y="-465"/>
			<point x="505" y="-465" type="curve" smooth="yes"/>
			<point x="565" y="-465"/>
			<point x="605" y="-434"/>
			<point x="663" y="-359" type="curve"/>
			<point x="655" y="-351" type="line"/>
			<point x="612" y="-395"/>
			<point x="572" y="-414"/>
			<point x="534" y="-414" type="curve" smooth="yes"/>
			<point x="476" y="-414"/>
			<point x="455" y="-388"/>
			<point x="455" y="-347" type="curve" smooth="yes"/>
			<point x="455" y="-299"/>
			<point x="470" y="-230"/>
			<point x="638" y="-42" type="curve" smooth="yes"/>
			<point x="763" y="98" type="line" smooth="yes"/>
			<point x="805" y="145"/>
			<point x="852" y="204"/>
		</contour>
	</outline>
</glyph>
<glyph name="Dcroat" format="2">
	<unicode hex="0110"/>
	<advance width="1437"/>
	<outline>
		<contour>
			<point x="138" y="721" type="line"/>
			<point x="741" y="721" type="line"/>
			<point x="757" y="773" type="line"/>
			<point x="154" y="773" type="line"/>
		</contour>
		<contour>
			<point x="405" y="28" type="curve" smooth="yes"/>
			<point x="99" y="28" type="line"/>
			<point x="109" y="0" type="line"/>
			<point x="450" y="0" type="line" smooth="yes"/>
			<point x="1060" y="0"/>
			<point x="1415" y="407"/>
			<point x="1415" y="911" type="curve" smooth="yes"/>
			<point x="1415" y="1231"/>
			<point x="1182" y="1430"/>
			<point x="782" y="1430" type="curve" smooth="yes"/>
			<point x="546" y="1430" type="line"/>
			<point x="518" y="1402" type="line"/>
			<point x="754" y="1402" type="line" smooth="yes"/>
			<point x="1123" y="1402"/>
			<point x="1335" y="1226"/>
			<point x="1335" y="904" type="curve" smooth="yes"/>
			<point x="1335" y="441"/>
			<point x="1039" y="28"/>
		</contour>
		<contour>
			<point x="513" y="1394" type="line"/>
			<point x="99" y="36" type="line"/>
			<point x="-80" y="12" type="line"/>
			<point x="-83" y="0" type="line"/>
			<point x="164" y="0" type="line"/>
			<point x="601" y="1430" type="line"/>
			<point x="346" y="1430" type="line"/>
			<point x="342" y="1418" type="line"/>
		</contour>
	</outline>
</glyph>
<glyph name="dcroat" format="2">
	<unicode hex="0111"/>
	<advance width="945"/>
	<outline>
		<contour>
			<point x="808" y="907" type="curve"/>
			<point x="820" y="920" type="line"/>
			<point x="776" y="1006"/>
			<point x="720" y="1044"/>
			<point x="639" y="1044" type="curve" smooth="yes"/>
			<point x="356" y="1044"/>
			<point x="-4" y="480"/>
			<point x="-4" y="137" type="curve" smooth="yes"/>
			<point x="-4" y="45"/>
			<point x="45" y="-20"/>
			<point x="157" y="-20" type="curve" smooth="yes"/>
			<point x="255" y="-20"/>
			<point x="351" y="37"/>
			<point x="660" y="456" type="curve"/>
			<point x="651" y="456" type="line"/>
			<point x="537" y="82" type="line" smooth="yes"/>
			<point x="510" y="-7"/>
			<point x="527" y="-20"/>
			<point x="573" y="-20" type="curve" smooth="yes"/>
			<point x="670" y="-20"/>
			<point x="777" y="59"/>
			<point x="925" y="281" type="curve"/>
			<point x="918" y="286" type="line"/>
			<point x="743" y="74"/>
			<point x="630" y="32"/>
			<point x="561" y="51" type="curve"/>
			<point x="584" y="-1" type="line"/>
			<point x="1039" y="1484" type="line"/>
			<point x="1026" y="1484" type="line"/>
			<point x="762" y="1436" type="line"/>
			<point x="757" y="1422" type="line"/>
			<point x="814" y="1412.0869565217"/>
			<point x="905" y="1396.2608695652"/>
			<point x="941" y="1390" type="curve"/>
			<point x="661" y="484" type="line"/>
			<point x="346" y="68"/>
			<point x="265" y="39"/>
			<point x="174" y="39" type="curve" smooth="yes"/>
			<point x="105" y="39"/>
			<point x="75" y="88"/>
			<point x="75" y="167" type="curve" smooth="yes"/>
			<point x="75" y="424"/>
			<point x="381" y="1014"/>
			<point x="642" y="1014" type="curve" smooth="yes"/>
			<point x="705" y="1014"/>
			<point x="763" y="990"/>
		</contour>
		<contour>
			<point x="574" y="1185" type="line"/>
			<point x="1119" y="1185" type="line"/>
			<point x="1135" y="1237" type="line"/>
			<point x="590" y="1237" type="line"/>
		</contour>
	</outline>
</glyph>
<glyph name="Eogonek" format="2">
	<unicode hex="0118"/>
	<advance width="1219"/>
	<outline>
		<contour>
			<point x="510" y="1394" type="line"/>
			<point x="96" y="36" type="line"/>
			<point x="-83" y="12" type="line"/>
			<point x="-86" y="0" type="line"/>
			<point x="161" y="0" type="line"/>
			<point x="598" y="1430" type="line"/>
			<point x="343" y="1430" type="line"/>
			<point x="339" y="1418" type="line"/>
		</contour>
		<contour>
			<point x="817" y="463" type="line"/>
			<point x="826" y="463" type="line"/>
			<point x="880" y="748" type="line"/>
			<point x="1001" y="1034" type="line"/>
			<point x="991" y="1034" type="line"/>
			<point x="833" y="772" type="line"/>
			<point x="372" y="760" type="line"/>
			<point x="364" y="738" type="line"/>
			<point x="823" y="728" type="line"/>
		</contour>
		<contour>
			<point x="1259" y="1074" type="line"/>
			<point x="1303" y="1473" type="line"/>
			<point x="1299" y="1473" type="line"/>
			<point x="1224" y="1430" type="line"/>
			<point x="523" y="1430" type="line"/>
			<point x="514" y="1402" type="line"/>
			<point x="1259" y="1402" type="line"/>
			<point x="1214" y="1415" type="line"/>
			<point x="1245" y="1074" type="line"/>
		</contour>
		<contour>
			<point x="905" y="-49" type="line"/>
			<point x="911" y="-49" type="line"/>
			<point x="1139" y="368" type="line"/>
			<point x="1128" y="375" type="line"/>
			<point x="851" y="17" type="line"/>
			<point x="901" y="28" type="line"/>
			<point x="95" y="28" type="line"/>
			<point x="86" y="0" type="line"/>
			<point x="859" y="0" type="line"/>
		</contour>
		<contour>
			<point x="630" y="-347" type="curve" smooth="yes"/>
			<point x="630" y="-299"/>
			<point x="656" y="-233"/>
			<point x="789" y="-82" type="curve" smooth="yes"/>
			<point x="868" y="8" type="line"/>
			<point x="848" y="8" type="line"/>
			<point x="723" y="-124" type="line" smooth="yes"/>
			<point x="598" y="-255"/>
			<point x="569" y="-309"/>
			<point x="569" y="-364" type="curve" smooth="yes"/>
			<point x="569" y="-422"/>
			<point x="605" y="-465"/>
			<point x="680" y="-465" type="curve" smooth="yes"/>
			<point x="740" y="-465"/>
			<point x="780" y="-434"/>
			<point x="838" y="-359" type="curve"/>
			<point x="830" y="-351" type="line"/>
			<point x="787" y="-395"/>
			<point x="747" y="-414"/>
			<point x="709" y="-414" type="curve" smooth="yes"/>
			<point x="651" y="-414"/>
			<point x="630" y="-388"/>
		</contour>
	</outline>
</glyph>
<glyph name="Hbar" format="2">
	<unicode hex="0126"/>
	<advance width="1478"/>
	<outline>
		<contour>
			<point x="326" y="729" type="line"/>
			<point x="1283" y="729" type="line"/>
			<point x="1292" y="757" type="line"/>
			<point x="335" y="757" type="line"/>
		</contour>
		<contour>
			<point x="236" y="1061" type="line"/>
			<point x="1575" y="1061" type="line"/>
			<point x="1591" y="1113" type="line"/>
			<point x="252" y="1113" type="line"/>
		</contour>
		<contour>
			<point x="513" y="1394" type="line"/>
			<point x="99" y="36" type="line"/>
			<point x="-80" y="12" type="line"/>
			<point x="-83" y="0" type="line"/>
			<point x="342" y="0" type="line"/>
			<point x="346" y="12" type="line"/>
			<point x="175" y="36" type="line"/>
			<point x="590" y="1394" type="line"/>
			<point x="768" y="1418" type="line"/>
			<point x="772" y="1430" type="line"/>
			<point x="346" y="1430" type="line"/>
			<point x="342" y="1418" type="line"/>
		</contour>
		<contour>
			<point x="1426" y="1394" type="line"/>
			<point x="1012" y="36" type="line"/>
			<point x="833" y="12" type="line"/>
			<point x="830" y="0" type="line"/>
			<point x="1255" y="0" type="line"/>
			<point x="1259" y="12" type="line"/>
			<point x="1088" y="36" type="line"/>
			<point x="1503" y="1394" type="line"/>
			<point x="1681" y="1418" type="line"/>
			<point x="1685" y="1430" type="line"/>
			<point x="1259" y="1430" type="line"/>
			<point x="1255" y="1418" type="line"/>
		</contour>
	</outline>
</glyph>
<glyph name="Iogonek" format="2">
	<unicode hex="012E"/>
	<advance width="561"/>
	<outline>
		<contour>
			<point x="510" y="1394" type="line"/>
			<point x="96" y="36" type="line"/>
			<point x="-83" y="12" type="line"/>
			<point x="-86" y="0" type="line"/>
			<point x="339" y="0" type="line"/>
			<point x="343" y="12" type="line"/>
			<point x="172" y="36" type="line"/>
			<point x="587" y="1394" type="line"/>
			<point x="765" y="1418" type="line"/>
			<point x="769" y="1430" type="line"/>
			<point x="343" y="1430" type="line"/>
			<point x="339" y="1418" type="line"/>
		</contour>
		<contour>
			<point x="-74" y="-347" type="curve" smooth="yes"/>
			<point x="-74" y="-299"/>
			<point x="-51" y="-234"/>
			<point x="69" y="-82" type="curve" smooth="yes"/>
			<point x="140" y="8" type="line"/>
			<point x="120" y="8" type="line"/>
			<point x="6" y="-124" type="line" smooth="yes"/>
			<point x="-109" y="-255"/>
			<point x="-135" y="-309"/>
			<point x="-135" y="-364" type="curve" smooth="yes"/>
			<point x="-135" y="-422"/>
			<point x="-99" y="-465"/>
			<point x="-24" y="-465" type="curve" smooth="yes"/>
			<point x="36" y="-465"/>
			<point x="76" y="-434"/>
			<point x="134" y="-359" type="curve"/>
			<point x="126" y="-351" type="line"/>
			<point x="83" y="-395"/>
			<point x="43" y="-414"/>
			<point x="5" y="-414" type="curve" smooth="yes"/>
			<point x="-53" y="-414"/>
			<point x="-74" y="-388"/>
		</contour>
	</outline>
</glyph>
<glyph name="iogonek" format="2">
	<unicode hex="012F"/>
	<advance width="529"/>
	<outline>
		<contour>
			<point x="466" y="1409" type="curve" smooth="yes"/>
			<point x="466" y="1372"/>
			<point x="492" y="1338"/>
			<point x="537" y="1338" type="curve" smooth="yes"/>
			<point x="582" y="1338"/>
			<point x="608" y="1372"/>
			<point x="608" y="1409" type="curve" smooth="yes"/>
			<point x="608" y="1446"/>
			<point x="582" y="1480"/>
			<point x="537" y="1480" type="curve" smooth="yes"/>
			<point x="492" y="1480"/>
			<point x="466" y="1446"/>
		</contour>
		<contour>
			<point x="285" y="60" type="line" smooth="yes"/>
			<point x="351" y="122"/>
			<point x="400" y="181"/>
			<point x="478" y="290" type="curve"/>
			<point x="471" y="295" type="line"/>
			<point x="294" y="81"/>
			<point x="156" y="26"/>
			<point x="98" y="49" type="curve"/>
			<point x="124" y="6" type="line"/>
			<point x="465" y="983" type="line" smooth="yes"/>
			<point x="480" y="1027"/>
			<point x="467" y="1044"/>
			<point x="427" y="1044" type="curve" smooth="yes"/>
			<point x="330" y="1044"/>
			<point x="214" y="965"/>
			<point x="65" y="732" type="curve"/>
			<point x="72" y="726" type="line"/>
			<point x="257" y="953"/>
			<point x="380" y="1001"/>
			<point x="438" y="978" type="curve"/>
			<point x="410" y="1027" type="line"/>
			<point x="83" y="74" type="line" smooth="yes"/>
			<point x="63" y="15"/>
			<point x="55" y="-20"/>
			<point x="111" y="-20" type="curve" smooth="yes"/>
			<point x="149" y="-20"/>
			<point x="187" y="-10"/>
			<point x="231" y="18" type="curve"/>
			<point x="227" y="23" type="line"/>
			<point x="72" y="-117" type="line" smooth="yes"/>
			<point x="-63" y="-239"/>
			<point x="-89" y="-302"/>
			<point x="-89" y="-357" type="curve" smooth="yes"/>
			<point x="-89" y="-421"/>
			<point x="-56" y="-465"/>
			<point x="22" y="-465" type="curve" smooth="yes"/>
			<point x="82" y="-465"/>
			<point x="122" y="-434"/>
			<point x="180" y="-359" type="curve"/>
			<point x="172" y="-351" type="line"/>
			<point x="129" y="-395"/>
			<point x="89" y="-414"/>
			<point x="51" y="-414" type="curve" smooth="yes"/>
			<point x="-7" y="-414"/>
			<point x="-28" y="-379"/>
			<point x="-28" y="-338" type="curve" smooth="yes"/>
			<point x="-28" y="-290"/>
			<point x="-9" y="-221"/>
			<point x="136" y="-82" type="curve" smooth="yes"/>
		</contour>
	</outline>
</glyph>
<glyph name="dotlessi" format="2">
	<unicode hex="0131"/>
	<advance width="529"/>
	<outline>
		<contour>
			<point x="83" y="74" type="line" smooth="yes"/>
			<point x="63" y="15"/>
			<point x="55" y="-20"/>
			<point x="111" y="-20" type="curve" smooth="yes"/>
			<point x="204" y="-20"/>
			<point x="299" y="39"/>
			<point x="478" y="290" type="curve"/>
			<point x="471" y="295" type="line"/>
			<point x="294" y="81"/>
			<point x="156" y="26"/>
			<point x="98" y="49" type="curve"/>
			<point x="124" y="6" type="line"/>
			<point x="465" y="983" type="line" smooth="yes"/>
			<point x="480" y="1027"/>
			<point x="467" y="1044"/>
			<point x="427" y="1044" type="curve" smooth="yes"/>
			<point x="330" y="1044"/>
			<point x="214" y="965"/>
			<point x="65" y="732" type="curve"/>
			<point x="72" y="726" type="line"/>
			<point x="257" y="953"/>
			<point x="380" y="1001"/>
			<point x="438" y="978" type="curve"/>
			<point x="410" y="1027" type="line"/>
		</contour>
	</outline>
	<anchor name="top" x="412" y="1024"/>
	<anchor name="bottom" x="120" y="0"/>
	<anchor name="right" x="241" y="0"/>
</glyph>
<glyph name="kgreenlandic" format="2">
	<unicode hex="0138"/>
	<advance width="965"/>
	<outline>
		<contour>
			<point x="481" y="1015" type="line"/>
			<point x="458" y="1029"/>
			<point x="431" y="1037"/>
			<point x="395" y="1037" type="curve" smooth="yes"/>
			<point x="300" y="1037"/>
			<point x="192" y="969"/>
			<point x="51" y="639" type="curve"/>
			<point x="60" y="635" type="line"/>
			<point x="214" y="929"/>
			<point x="311" y="967"/>
			<point x="352" y="967" type="curve" smooth="yes"/>
			<point x="379" y="967"/>
			<point x="392" y="953"/>
			<point x="378" y="910" type="curve"/>
			<point x="82" y="0" type="line"/>
			<point x="152" y="0" type="line"/>
		</contour>
		<contour>
			<point x="966" y="865" type="curve" smooth="yes"/>
			<point x="1011" y="865"/>
			<point x="1050" y="910"/>
			<point x="1050" y="965" type="curve" smooth="yes"/>
			<point x="1050" y="1011"/>
			<point x="1023" y="1044"/>
			<point x="952" y="1044" type="curve" smooth="yes"/>
			<point x="831" y="1044"/>
			<point x="605" y="923"/>
			<point x="353" y="621" type="curve"/>
			<point x="350" y="612" type="line"/>
			<point x="509" y="65"/>
			<point x="572" y="-20"/>
			<point x="639" y="-20" type="curve" smooth="yes"/>
			<point x="695" y="-20"/>
			<point x="770" y="37"/>
			<point x="911" y="277" type="curve"/>
			<point x="904" y="282" type="line"/>
			<point x="787" y="111"/>
			<point x="711" y="46"/>
			<point x="666" y="46" type="curve" smooth="yes"/>
			<point x="625" y="46"/>
			<point x="546" y="180"/>
			<point x="403" y="673" type="curve"/>
			<point x="376" y="620" type="line"/>
			<point x="590" y="869"/>
			<point x="795" y="983"/>
			<point x="890" y="983" type="curve" smooth="yes"/>
			<point x="912" y="983"/>
			<point x="919" y="972"/>
			<point x="917" y="928" type="curve" smooth="yes"/>
			<point x="915" y="884"/>
			<point x="928" y="865"/>
		</contour>
	</outline>
</glyph>
<glyph name="Lslash" format="2">
	<unicode hex="0141"/>
	<advance width="1145"/>
	<outline>
		<contour>
			<point x="618" y="1394" type="line"/>
			<point x="796" y="1418" type="line"/>
			<point x="800" y="1430" type="line"/>
			<point x="374" y="1430" type="line"/>
			<point x="370" y="1418" type="line"/>
			<point x="541" y="1394" type="line"/>
			<point x="127" y="36" type="line"/>
			<point x="-52" y="12" type="line"/>
			<point x="-55" y="0" type="line"/>
			<point x="192" y="0" type="line"/>
		</contour>
		<contour>
			<point x="791" y="17" type="line"/>
			<point x="841" y="28" type="line"/>
			<point x="165" y="28" type="line"/>
			<point x="156" y="0" type="line"/>
			<point x="799" y="0" type="line"/>
			<point x="845" y="-49" type="line"/>
			<point x="851" y="-49" type="line"/>
			<point x="1079" y="368" type="line"/>
			<point x="1068" y="375" type="line"/>
		</contour>
		<contour>
			<point x="796" y="917" type="line"/>
			<point x="377" y="719" type="line"/>
			<point x="345" y="712" type="line"/>
			<point x="112" y="603" type="line"/>
			<point x="93" y="539" type="line"/>
			<point x="326" y="648" type="line"/>
			<point x="357" y="655" type="line"/>
			<point x="776" y="853" type="line"/>
		</contour>
	</outline>
</glyph>
<glyph name="lslash" format="2">
	<unicode hex="0142"/>
	<advance width="573"/>
	<outline>
		<contour>
			<point x="71" y="580" type="line"/>
			<point x="50" y="511" type="line"/>
			<point x="268" y="643" type="line"/>
			<point x="313" y="657" type="line"/>
			<point x="523" y="785" type="line"/>
			<point x="544" y="854" type="line"/>
			<point x="334" y="726" type="line"/>
			<point x="289" y="712" type="line"/>
		</contour>
		<contour>
			<point x="473" y="1390" type="curve"/>
			<point x="64" y="60" type="line" smooth="yes"/>
			<point x="46" y="1"/>
			<point x="63" y="-20"/>
			<point x="101" y="-20" type="curve" smooth="yes"/>
			<point x="193" y="-20"/>
			<point x="307" y="46"/>
			<point x="477" y="269" type="curve"/>
			<point x="469" y="276" type="line"/>
			<point x="294" y="90"/>
			<point x="145" y="26"/>
			<point x="87" y="49" type="curve"/>
			<point x="117" y="10" type="line"/>
			<point x="571" y="1484" type="line"/>
			<point x="558" y="1484" type="line"/>
			<point x="293" y="1436" type="line"/>
			<point x="288" y="1422" type="line"/>
			<point x="345" y="1412.1405405405"/>
			<point x="437" y="1396.227027027"/>
		</contour>
	</outline>
</glyph>
<glyph name="Eng" format="2">
	<unicode hex="014A"/>
	<advance width="1473"/>
	<outline>
		<contour>
			<point x="1098" y="85" type="line"/>
			<point x="584" y="1430" type="line"/>
			<point x="349" y="1430" type="line"/>
			<point x="345" y="1418" type="line"/>
			<point x="509" y="1391" type="line"/>
			<point x="96" y="36" type="line"/>
			<point x="-82" y="12" type="line"/>
			<point x="-86" y="0" type="line"/>
			<point x="296" y="0" type="line"/>
			<point x="300" y="12" type="line"/>
			<point x="129" y="36" type="line"/>
			<point x="546" y="1404" type="line"/>
			<point x="525" y="1389" type="line"/>
			<point x="1064" y="-20" type="line"/>
		</contour>
		<contour>
			<point x="1082" y="-18" type="curve" smooth="yes"/>
			<point x="1512" y="1394" type="line"/>
			<point x="1690" y="1418" type="line"/>
			<point x="1694" y="1430" type="line"/>
			<point x="1312" y="1430" type="line"/>
			<point x="1308" y="1418" type="line"/>
			<point x="1479" y="1394" type="line"/>
			<point x="1054" y="1" type="line" smooth="yes"/>
			<point x="954" y="-328"/>
			<point x="819" y="-412"/>
			<point x="675" y="-412" type="curve" smooth="yes"/>
			<point x="614" y="-412"/>
			<point x="572" y="-380"/>
			<point x="554" y="-380" type="curve" smooth="yes"/>
			<point x="531" y="-380"/>
			<point x="518" y="-396"/>
			<point x="518" y="-419" type="curve" smooth="yes"/>
			<point x="518" y="-448"/>
			<point x="544" y="-465"/>
			<point x="615" y="-465" type="curve" smooth="yes"/>
			<point x="829" y="-465"/>
			<point x="982" y="-346"/>
		</contour>
	</outline>
</glyph>
<glyph name="eng" format="2">
	<unicode hex="014B"/>
	<advance width="1006"/>
	<outline>
		<contour>
			<point x="309" y="-465" type="curve" smooth="yes"/>
			<point x="449" y="-465"/>
			<point x="592" y="-351"/>
			<point x="727" y="78" type="curve" smooth="yes"/>
			<point x="929" y="715" type="line" smooth="yes"/>
			<point x="961" y="816"/>
			<point x="972" y="860"/>
			<point x="972" y="898" type="curve" smooth="yes"/>
			<point x="972" y="975"/>
			<point x="918" y="1044"/>
			<point x="791" y="1044" type="curve" smooth="yes"/>
			<point x="596" y="1044"/>
			<point x="426" y="802"/>
			<point x="308" y="516" type="curve"/>
			<point x="328" y="553" type="line"/>
			<point x="475" y="1015" type="line"/>
			<point x="452" y="1029"/>
			<point x="432" y="1037"/>
			<point x="396" y="1037" type="curve" smooth="yes"/>
			<point x="301" y="1037"/>
			<point x="193" y="969"/>
			<point x="52" y="639" type="curve"/>
			<point x="61" y="635" type="line"/>
			<point x="215" y="929"/>
			<point x="312" y="967"/>
			<point x="353" y="967" type="curve" smooth="yes"/>
			<point x="380" y="967"/>
			<point x="393" y="953"/>
			<point x="379" y="910" type="curve" smooth="yes"/>
			<point x="76" y="0" type="line"/>
			<point x="146" y="0" type="line"/>
			<point x="319" y="520" type="line"/>
			<point x="412" y="713"/>
			<point x="584" y="983"/>
			<point x="775" y="983" type="curve" smooth="yes"/>
			<point x="861" y="983"/>
			<point x="896" y="935"/>
			<point x="896" y="879" type="curve" smooth="yes"/>
			<point x="896" y="848"/>
			<point x="886" y="799"/>
			<point x="854" y="696" type="curve" smooth="yes"/>
			<point x="634" y="-9" type="line" smooth="yes"/>
			<point x="535" y="-326"/>
			<point x="443" y="-437"/>
			<point x="323" y="-437" type="curve" smooth="yes"/>
			<point x="293" y="-437"/>
			<point x="284" y="-423"/>
			<point x="301" y="-369" type="curve" smooth="yes"/>
			<point x="318" y="-315"/>
			<point x="306" y="-298"/>
			<point x="268" y="-298" type="curve" smooth="yes"/>
			<point x="222" y="-298"/>
			<point x="197" y="-327"/>
			<point x="197" y="-367" type="curve" smooth="yes"/>
			<point x="197" y="-422"/>
			<point x="233" y="-465"/>
		</contour>
	</outline>
</glyph>
<glyph name="OE" format="2">
	<unicode hex="0152"/>
	<advance width="2093"/>
	<outline>
		<contour>
			<point x="1395" y="1430" type="line"/>
			<point x="959" y="0" type="line"/>
			<point x="1035" y="0" type="line"/>
			<point x="1472" y="1430" type="line"/>
		</contour>
		<contour>
			<point x="1110" y="1430" type="line" smooth="yes"/>
			<point x="500" y="1430"/>
			<point x="145" y="1023"/>
			<point x="145" y="519" type="curve" smooth="yes"/>
			<point x="145" y="199"/>
			<point x="378" y="0"/>
			<point x="778" y="0" type="curve" smooth="yes"/>
			<point x="1733" y="0" type="line"/>
			<point x="1779" y="-49" type="line"/>
			<point x="1785" y="-49" type="line"/>
			<point x="2013" y="368" type="line"/>
			<point x="2002" y="375" type="line"/>
			<point x="1725" y="17" type="line"/>
			<point x="1775" y="28" type="line"/>
			<point x="806" y="28" type="line" smooth="yes"/>
			<point x="437" y="28"/>
			<point x="225" y="204"/>
			<point x="225" y="526" type="curve" smooth="yes"/>
			<point x="225" y="989"/>
			<point x="521" y="1402"/>
			<point x="1155" y="1402" type="curve" smooth="yes"/>
			<point x="2133" y="1402" type="line"/>
			<point x="2088" y="1415" type="line"/>
			<point x="2119" y="1074" type="line"/>
			<point x="2133" y="1074" type="line"/>
			<point x="2177" y="1473" type="line"/>
			<point x="2173" y="1473" type="line"/>
			<point x="2098" y="1430" type="line"/>
		</contour>
		<contour>
			<point x="1700" y="463" type="line"/>
			<point x="1754" y="748" type="line"/>
			<point x="1875" y="1034" type="line"/>
			<point x="1865" y="1034" type="line"/>
			<point x="1707" y="772" type="line"/>
			<point x="1246" y="760" type="line"/>
			<point x="1238" y="738" type="line"/>
			<point x="1697" y="728" type="line"/>
			<point x="1691" y="463" type="line"/>
		</contour>
	</outline>
</glyph>
<glyph name="oe" format="2">
	<unicode hex="0153"/>
	<advance width="1413"/>
	<outline>
		<contour>
			<point x="611" y="1044" type="curve" smooth="yes"/>
			<point x="316" y="1044"/>
			<point x="50" y="668"/>
			<point x="50" y="271" type="curve" smooth="yes"/>
			<point x="50" y="78"/>
			<point x="125" y="-20"/>
			<point x="268" y="-20" type="curve" smooth="yes"/>
			<point x="445" y="-20"/>
			<point x="614" y="125"/>
			<point x="719" y="319" type="curve"/>
			<point x="693" y="319" type="line"/>
			<point x="682" y="84"/>
			<point x="764" y="-20"/>
			<point x="926" y="-20" type="curve" smooth="yes"/>
			<point x="1060" y="-20"/>
			<point x="1180" y="55"/>
			<point x="1316" y="395" type="curve"/>
			<point x="1307" y="398" type="line"/>
			<point x="1152" y="87"/>
			<point x="1041" y="43"/>
			<point x="937" y="43" type="curve" smooth="yes"/>
			<point x="823" y="43"/>
			<point x="763" y="105"/>
			<point x="763" y="292" type="curve" smooth="yes"/>
			<point x="763" y="692"/>
			<point x="1005" y="1016"/>
			<point x="1239" y="1016" type="curve" smooth="yes"/>
			<point x="1361" y="1016"/>
			<point x="1390" y="907"/>
			<point x="1328" y="804" type="curve"/>
			<point x="1266" y="751"/>
			<point x="1105" y="666"/>
			<point x="766" y="544" type="curve"/>
			<point x="769" y="530" type="line"/>
			<point x="968" y="588"/>
			<point x="1259" y="703"/>
			<point x="1387" y="773" type="curve"/>
			<point x="1430" y="827"/>
			<point x="1438" y="881"/>
			<point x="1436" y="924" type="curve" smooth="yes"/>
			<point x="1433" y="991"/>
			<point x="1380" y="1044"/>
			<point x="1267" y="1044" type="curve" smooth="yes"/>
			<point x="1076" y="1044"/>
			<point x="890" y="911"/>
			<point x="783" y="704" type="curve"/>
			<point x="817" y="704" type="line"/>
			<point x="829" y="902"/>
			<point x="783" y="1044"/>
		</contour>
		<contour>
			<point x="268" y="2" type="curve" smooth="yes"/>
			<point x="171" y="2"/>
			<point x="125" y="74"/>
			<point x="125" y="242" type="curve" smooth="yes"/>
			<point x="125" y="609"/>
			<point x="366" y="1022"/>
			<point x="611" y="1022" type="curve" smooth="yes"/>
			<point x="708" y="1022"/>
			<point x="754" y="950"/>
			<point x="754" y="782" type="curve" smooth="yes"/>
			<point x="754" y="415"/>
			<point x="513" y="2"/>
		</contour>
	</outline>
	<anchor name="top" x="886" y="1024"/>
	<anchor name="bottom" x="573" y="0"/>
</glyph>
<glyph name="Scedilla" format="2">
	<unicode hex="015E"/>
	<advance width="1001"/>
	<outline>
		<contour>
			<point x="987" y="1311" type="curve"/>
			<point x="955" y="1369" type="line"/>
			<point x="995" y="1030" type="line"/>
			<point x="1011" y="1030" type="line"/>
			<point x="1058" y="1480" type="line"/>
			<point x="1053" y="1480" type="line"/>
			<point x="976" y="1381" type="line"/>
			<point x="1028" y="1369" type="line"/>
			<point x="960" y="1413"/>
			<point x="859" y="1450"/>
			<point x="745" y="1450" type="curve" smooth="yes"/>
			<point x="467" y="1450"/>
			<point x="315" y="1285"/>
			<point x="315" y="1074" type="curve" smooth="yes"/>
			<point x="315" y="912"/>
			<point x="421" y="826"/>
			<point x="543" y="747" type="curve" smooth="yes"/>
			<point x="666" y="668"/>
			<point x="808" y="589"/>
			<point x="808" y="392" type="curve" smooth="yes"/>
			<point x="808" y="148"/>
			<point x="611" y="9"/>
			<point x="342" y="9" type="curve" smooth="yes"/>
			<point x="251" y="9"/>
			<point x="138" y="22"/>
			<point x="59" y="79" type="curve"/>
			<point x="125" y="11" type="line"/>
			<point x="59" y="382" type="line"/>
			<point x="41" y="382" type="line"/>
			<point x="38" y="35" type="line"/>
			<point x="126" y="-2"/>
			<point x="227" y="-20"/>
			<point x="347" y="-20" type="curve" smooth="yes"/>
			<point x="665" y="-20"/>
			<point x="869" y="184"/>
			<point x="869" y="442" type="curve" smooth="yes"/>
			<point x="869" y="629"/>
			<point x="740" y="714"/>
			<point x="616" y="793" type="curve" smooth="yes"/>
			<point x="492" y="872"/>
			<point x="372" y="949"/>
			<point x="372" y="1114" type="curve" smooth="yes"/>
			<point x="372" y="1314"/>
			<point x="527" y="1425"/>
			<point x="721" y="1425" type="curve" smooth="yes"/>
			<point x="822" y="1425"/>
			<point x="921" y="1396"/>
		</contour>
		<contour>
			<point x="244" y="-465" type="curve" smooth="yes"/>
			<point x="381" y="-465"/>
			<point x="479" y="-381"/>
			<point x="479" y="-278" type="curve" smooth="yes"/>
			<point x="479" y="-227"/>
			<point x="446" y="-176"/>
			<point x="332" y="-134" type="curve"/>
			<point x="332" y="-151" type="line"/>
			<point x="468" y="0" type="line"/>
			<point x="441" y="0" type="line"/>
			<point x="276" y="-177" type="line"/>
			<point x="276" y="-181" type="line"/>
			<point x="390" y="-219"/>
			<point x="428" y="-262"/>
			<point x="428" y="-310" type="curve" smooth="yes"/>
			<point x="428" y="-377"/>
			<point x="367" y="-434"/>
			<point x="297" y="-434" type="curve" smooth="yes"/>
			<point x="224" y="-434"/>
			<point x="206" y="-373"/>
			<point x="191" y="-373" type="curve" smooth="yes"/>
			<point x="167" y="-373"/>
			<point x="151" y="-391"/>
			<point x="151" y="-412" type="curve" smooth="yes"/>
			<point x="151" y="-441"/>
			<point x="175" y="-465"/>
		</contour>
	</outline>
</glyph>
<glyph name="uni0162" format="2">
	<unicode hex="0162"/>
	<advance width="1252"/>
	<outline>
		<contour>
			<point x="1403" y="1402" type="line"/>
			<point x="1356" y="1419" type="line"/>
			<point x="1362" y="1050" type="line"/>
			<point x="1380" y="1050" type="line"/>
			<point x="1458" y="1498" type="line"/>
			<point x="1452" y="1498" type="line"/>
			<point x="1354" y="1422" type="line"/>
			<point x="1387" y="1430" type="line"/>
			<point x="414" y="1430" type="line"/>
			<point x="439" y="1422" type="line"/>
			<point x="386" y="1498" type="line"/>
			<point x="381" y="1498" type="line"/>
			<point x="208" y="1053" type="line"/>
			<point x="224" y="1047" type="line"/>
			<point x="444" y="1419" type="line"/>
			<point x="387" y="1402" type="line"/>
		</contour>
		<contour>
			<point x="866" y="1416" type="line"/>
			<point x="445" y="36" type="line"/>
			<point x="266" y="12" type="line"/>
			<point x="263" y="0" type="line"/>
			<point x="688" y="0" type="line"/>
			<point x="692" y="12" type="line"/>
			<point x="521" y="36" type="line"/>
			<point x="943" y="1416" type="line"/>
		</contour>
		<contour>
			<point x="279" y="-465" type="curve" smooth="yes"/>
			<point x="416" y="-465"/>
			<point x="514" y="-381"/>
			<point x="514" y="-278" type="curve" smooth="yes"/>
			<point x="514" y="-227"/>
			<point x="481" y="-176"/>
			<point x="367" y="-134" type="curve"/>
			<point x="367" y="-151" type="line"/>
			<point x="503" y="0" type="line"/>
			<point x="476" y="0" type="line"/>
			<point x="311" y="-177" type="line"/>
			<point x="311" y="-181" type="line"/>
			<point x="425" y="-219"/>
			<point x="463" y="-262"/>
			<point x="463" y="-310" type="curve" smooth="yes"/>
			<point x="463" y="-377"/>
			<point x="402" y="-434"/>
			<point x="332" y="-434" type="curve" smooth="yes"/>
			<point x="259" y="-434"/>
			<point x="241" y="-373"/>
			<point x="226" y="-373" type="curve" smooth="yes"/>
			<point x="202" y="-373"/>
			<point x="186" y="-391"/>
			<point x="186" y="-412" type="curve" smooth="yes"/>
			<point x="186" y="-441"/>
			<point x="210" y="-465"/>
		</contour>
	</outline>
</glyph>
<glyph name="uni0163" format="2">
	<unicode hex="0163"/>
	<advance width="581"/>
	<outline>
		<contour>
			<point x="147" y="997" type="line"/>
			<point x="646" y="997" type="line"/>
			<point x="652" y="1024" type="line"/>
			<point x="159" y="1024" type="line"/>
		</contour>
		<contour>
			<point x="200" y="259" type="curve" smooth="yes"/>
			<point x="524" y="1270" type="line"/>
			<point x="452" y="1270" type="line"/>
			<point x="115" y="219" type="line" smooth="yes"/>
			<point x="99" y="169"/>
			<point x="92" y="128"/>
			<point x="92" y="95" type="curve" smooth="yes"/>
			<point x="92" y="14"/>
			<point x="136" y="-20"/>
			<point x="204" y="-20" type="curve" smooth="yes"/>
			<point x="302" y="-20"/>
			<point x="386" y="48"/>
			<point x="524" y="295" type="curve"/>
			<point x="515" y="300" type="line"/>
			<point x="367" y="66"/>
			<point x="286" y="30"/>
			<point x="230" y="30" type="curve" smooth="yes"/>
			<point x="189" y="30"/>
			<point x="166" y="49"/>
			<point x="166" y="101" type="curve" smooth="yes"/>
			<point x="166" y="137"/>
			<point x="177" y="188"/>
		</contour>
		<contour>
			<point x="20" y="-465" type="curve" smooth="yes"/>
			<point x="157" y="-465"/>
			<point x="255" y="-381"/>
			<point x="255" y="-278" type="curve" smooth="yes"/>
			<point x="255" y="-227"/>
			<point x="222" y="-176"/>
			<point x="108" y="-134" type="curve"/>
			<point x="108" y="-151" type="line"/>
			<point x="244" y="0" type="line"/>
			<point x="217" y="0" type="line"/>
			<point x="52" y="-177" type="line"/>
			<point x="52" y="-181" type="line"/>
			<point x="166" y="-219"/>
			<point x="204" y="-262"/>
			<point x="204" y="-310" type="curve" smooth="yes"/>
			<point x="204" y="-377"/>
			<point x="143" y="-434"/>
			<point x="73" y="-434" type="curve" smooth="yes"/>
			<point x="0" y="-434"/>
			<point x="-18" y="-373"/>
			<point x="-33" y="-373" type="curve" smooth="yes"/>
			<point x="-57" y="-373"/>
			<point x="-73" y="-391"/>
			<point x="-73" y="-412" type="curve" smooth="yes"/>
			<point x="-73" y="-441"/>
			<point x="-49" y="-465"/>
		</contour>
	</outline>
</glyph>
<glyph name="Tbar" format="2">
	<unicode hex="0166"/>
	<advance width="1259"/>
	<outline>
		<contour>
			<point x="354" y="711" type="line"/>
			<point x="1025" y="711" type="line"/>
			<point x="1041" y="763" type="line"/>
			<point x="370" y="763" type="line"/>
		</contour>
		<contour>
			<point x="1404" y="1402" type="line"/>
			<point x="1357" y="1419" type="line"/>
			<point x="1363" y="1050" type="line"/>
			<point x="1381" y="1050" type="line"/>
			<point x="1459" y="1498" type="line"/>
			<point x="1453" y="1498" type="line"/>
			<point x="1355" y="1422" type="line"/>
			<point x="1388" y="1430" type="line"/>
			<point x="415" y="1430" type="line"/>
			<point x="440" y="1422" type="line"/>
			<point x="387" y="1498" type="line"/>
			<point x="382" y="1498" type="line"/>
			<point x="209" y="1053" type="line"/>
			<point x="225" y="1047" type="line"/>
			<point x="445" y="1419" type="line"/>
			<point x="388" y="1402" type="line"/>
		</contour>
		<contour>
			<point x="867" y="1416" type="line"/>
			<point x="446" y="36" type="line"/>
			<point x="267" y="12" type="line"/>
			<point x="264" y="0" type="line"/>
			<point x="689" y="0" type="line"/>
			<point x="693" y="12" type="line"/>
			<point x="522" y="36" type="line"/>
			<point x="944" y="1416" type="line"/>
		</contour>
	</outline>
</glyph>
<glyph name="tbar" format="2">
	<unicode hex="0167"/>
	<advance width="593"/>
	<outline>
		<contour>
			<point x="63" y="604" type="line"/>
			<point x="532" y="604" type="line"/>
			<point x="548" y="656" type="line"/>
			<point x="79" y="656" type="line"/>
		</contour>
		<contour>
			<point x="158" y="997" type="line"/>
			<point x="657" y="997" type="line"/>
			<point x="663" y="1024" type="line"/>
			<point x="170" y="1024" type="line"/>
		</contour>
		<contour>
			<point x="177" y="101" type="curve" smooth="yes"/>
			<point x="177" y="137"/>
			<point x="188" y="188"/>
			<point x="211" y="259" type="curve" smooth="yes"/>
			<point x="535" y="1270" type="line"/>
			<point x="463" y="1270" type="line"/>
			<point x="126" y="219" type="line" smooth="yes"/>
			<point x="110" y="169"/>
			<point x="103" y="128"/>
			<point x="103" y="95" type="curve" smooth="yes"/>
			<point x="103" y="14"/>
			<point x="147" y="-20"/>
			<point x="215" y="-20" type="curve" smooth="yes"/>
			<point x="313" y="-20"/>
			<point x="397" y="48"/>
			<point x="535" y="295" type="curve"/>
			<point x="526" y="300" type="line"/>
			<point x="378" y="66"/>
			<point x="297" y="30"/>
			<point x="241" y="30" type="curve" smooth="yes"/>
			<point x="200" y="30"/>
			<point x="177" y="49"/>
		</contour>
	</outline>
</glyph>
<glyph name="Uogonek" format="2">
	<unicode hex="0172"/>
	<advance width="1456"/>
	<outline>
		<contour>
			<point x="332" y="616" type="curve" smooth="yes"/>
			<point x="570" y="1394" type="line"/>
			<point x="748" y="1418" type="line"/>
			<point x="752" y="1430" type="line"/>
			<point x="326" y="1430" type="line"/>
			<point x="322" y="1418" type="line"/>
			<point x="493" y="1394" type="line"/>
			<point x="255" y="614" type="line" smooth="yes"/>
			<point x="120" y="170"/>
			<point x="286" y="-20"/>
			<point x="621" y="-20" type="curve" smooth="yes"/>
			<point x="963" y="-20"/>
			<point x="1133" y="156"/>
			<point x="1253" y="549" type="curve" smooth="yes"/>
			<point x="1511" y="1394" type="line"/>
			<point x="1689" y="1418" type="line"/>
			<point x="1693" y="1430" type="line"/>
			<point x="1311" y="1430" type="line"/>
			<point x="1307" y="1418" type="line"/>
			<point x="1478" y="1394" type="line"/>
			<point x="1234" y="595" type="line" smooth="yes"/>
			<point x="1104" y="168"/>
			<point x="942" y="27"/>
			<point x="644" y="27" type="curve" smooth="yes"/>
			<point x="328" y="27"/>
			<point x="211" y="219"/>
		</contour>
		<contour>
			<point x="467" y="-347" type="curve" smooth="yes"/>
			<point x="467" y="-299"/>
			<point x="487" y="-233"/>
			<point x="607" y="-82" type="curve" smooth="yes"/>
			<point x="672" y="0" type="line"/>
			<point x="651" y="0" type="line"/>
			<point x="545" y="-124" type="line" smooth="yes"/>
			<point x="432" y="-256"/>
			<point x="406" y="-309"/>
			<point x="406" y="-364" type="curve" smooth="yes"/>
			<point x="406" y="-422"/>
			<point x="442" y="-465"/>
			<point x="517" y="-465" type="curve" smooth="yes"/>
			<point x="577" y="-465"/>
			<point x="617" y="-434"/>
			<point x="675" y="-359" type="curve"/>
			<point x="667" y="-351" type="line"/>
			<point x="624" y="-395"/>
			<point x="584" y="-414"/>
			<point x="546" y="-414" type="curve" smooth="yes"/>
			<point x="488" y="-414"/>
			<point x="467" y="-388"/>
		</contour>
	</outline>
</glyph>
<glyph name="uogonek" format="2">
	<unicode hex="0173"/>
	<advance width="1021"/>
	<outline>
		<contour>
			<point x="974" y="281" type="curve"/>
			<point x="967" y="286" type="line"/>
			<point x="792" y="74"/>
			<point x="679" y="32"/>
			<point x="610" y="51" type="curve"/>
			<point x="639" y="6" type="line"/>
			<point x="978" y="1024" type="line"/>
			<point x="908" y="1024" type="line"/>
			<point x="735" y="504" type="line"/>
			<point x="642" y="311"/>
			<point x="490" y="41"/>
			<point x="269" y="41" type="curve" smooth="yes"/>
			<point x="210" y="41"/>
			<point x="168" y="64"/>
			<point x="168" y="132" type="curve" smooth="yes"/>
			<point x="168" y="163"/>
			<point x="182" y="209"/>
			<point x="229" y="328" type="curve" smooth="yes"/>
			<point x="479" y="962" type="line" smooth="yes"/>
			<point x="501" y="1018"/>
			<point x="498" y="1044"/>
			<point x="446" y="1044" type="curve" smooth="yes"/>
			<point x="359" y="1044"/>
			<point x="240" y="995"/>
			<point x="70" y="749" type="curve"/>
			<point x="77" y="743" type="line"/>
			<point x="237" y="942"/>
			<point x="397" y="998"/>
			<point x="455" y="975" type="curve"/>
			<point x="429" y="1018" type="line"/>
			<point x="149" y="309" type="line" smooth="yes"/>
			<point x="102" y="189"/>
			<point x="90" y="150"/>
			<point x="90" y="107" type="curve" smooth="yes"/>
			<point x="90" y="33"/>
			<point x="139" y="-20"/>
			<point x="247" y="-20" type="curve" smooth="yes"/>
			<point x="472" y="-20"/>
			<point x="628" y="222"/>
			<point x="746" y="508" type="curve"/>
			<point x="726" y="471" type="line"/>
			<point x="599" y="81" type="line" smooth="yes"/>
			<point x="570" y="-7"/>
			<point x="576" y="-20"/>
			<point x="622" y="-20" type="curve" smooth="yes"/>
			<point x="675" y="-20"/>
			<point x="731" y="3"/>
			<point x="795" y="61" type="curve"/>
			<point x="791" y="66" type="line"/>
			<point x="665" y="-84" type="line" smooth="yes"/>
			<point x="541" y="-232"/>
			<point x="519" y="-299"/>
			<point x="519" y="-352" type="curve" smooth="yes"/>
			<point x="519" y="-423"/>
			<point x="556" y="-465"/>
			<point x="632" y="-465" type="curve" smooth="yes"/>
			<point x="692" y="-465"/>
			<point x="732" y="-434"/>
			<point x="790" y="-359" type="curve"/>
			<point x="782" y="-351" type="line"/>
			<point x="739" y="-395"/>
			<point x="699" y="-414"/>
			<point x="661" y="-414" type="curve" smooth="yes"/>
			<point x="599" y="-414"/>
			<point x="580" y="-382"/>
			<point x="580" y="-331" type="curve" smooth="yes"/>
			<point x="580" y="-279"/>
			<point x="605" y="-206"/>
			<point x="731" y="-42" type="curve" smooth="yes"/>
			<point x="880" y="151" type="line" smooth="yes"/>
			<point x="918" y="200"/>
			<point x="947" y="240"/>
		</contour>
	</outline>
</glyph>
<glyph name="uni018F" format="2">
	<unicode hex="018F"/>
	<advance width="1413"/>
	<outline>
		<contour>
			<point x="139" y="532" type="line"/>
			<point x="128" y="481"/>
			<point x="123" y="433"/>
			<point x="123" y="388" type="curve" smooth="yes"/>
			<point x="123" y="136"/>
			<point x="288" y="-20"/>
			<point x="588" y="-20" type="curve" smooth="yes"/>
			<point x="1100" y="-20"/>
			<point x="1393" y="498"/>
			<point x="1393" y="930" type="curve" smooth="yes"/>
			<point x="1393" y="1270"/>
			<point x="1192" y="1450"/>
			<point x="862" y="1450" type="curve" smooth="yes"/>
			<point x="642" y="1450"/>
			<point x="466" y="1375"/>
			<point x="224" y="1126" type="curve"/>
			<point x="235" y="1113" type="line"/>
			<point x="446" y="1324"/>
			<point x="614" y="1399"/>
			<point x="837" y="1399" type="curve" smooth="yes"/>
			<point x="1142" y="1399"/>
			<point x="1317" y="1212"/>
			<point x="1317" y="900" type="curve" smooth="yes"/>
			<point x="1317" y="503"/>
			<point x="1077" y="7"/>
			<point x="589" y="7" type="curve" smooth="yes"/>
			<point x="339" y="7"/>
			<point x="199" y="144"/>
			<point x="199" y="389" type="curve" smooth="yes"/>
			<point x="199" y="431"/>
			<point x="203" y="475"/>
			<point x="211" y="523" type="curve"/>
			<point x="191" y="504" type="line"/>
			<point x="1264" y="504" type="line"/>
			<point x="1269" y="532" type="line"/>
		</contour>
	</outline>
</glyph>
<glyph name="Ohorn" format="2">
	<unicode hex="01A0"/>
	<advance width="1505"/>
	<outline>
		<contour>
			<point x="217" y="490" type="curve" smooth="yes"/>
			<point x="217" y="905"/>
			<point x="527" y="1423"/>
			<point x="994" y="1423" type="curve" smooth="yes"/>
			<point x="1264" y="1423"/>
			<point x="1410" y="1257"/>
			<point x="1410" y="940" type="curve" smooth="yes"/>
			<point x="1410" y="525"/>
			<point x="1100" y="7"/>
			<point x="633" y="7" type="curve" smooth="yes"/>
			<point x="363" y="7"/>
			<point x="217" y="173"/>
		</contour>
		<contour>
			<point x="1488" y="915" type="curve" smooth="yes"/>
			<point x="1488" y="1168"/>
			<point x="1388" y="1334"/>
			<point x="1242" y="1398" type="curve"/>
			<point x="1242" y="1391" type="line"/>
			<point x="1480" y="1346"/>
			<point x="1620" y="1454"/>
			<point x="1620" y="1634" type="curve" smooth="yes"/>
			<point x="1620" y="1691"/>
			<point x="1594" y="1712"/>
			<point x="1561" y="1712" type="curve" smooth="yes"/>
			<point x="1526" y="1712"/>
			<point x="1498" y="1683"/>
			<point x="1498" y="1659" type="curve" smooth="yes"/>
			<point x="1498" y="1652"/>
			<point x="1528" y="1613"/>
			<point x="1528" y="1565" type="curve" smooth="yes"/>
			<point x="1528" y="1477"/>
			<point x="1465" y="1406"/>
			<point x="1325" y="1406" type="curve" smooth="yes"/>
			<point x="1211" y="1406"/>
			<point x="1140" y="1450"/>
			<point x="990" y="1450" type="curve" smooth="yes"/>
			<point x="497" y="1450"/>
			<point x="139" y="958"/>
			<point x="139" y="515" type="curve" smooth="yes"/>
			<point x="139" y="192"/>
			<point x="293" y="-20"/>
			<point x="637" y="-20" type="curve" smooth="yes"/>
			<point x="1130" y="-20"/>
			<point x="1488" y="472"/>
		</contour>
	</outline>
	<anchor name="UCtop" x="1032" y="1430"/>
	<anchor name="bottom" x="594" y="0"/>
</glyph>
<glyph name="ohorn" format="2">
	<unicode hex="01A1"/>
	<advance width="889"/>
	<outline>
		<contour>
			<point x="268" y="2" type="curve" smooth="yes"/>
			<point x="171" y="2"/>
			<point x="125" y="74"/>
			<point x="125" y="242" type="curve" smooth="yes"/>
			<point x="125" y="609"/>
			<point x="366" y="1022"/>
			<point x="611" y="1022" type="curve" smooth="yes"/>
			<point x="708" y="1022"/>
			<point x="754" y="950"/>
			<point x="754" y="782" type="curve" smooth="yes"/>
			<point x="754" y="415"/>
			<point x="513" y="2"/>
		</contour>
		<contour>
			<point x="829" y="753" type="curve" smooth="yes"/>
			<point x="829" y="867"/>
			<point x="803" y="963"/>
			<point x="732" y="1010" type="curve"/>
			<point x="732" y="1000" type="line"/>
			<point x="898" y="958"/>
			<point x="1027" y="1057"/>
			<point x="1027" y="1234" type="curve" smooth="yes"/>
			<point x="1027" y="1282"/>
			<point x="1008" y="1306"/>
			<point x="971" y="1306" type="curve" smooth="yes"/>
			<point x="939" y="1306"/>
			<point x="913" y="1279"/>
			<point x="913" y="1257" type="curve" smooth="yes"/>
			<point x="913" y="1251"/>
			<point x="945" y="1215"/>
			<point x="945" y="1171" type="curve" smooth="yes"/>
			<point x="945" y="1074"/>
			<point x="883" y="1017"/>
			<point x="787" y="1017" type="curve" smooth="yes"/>
			<point x="725" y="1017"/>
			<point x="679" y="1044"/>
			<point x="611" y="1044" type="curve" smooth="yes"/>
			<point x="316" y="1044"/>
			<point x="50" y="668"/>
			<point x="50" y="271" type="curve" smooth="yes"/>
			<point x="50" y="78"/>
			<point x="125" y="-20"/>
			<point x="268" y="-20" type="curve" smooth="yes"/>
			<point x="563" y="-20"/>
			<point x="829" y="356"/>
		</contour>
	</outline>
	<anchor name="top" x="576" y="1024"/>
	<anchor name="bottom" x="282" y="0"/>
</glyph>
<glyph name="Uhorn" format="2">
	<unicode hex="01AF"/>
	<advance width="1438"/>
	<outline>
		<contour>
			<point x="332" y="616" type="curve" smooth="yes"/>
			<point x="570" y="1394" type="line"/>
			<point x="748" y="1418" type="line"/>
			<point x="752" y="1430" type="line"/>
			<point x="326" y="1430" type="line"/>
			<point x="322" y="1418" type="line"/>
			<point x="493" y="1394" type="line"/>
			<point x="255" y="614" type="line" smooth="yes"/>
			<point x="120" y="170"/>
			<point x="286" y="-20"/>
			<point x="621" y="-20" type="curve" smooth="yes"/>
			<point x="963" y="-20"/>
			<point x="1133" y="156"/>
			<point x="1253" y="549" type="curve" smooth="yes"/>
			<point x="1511" y="1394" type="line"/>
			<point x="1741" y="1397"/>
			<point x="1815" y="1492"/>
			<point x="1815" y="1634" type="curve" smooth="yes"/>
			<point x="1815" y="1691"/>
			<point x="1789" y="1712"/>
			<point x="1756" y="1712" type="curve" smooth="yes"/>
			<point x="1721" y="1712"/>
			<point x="1693" y="1683"/>
			<point x="1693" y="1659" type="curve" smooth="yes"/>
			<point x="1693" y="1652"/>
			<point x="1723" y="1613"/>
			<point x="1723" y="1565" type="curve" smooth="yes"/>
			<point x="1723" y="1468"/>
			<point x="1670" y="1430"/>
			<point x="1542" y="1430" type="curve" smooth="yes"/>
			<point x="1311" y="1430" type="line"/>
			<point x="1307" y="1418" type="line"/>
			<point x="1478" y="1394" type="line"/>
			<point x="1234" y="595" type="line" smooth="yes"/>
			<point x="1104" y="168"/>
			<point x="942" y="27"/>
			<point x="644" y="27" type="curve" smooth="yes"/>
			<point x="328" y="27"/>
			<point x="211" y="219"/>
		</contour>
	</outline>
	<anchor name="UCtop" x="1031" y="1430"/>
	<anchor name="bottom" x="617" y="0"/>
</glyph>
<glyph name="uhorn" format="2">
	<unicode hex="01B0"/>
	<advance width="1056"/>
	<outline>
		<contour>
			<point x="599" y="81" type="line" smooth="yes"/>
			<point x="570" y="-7"/>
			<point x="576" y="-20"/>
			<point x="622" y="-20" type="curve" smooth="yes"/>
			<point x="719" y="-20"/>
			<point x="826" y="59"/>
			<point x="974" y="281" type="curve"/>
			<point x="967" y="286" type="line"/>
			<point x="792" y="74"/>
			<point x="679" y="32"/>
			<point x="610" y="51" type="curve"/>
			<point x="639" y="6" type="line"/>
			<point x="978" y="1024" type="line"/>
			<point x="908" y="1024" type="line"/>
			<point x="735" y="504" type="line"/>
			<point x="642" y="311"/>
			<point x="490" y="41"/>
			<point x="269" y="41" type="curve" smooth="yes"/>
			<point x="210" y="41"/>
			<point x="168" y="64"/>
			<point x="168" y="132" type="curve" smooth="yes"/>
			<point x="168" y="163"/>
			<point x="182" y="209"/>
			<point x="229" y="328" type="curve" smooth="yes"/>
			<point x="479" y="962" type="line" smooth="yes"/>
			<point x="501" y="1018"/>
			<point x="498" y="1044"/>
			<point x="446" y="1044" type="curve" smooth="yes"/>
			<point x="359" y="1044"/>
			<point x="240" y="995"/>
			<point x="70" y="749" type="curve"/>
			<point x="77" y="743" type="line"/>
			<point x="237" y="942"/>
			<point x="397" y="998"/>
			<point x="455" y="975" type="curve"/>
			<point x="429" y="1018" type="line"/>
			<point x="149" y="309" type="line" smooth="yes"/>
			<point x="102" y="189"/>
			<point x="90" y="150"/>
			<point x="90" y="107" type="curve" smooth="yes"/>
			<point x="90" y="33"/>
			<point x="139" y="-20"/>
			<point x="247" y="-20" type="curve" smooth="yes"/>
			<point x="472" y="-20"/>
			<point x="628" y="222"/>
			<point x="746" y="508" type="curve"/>
			<point x="726" y="471" type="line"/>
		</contour>
		<contour>
			<point x="1213" y="1234" type="curve" smooth="yes"/>
			<point x="1213" y="1282"/>
			<point x="1194" y="1306"/>
			<point x="1157" y="1306" type="curve" smooth="yes"/>
			<point x="1125" y="1306"/>
			<point x="1099" y="1279"/>
			<point x="1099" y="1257" type="curve" smooth="yes"/>
			<point x="1099" y="1251"/>
			<point x="1131" y="1215"/>
			<point x="1131" y="1171" type="curve" smooth="yes"/>
			<point x="1131" y="1088"/>
			<point x="1072" y="1024"/>
			<point x="955" y="1024" type="curve" smooth="yes"/>
			<point x="930" y="1024" type="line"/>
			<point x="921" y="995" type="line"/>
			<point x="956" y="995" type="line" smooth="yes"/>
			<point x="1128" y="995"/>
			<point x="1213" y="1094"/>
		</contour>
	</outline>
	<anchor name="top" x="661" y="1024"/>
	<anchor name="bottom" x="347" y="0"/>
</glyph>
